<mxfile host="app.diagrams.net" modified="2022-06-11T10:23:51.928Z" agent="5.0 (X11)" etag="SIa-hstGDmKLVf0ZMVH_" version="19.0.3" type="github" pages="7">
  <diagram name="BlockDiagrColored" id="8EUWjHIcr33Rf8L5sMi_">
    <mxGraphModel dx="1196" dy="712" grid="1" gridSize="5" guides="1" tooltips="1" connect="1" arrows="1" fold="1" page="1" pageScale="1" pageWidth="827" pageHeight="1169" math="0" shadow="0">
      <root>
        <mxCell id="nNbP0gQjql7Elt1-YhSS-0" />
        <mxCell id="nNbP0gQjql7Elt1-YhSS-1" parent="nNbP0gQjql7Elt1-YhSS-0" />
        <mxCell id="nNbP0gQjql7Elt1-YhSS-2" value="" style="rounded=0;whiteSpace=wrap;html=1;fillColor=#82B366;strokeColor=#82b366;dashed=1;strokeWidth=3;opacity=20;" parent="nNbP0gQjql7Elt1-YhSS-1" vertex="1">
          <mxGeometry x="110" y="20" width="590" height="235" as="geometry" />
        </mxCell>
        <mxCell id="VR1bi-7NdDzoEJVw8Rtb-0" value="" style="rounded=0;whiteSpace=wrap;html=1;fillColor=#FFFFFF;strokeColor=none;dashed=1;strokeWidth=3;" parent="nNbP0gQjql7Elt1-YhSS-1" vertex="1">
          <mxGeometry x="265" y="30" width="387" height="210" as="geometry" />
        </mxCell>
        <mxCell id="nNbP0gQjql7Elt1-YhSS-3" value="" style="rounded=0;whiteSpace=wrap;html=1;fillColor=#B85450;strokeColor=#b85450;dashed=1;strokeWidth=3;opacity=30;" parent="nNbP0gQjql7Elt1-YhSS-1" vertex="1">
          <mxGeometry x="265" y="30" width="387" height="210" as="geometry" />
        </mxCell>
        <mxCell id="nNbP0gQjql7Elt1-YhSS-4" style="edgeStyle=orthogonalEdgeStyle;rounded=0;jumpSize=5;orthogonalLoop=1;jettySize=auto;html=1;fontSize=9;startArrow=none;startFill=0;startSize=6;strokeWidth=1;" parent="nNbP0gQjql7Elt1-YhSS-1" source="nNbP0gQjql7Elt1-YhSS-6" edge="1">
          <mxGeometry relative="1" as="geometry">
            <mxPoint x="723.35" y="78" as="targetPoint" />
            <Array as="points">
              <mxPoint x="716.35" y="77" />
            </Array>
          </mxGeometry>
        </mxCell>
        <mxCell id="nNbP0gQjql7Elt1-YhSS-5" value="Display" style="edgeLabel;html=1;align=center;verticalAlign=middle;resizable=0;points=[];fontSize=9;fontStyle=1" parent="nNbP0gQjql7Elt1-YhSS-4" vertex="1" connectable="0">
          <mxGeometry x="0.7156" y="-1" relative="1" as="geometry">
            <mxPoint x="19" y="-1" as="offset" />
          </mxGeometry>
        </mxCell>
        <mxCell id="nNbP0gQjql7Elt1-YhSS-6" value="" style="shape=image;html=1;verticalAlign=top;verticalLabelPosition=bottom;labelBackgroundColor=#ffffff;imageAspect=0;aspect=fixed;image=https://cdn1.iconfinder.com/data/icons/bootstrap-vol-3/16/hdmi-128.png;fontSize=9;fillColor=#000000;imageBackground=#DAE8FC;" parent="nNbP0gQjql7Elt1-YhSS-1" vertex="1">
          <mxGeometry x="658.35" y="58.5" width="37.65" height="37.65" as="geometry" />
        </mxCell>
        <mxCell id="nNbP0gQjql7Elt1-YhSS-7" value="&lt;font style=&quot;font-size: 9px&quot;&gt;Digital Signal&lt;/font&gt;" style="edgeStyle=orthogonalEdgeStyle;rounded=0;jumpSize=5;orthogonalLoop=1;jettySize=auto;html=1;entryX=0;entryY=0.75;entryDx=0;entryDy=0;startArrow=none;startFill=0;startSize=6;strokeWidth=1;labelBackgroundColor=none;" parent="nNbP0gQjql7Elt1-YhSS-1" edge="1">
          <mxGeometry x="-0.0965" y="8" relative="1" as="geometry">
            <Array as="points">
              <mxPoint x="453.65" y="168" />
            </Array>
            <mxPoint as="offset" />
            <mxPoint x="416.15" y="167.5027932960894" as="sourcePoint" />
            <mxPoint x="480" y="167.5" as="targetPoint" />
          </mxGeometry>
        </mxCell>
        <mxCell id="nNbP0gQjql7Elt1-YhSS-8" value="&lt;div&gt;&lt;b&gt;ADC&lt;/b&gt;&lt;/div&gt;&lt;div&gt;IP&lt;br&gt;&lt;/div&gt;" style="shape=process;whiteSpace=wrap;html=1;backgroundOutline=1;fontSize=9;strokeColor=#d6b656;fillColor=#fff2cc;" parent="nNbP0gQjql7Elt1-YhSS-1" vertex="1">
          <mxGeometry x="366.15" y="150" width="50" height="75" as="geometry" />
        </mxCell>
        <mxCell id="nNbP0gQjql7Elt1-YhSS-9" style="edgeStyle=orthogonalEdgeStyle;rounded=0;jumpSize=5;orthogonalLoop=1;jettySize=auto;html=1;entryX=0.012;entryY=0.649;entryDx=0;entryDy=0;fontSize=9;startArrow=none;startFill=0;startSize=6;strokeWidth=1;entryPerimeter=0;" parent="nNbP0gQjql7Elt1-YhSS-1" source="nNbP0gQjql7Elt1-YhSS-11" target="GSOs-R7ZHx89IiwIeZ-n-0" edge="1">
          <mxGeometry relative="1" as="geometry">
            <Array as="points">
              <mxPoint x="657" y="78" />
            </Array>
          </mxGeometry>
        </mxCell>
        <mxCell id="nNbP0gQjql7Elt1-YhSS-10" value="&amp;nbsp;HDMI-Tx&amp;nbsp; &lt;br&gt;Port" style="edgeLabel;html=1;align=center;verticalAlign=middle;resizable=0;points=[];fontSize=9;labelBackgroundColor=#DAE8FC;" parent="nNbP0gQjql7Elt1-YhSS-9" vertex="1" connectable="0">
          <mxGeometry x="0.2296" relative="1" as="geometry">
            <mxPoint x="27" y="-22" as="offset" />
          </mxGeometry>
        </mxCell>
        <mxCell id="nNbP0gQjql7Elt1-YhSS-11" value="&lt;div&gt;&lt;b&gt;HDMI&lt;/b&gt;&lt;/div&gt;&lt;div&gt;IP&lt;br&gt;&lt;/div&gt;" style="shape=process;whiteSpace=wrap;html=1;backgroundOutline=1;fontSize=9;strokeColor=#d6b656;fillColor=#fff2cc;" parent="nNbP0gQjql7Elt1-YhSS-1" vertex="1">
          <mxGeometry x="577" y="55" width="60" height="45" as="geometry" />
        </mxCell>
        <mxCell id="nNbP0gQjql7Elt1-YhSS-12" style="edgeStyle=orthogonalEdgeStyle;rounded=0;jumpSize=5;orthogonalLoop=1;jettySize=auto;html=1;startArrow=none;startFill=0;startSize=6;strokeWidth=1;" parent="nNbP0gQjql7Elt1-YhSS-1" source="nNbP0gQjql7Elt1-YhSS-14" target="nNbP0gQjql7Elt1-YhSS-11" edge="1">
          <mxGeometry relative="1" as="geometry">
            <Array as="points">
              <mxPoint x="559.5" y="150" />
              <mxPoint x="559.5" y="90" />
            </Array>
          </mxGeometry>
        </mxCell>
        <mxCell id="nNbP0gQjql7Elt1-YhSS-13" value="Filtered &lt;br&gt;Signal" style="edgeLabel;html=1;align=center;verticalAlign=middle;resizable=0;points=[];fontSize=9;labelBackgroundColor=none;" parent="nNbP0gQjql7Elt1-YhSS-12" vertex="1" connectable="0">
          <mxGeometry x="-0.2158" y="3" relative="1" as="geometry">
            <mxPoint x="18" y="-10" as="offset" />
          </mxGeometry>
        </mxCell>
        <mxCell id="nNbP0gQjql7Elt1-YhSS-14" value="&lt;div&gt;&lt;b&gt;Filters&lt;/b&gt;&lt;/div&gt;&lt;div&gt;IP&lt;br&gt;&lt;/div&gt;" style="shape=process;whiteSpace=wrap;html=1;backgroundOutline=1;fontSize=9;strokeColor=#d6b656;fillColor=#fff2cc;" parent="nNbP0gQjql7Elt1-YhSS-1" vertex="1">
          <mxGeometry x="480" y="115" width="60" height="70" as="geometry" />
        </mxCell>
        <mxCell id="nNbP0gQjql7Elt1-YhSS-15" value="&lt;font style=&quot;font-size: 9px&quot;&gt;ADC-Config&lt;/font&gt;" style="edgeStyle=orthogonalEdgeStyle;rounded=0;jumpSize=5;orthogonalLoop=1;jettySize=auto;html=1;startArrow=none;startFill=0;startSize=6;strokeWidth=1;labelBackgroundColor=none;" parent="nNbP0gQjql7Elt1-YhSS-1" source="nNbP0gQjql7Elt1-YhSS-19" target="nNbP0gQjql7Elt1-YhSS-8" edge="1">
          <mxGeometry x="-0.0728" y="10" relative="1" as="geometry">
            <mxPoint x="350.65" y="185" as="targetPoint" />
            <Array as="points">
              <mxPoint x="305" y="169" />
              <mxPoint x="305" y="169" />
            </Array>
            <mxPoint as="offset" />
          </mxGeometry>
        </mxCell>
        <mxCell id="nNbP0gQjql7Elt1-YhSS-16" style="edgeStyle=orthogonalEdgeStyle;rounded=0;jumpSize=5;orthogonalLoop=1;jettySize=auto;html=1;entryX=0;entryY=0.25;entryDx=0;entryDy=0;startArrow=none;startFill=0;startSize=6;strokeWidth=1;" parent="nNbP0gQjql7Elt1-YhSS-1" source="nNbP0gQjql7Elt1-YhSS-19" target="nNbP0gQjql7Elt1-YhSS-14" edge="1">
          <mxGeometry relative="1" as="geometry">
            <Array as="points">
              <mxPoint x="390.65" y="133" />
            </Array>
          </mxGeometry>
        </mxCell>
        <mxCell id="nNbP0gQjql7Elt1-YhSS-17" value="Filter-Select" style="edgeLabel;html=1;align=center;verticalAlign=middle;resizable=0;points=[];fontSize=9;labelBackgroundColor=none;" parent="nNbP0gQjql7Elt1-YhSS-16" vertex="1" connectable="0">
          <mxGeometry x="0.112" y="-1" relative="1" as="geometry">
            <mxPoint y="-8" as="offset" />
          </mxGeometry>
        </mxCell>
        <mxCell id="nNbP0gQjql7Elt1-YhSS-18" value="&lt;font style=&quot;font-size: 9px&quot;&gt;HDMI-Config&lt;/font&gt;" style="edgeStyle=orthogonalEdgeStyle;rounded=0;jumpSize=5;orthogonalLoop=1;jettySize=auto;html=1;entryX=0;entryY=0.25;entryDx=0;entryDy=0;startArrow=none;startFill=0;startSize=6;strokeWidth=1;labelBackgroundColor=none;" parent="nNbP0gQjql7Elt1-YhSS-1" source="nNbP0gQjql7Elt1-YhSS-19" target="nNbP0gQjql7Elt1-YhSS-11" edge="1">
          <mxGeometry x="-0.0001" y="11" relative="1" as="geometry">
            <Array as="points">
              <mxPoint x="350.65" y="66" />
              <mxPoint x="350.65" y="66" />
            </Array>
            <mxPoint as="offset" />
          </mxGeometry>
        </mxCell>
        <mxCell id="nNbP0gQjql7Elt1-YhSS-19" value="&lt;div&gt;&lt;b&gt;AXI_S&lt;/b&gt;&lt;/div&gt;&lt;div&gt;IP&lt;br&gt;&lt;/div&gt;" style="shape=process;whiteSpace=wrap;html=1;backgroundOutline=1;fontSize=9;strokeColor=#6c8ebf;fillColor=#dae8fc;" parent="nNbP0gQjql7Elt1-YhSS-1" vertex="1">
          <mxGeometry x="240" y="55" width="50.65" height="127" as="geometry" />
        </mxCell>
        <mxCell id="nNbP0gQjql7Elt1-YhSS-20" value="&lt;font style=&quot;font-size: 9px&quot;&gt;AXI-Lite&lt;/font&gt;" style="edgeStyle=orthogonalEdgeStyle;rounded=0;orthogonalLoop=1;jettySize=auto;html=1;jumpSize=5;startSize=6;startArrow=classic;startFill=1;strokeWidth=1;labelBackgroundColor=none;" parent="nNbP0gQjql7Elt1-YhSS-1" source="nNbP0gQjql7Elt1-YhSS-21" edge="1">
          <mxGeometry x="0.0001" y="10" relative="1" as="geometry">
            <Array as="points">
              <mxPoint x="175.65" y="125" />
              <mxPoint x="175.65" y="125" />
            </Array>
            <mxPoint as="offset" />
            <mxPoint x="240" y="125" as="targetPoint" />
          </mxGeometry>
        </mxCell>
        <mxCell id="nNbP0gQjql7Elt1-YhSS-21" value="&lt;div&gt;&lt;span&gt;PS&lt;/span&gt;&lt;/div&gt;" style="shape=process;whiteSpace=wrap;html=1;backgroundOutline=1;fontSize=9;strokeColor=#b85450;fillColor=#f8cecc;size=0;fontStyle=1" parent="nNbP0gQjql7Elt1-YhSS-1" vertex="1">
          <mxGeometry x="130.65" y="55" width="49.35" height="127" as="geometry" />
        </mxCell>
        <mxCell id="nNbP0gQjql7Elt1-YhSS-26" value="" style="endArrow=classic;html=1;rounded=0;startSize=6;strokeWidth=1;jumpSize=5;edgeStyle=orthogonalEdgeStyle;" parent="nNbP0gQjql7Elt1-YhSS-1" target="nNbP0gQjql7Elt1-YhSS-19" edge="1">
          <mxGeometry width="50" height="50" relative="1" as="geometry">
            <mxPoint x="560" y="100" as="sourcePoint" />
            <mxPoint x="410.38154362416105" y="210" as="targetPoint" />
            <Array as="points">
              <mxPoint x="560" y="100" />
              <mxPoint x="560" y="100" />
            </Array>
          </mxGeometry>
        </mxCell>
        <mxCell id="nNbP0gQjql7Elt1-YhSS-27" value="" style="ellipse;whiteSpace=wrap;html=1;fillColor=#000000;" parent="nNbP0gQjql7Elt1-YhSS-1" vertex="1">
          <mxGeometry x="558" y="99.13" width="3" height="2.87" as="geometry" />
        </mxCell>
        <mxCell id="nNbP0gQjql7Elt1-YhSS-28" value="" style="endArrow=classic;html=1;rounded=0;startSize=6;strokeWidth=1;jumpSize=5;entryX=0;entryY=0.5;entryDx=0;entryDy=0;" parent="nNbP0gQjql7Elt1-YhSS-1" edge="1">
          <mxGeometry width="50" height="50" relative="1" as="geometry">
            <mxPoint x="80" y="125" as="sourcePoint" />
            <mxPoint x="130.6500000000001" y="124.65999999999997" as="targetPoint" />
          </mxGeometry>
        </mxCell>
        <mxCell id="nNbP0gQjql7Elt1-YhSS-29" value="User" style="edgeLabel;html=1;align=center;verticalAlign=middle;resizable=0;points=[];fontSize=9;fontStyle=1" parent="nNbP0gQjql7Elt1-YhSS-28" vertex="1" connectable="0">
          <mxGeometry x="-0.2552" y="-1" relative="1" as="geometry">
            <mxPoint x="-34" y="-1" as="offset" />
          </mxGeometry>
        </mxCell>
        <mxCell id="nNbP0gQjql7Elt1-YhSS-30" value="Zybo Z7-10" style="rounded=0;whiteSpace=wrap;html=1;fontSize=9;strokeColor=#82b366;strokeWidth=1;fillColor=#d5e8d4;fontStyle=1" parent="nNbP0gQjql7Elt1-YhSS-1" vertex="1">
          <mxGeometry x="109" y="19" width="66.5" height="17" as="geometry" />
        </mxCell>
        <mxCell id="nNbP0gQjql7Elt1-YhSS-32" value="PL" style="rounded=0;whiteSpace=wrap;html=1;fontSize=9;strokeColor=#b85450;strokeWidth=1;fillColor=#f8cecc;fontStyle=1" parent="nNbP0gQjql7Elt1-YhSS-1" vertex="1">
          <mxGeometry x="264" y="29" width="39.5" height="17" as="geometry" />
        </mxCell>
        <mxCell id="GSOs-R7ZHx89IiwIeZ-n-0" value="" style="rounded=0;whiteSpace=wrap;html=1;fillColor=none;strokeColor=#6c8ebf;dashed=1;strokeWidth=2;" parent="nNbP0gQjql7Elt1-YhSS-1" vertex="1">
          <mxGeometry x="657" y="45" width="40" height="49" as="geometry" />
        </mxCell>
        <mxCell id="GSOs-R7ZHx89IiwIeZ-n-1" value="" style="rounded=0;whiteSpace=wrap;html=1;fillColor=#DAE8FC;strokeColor=#6c8ebf;dashed=1;strokeWidth=2;verticalAlign=top;horizontal=1;align=center;" parent="nNbP0gQjql7Elt1-YhSS-1" vertex="1">
          <mxGeometry x="109.68" y="185" width="25.32" height="39" as="geometry" />
        </mxCell>
        <mxCell id="nNbP0gQjql7Elt1-YhSS-31" value="" style="fontStyle=0;labelPosition=right;verticalLabelPosition=middle;align=left;verticalAlign=middle;spacingLeft=2;fontSize=9;fillColor=#000000;" parent="nNbP0gQjql7Elt1-YhSS-1" vertex="1">
          <mxGeometry x="116" y="207" width="10" height="10" as="geometry" />
        </mxCell>
        <mxCell id="9aLxz9LTwt4g-MoEqCM4-0" value="&lt;div&gt;Input&lt;/div&gt;&lt;div&gt;Pin&lt;/div&gt;" style="text;html=1;align=center;verticalAlign=middle;resizable=0;points=[];autosize=1;strokeColor=none;fillColor=none;fontSize=9;" parent="nNbP0gQjql7Elt1-YhSS-1" vertex="1">
          <mxGeometry x="105.84" y="180" width="30" height="30" as="geometry" />
        </mxCell>
        <mxCell id="nNbP0gQjql7Elt1-YhSS-22" value="" style="endArrow=classic;html=1;rounded=0;startSize=6;strokeWidth=1;jumpSize=5;" parent="nNbP0gQjql7Elt1-YhSS-1" edge="1">
          <mxGeometry width="50" height="50" relative="1" as="geometry">
            <mxPoint x="80" y="212" as="sourcePoint" />
            <mxPoint x="365.65" y="212" as="targetPoint" />
          </mxGeometry>
        </mxCell>
        <mxCell id="nNbP0gQjql7Elt1-YhSS-23" value="Analog Signal" style="edgeLabel;html=1;align=center;verticalAlign=middle;resizable=0;points=[];fontSize=9;labelBackgroundColor=none;" parent="nNbP0gQjql7Elt1-YhSS-22" vertex="1" connectable="0">
          <mxGeometry x="-0.2552" y="-1" relative="1" as="geometry">
            <mxPoint x="24" y="-8" as="offset" />
          </mxGeometry>
        </mxCell>
        <mxCell id="nNbP0gQjql7Elt1-YhSS-25" value="Signal" style="edgeLabel;html=1;align=center;verticalAlign=middle;resizable=0;points=[];fontSize=9;fontStyle=1" parent="nNbP0gQjql7Elt1-YhSS-22" vertex="1" connectable="0">
          <mxGeometry x="-0.9634" relative="1" as="geometry">
            <mxPoint x="-25" as="offset" />
          </mxGeometry>
        </mxCell>
        <mxCell id="9aLxz9LTwt4g-MoEqCM4-1" value="" style="endArrow=classic;html=1;rounded=0;startSize=6;strokeWidth=1;jumpSize=5;" parent="nNbP0gQjql7Elt1-YhSS-1" edge="1">
          <mxGeometry width="50" height="50" relative="1" as="geometry">
            <mxPoint x="80" y="212" as="sourcePoint" />
            <mxPoint x="109" y="212" as="targetPoint" />
          </mxGeometry>
        </mxCell>
      </root>
    </mxGraphModel>
  </diagram>
  <diagram name="FiltersColored" id="5-ECx6Qtt0xmKNocZDu2">
    <mxGraphModel dx="1196" dy="712" grid="1" gridSize="5" guides="1" tooltips="1" connect="1" arrows="1" fold="1" page="1" pageScale="1" pageWidth="827" pageHeight="1169" background="none" math="0" shadow="0">
      <root>
        <mxCell id="yRX7iBBKM-cS_T7XNiQD-0" />
        <mxCell id="yRX7iBBKM-cS_T7XNiQD-1" parent="yRX7iBBKM-cS_T7XNiQD-0" />
        <mxCell id="yRX7iBBKM-cS_T7XNiQD-32" value="" style="rounded=0;whiteSpace=wrap;html=1;fillColor=#D5E8D4;strokeColor=#82b366;dashed=1;strokeWidth=3;opacity=30;" parent="yRX7iBBKM-cS_T7XNiQD-1" vertex="1">
          <mxGeometry x="249.33" y="60" width="255.67" height="175" as="geometry" />
        </mxCell>
        <mxCell id="yRX7iBBKM-cS_T7XNiQD-2" style="edgeStyle=orthogonalEdgeStyle;rounded=0;orthogonalLoop=1;jettySize=auto;html=1;exitX=1;exitY=0.5;exitDx=0;exitDy=0;entryX=0;entryY=0.21;entryDx=0;entryDy=3;entryPerimeter=0;fontSize=9;strokeColor=default;endArrow=none;endFill=0;" parent="yRX7iBBKM-cS_T7XNiQD-1" source="yRX7iBBKM-cS_T7XNiQD-4" target="yRX7iBBKM-cS_T7XNiQD-6" edge="1">
          <mxGeometry relative="1" as="geometry" />
        </mxCell>
        <mxCell id="yRX7iBBKM-cS_T7XNiQD-3" style="edgeStyle=orthogonalEdgeStyle;rounded=0;orthogonalLoop=1;jettySize=auto;html=1;exitX=0;exitY=0.5;exitDx=0;exitDy=0;fontSize=9;endArrow=none;endFill=0;strokeColor=default;" parent="yRX7iBBKM-cS_T7XNiQD-1" source="yRX7iBBKM-cS_T7XNiQD-4" edge="1">
          <mxGeometry relative="1" as="geometry">
            <mxPoint x="290.33" y="100" as="targetPoint" />
          </mxGeometry>
        </mxCell>
        <mxCell id="yRX7iBBKM-cS_T7XNiQD-4" value="LPF" style="rounded=0;whiteSpace=wrap;html=1;" parent="yRX7iBBKM-cS_T7XNiQD-1" vertex="1">
          <mxGeometry x="330.33" y="114" width="30" height="19" as="geometry" />
        </mxCell>
        <mxCell id="yRX7iBBKM-cS_T7XNiQD-5" value="" style="shadow=0;dashed=0;align=center;html=1;strokeWidth=1;shape=mxgraph.electrical.abstract.mux2;fillColor=#fff2cc;strokeColor=#d6b656;" parent="yRX7iBBKM-cS_T7XNiQD-1" vertex="1">
          <mxGeometry x="390.33" y="80" width="80" height="100" as="geometry" />
        </mxCell>
        <mxCell id="yRX7iBBKM-cS_T7XNiQD-6" value="" style="shadow=0;dashed=0;align=center;html=1;strokeWidth=1;shape=mxgraph.electrical.abstract.mux2;fillColor=#fff2cc;strokeColor=#d6b656;" parent="yRX7iBBKM-cS_T7XNiQD-1" vertex="1">
          <mxGeometry x="390.33" y="100" width="80" height="100" as="geometry" />
        </mxCell>
        <mxCell id="yRX7iBBKM-cS_T7XNiQD-7" value="" style="rounded=0;whiteSpace=wrap;html=1;strokeColor=none;" parent="yRX7iBBKM-cS_T7XNiQD-1" vertex="1">
          <mxGeometry x="400.83" y="91" width="59" height="79" as="geometry" />
        </mxCell>
        <mxCell id="yRX7iBBKM-cS_T7XNiQD-8" value="" style="rounded=0;whiteSpace=wrap;html=1;strokeColor=none;" parent="yRX7iBBKM-cS_T7XNiQD-1" vertex="1">
          <mxGeometry x="431.33" y="190" width="10" height="10" as="geometry" />
        </mxCell>
        <mxCell id="yRX7iBBKM-cS_T7XNiQD-10" value="" style="rounded=0;whiteSpace=wrap;html=1;strokeColor=#E1F5E0;fillColor=#E1F5E0;gradientColor=none;" parent="yRX7iBBKM-cS_T7XNiQD-1" vertex="1">
          <mxGeometry x="461.33" y="120" width="9" height="30" as="geometry" />
        </mxCell>
        <mxCell id="yRX7iBBKM-cS_T7XNiQD-11" style="edgeStyle=orthogonalEdgeStyle;rounded=0;orthogonalLoop=1;jettySize=auto;html=1;exitX=1;exitY=0.5;exitDx=0;exitDy=0;entryX=0;entryY=0.63;entryDx=0;entryDy=3;entryPerimeter=0;fontSize=9;endArrow=none;endFill=0;strokeColor=default;" parent="yRX7iBBKM-cS_T7XNiQD-1" source="yRX7iBBKM-cS_T7XNiQD-13" target="yRX7iBBKM-cS_T7XNiQD-5" edge="1">
          <mxGeometry relative="1" as="geometry" />
        </mxCell>
        <mxCell id="yRX7iBBKM-cS_T7XNiQD-12" style="edgeStyle=orthogonalEdgeStyle;rounded=0;orthogonalLoop=1;jettySize=auto;html=1;exitX=0;exitY=0.5;exitDx=0;exitDy=0;fontSize=9;endArrow=none;endFill=0;strokeColor=default;" parent="yRX7iBBKM-cS_T7XNiQD-1" source="yRX7iBBKM-cS_T7XNiQD-13" edge="1">
          <mxGeometry relative="1" as="geometry">
            <mxPoint x="290.33" y="120" as="targetPoint" />
          </mxGeometry>
        </mxCell>
        <mxCell id="yRX7iBBKM-cS_T7XNiQD-13" value="HPF" style="rounded=0;whiteSpace=wrap;html=1;" parent="yRX7iBBKM-cS_T7XNiQD-1" vertex="1">
          <mxGeometry x="330.33" y="136" width="30" height="19" as="geometry" />
        </mxCell>
        <mxCell id="yRX7iBBKM-cS_T7XNiQD-14" style="edgeStyle=orthogonalEdgeStyle;rounded=0;orthogonalLoop=1;jettySize=auto;html=1;exitX=1;exitY=0.5;exitDx=0;exitDy=0;entryX=0;entryY=0.63;entryDx=0;entryDy=3;entryPerimeter=0;fontSize=9;endArrow=none;endFill=0;strokeColor=default;" parent="yRX7iBBKM-cS_T7XNiQD-1" source="yRX7iBBKM-cS_T7XNiQD-16" target="yRX7iBBKM-cS_T7XNiQD-6" edge="1">
          <mxGeometry relative="1" as="geometry" />
        </mxCell>
        <mxCell id="yRX7iBBKM-cS_T7XNiQD-15" style="edgeStyle=orthogonalEdgeStyle;rounded=0;orthogonalLoop=1;jettySize=auto;html=1;exitX=0;exitY=0.5;exitDx=0;exitDy=0;fontSize=9;endArrow=none;endFill=0;strokeColor=default;" parent="yRX7iBBKM-cS_T7XNiQD-1" source="yRX7iBBKM-cS_T7XNiQD-16" edge="1">
          <mxGeometry relative="1" as="geometry">
            <mxPoint x="290.33" y="130" as="targetPoint" />
          </mxGeometry>
        </mxCell>
        <mxCell id="yRX7iBBKM-cS_T7XNiQD-16" value="BPF" style="rounded=0;whiteSpace=wrap;html=1;" parent="yRX7iBBKM-cS_T7XNiQD-1" vertex="1">
          <mxGeometry x="330.33" y="157" width="30" height="19" as="geometry" />
        </mxCell>
        <mxCell id="yRX7iBBKM-cS_T7XNiQD-17" value="" style="rounded=0;whiteSpace=wrap;html=1;strokeColor=#FFFFFF;" parent="yRX7iBBKM-cS_T7XNiQD-1" vertex="1">
          <mxGeometry x="280.33" y="93" width="30" height="10" as="geometry" />
        </mxCell>
        <mxCell id="yRX7iBBKM-cS_T7XNiQD-18" value="00" style="text;html=1;strokeColor=none;fillColor=none;align=center;verticalAlign=middle;whiteSpace=wrap;rounded=0;fontSize=9;" parent="yRX7iBBKM-cS_T7XNiQD-1" vertex="1">
          <mxGeometry x="380.83" y="91" width="20" height="10" as="geometry" />
        </mxCell>
        <mxCell id="yRX7iBBKM-cS_T7XNiQD-19" value="01" style="text;html=1;strokeColor=none;fillColor=none;align=center;verticalAlign=middle;whiteSpace=wrap;rounded=0;fontSize=9;" parent="yRX7iBBKM-cS_T7XNiQD-1" vertex="1">
          <mxGeometry x="380.83" y="114" width="20" height="10" as="geometry" />
        </mxCell>
        <mxCell id="yRX7iBBKM-cS_T7XNiQD-20" value="10" style="text;html=1;strokeColor=none;fillColor=none;align=center;verticalAlign=middle;whiteSpace=wrap;rounded=0;fontSize=9;" parent="yRX7iBBKM-cS_T7XNiQD-1" vertex="1">
          <mxGeometry x="380.83" y="136" width="20" height="10" as="geometry" />
        </mxCell>
        <mxCell id="yRX7iBBKM-cS_T7XNiQD-21" value="11" style="text;html=1;strokeColor=none;fillColor=none;align=center;verticalAlign=middle;whiteSpace=wrap;rounded=0;fontSize=9;" parent="yRX7iBBKM-cS_T7XNiQD-1" vertex="1">
          <mxGeometry x="380.83" y="155" width="20" height="10" as="geometry" />
        </mxCell>
        <mxCell id="yRX7iBBKM-cS_T7XNiQD-23" value="" style="rounded=0;whiteSpace=wrap;html=1;strokeColor=none;fillColor=#fff2cc;" parent="yRX7iBBKM-cS_T7XNiQD-1" vertex="1">
          <mxGeometry x="400.83" y="91" width="59" height="79" as="geometry" />
        </mxCell>
        <mxCell id="yRX7iBBKM-cS_T7XNiQD-24" value="LPF" style="rounded=0;whiteSpace=wrap;html=1;fillColor=#fff2cc;strokeColor=#d6b656;fontSize=9;" parent="yRX7iBBKM-cS_T7XNiQD-1" vertex="1">
          <mxGeometry x="330.33" y="114" width="30" height="19" as="geometry" />
        </mxCell>
        <mxCell id="yRX7iBBKM-cS_T7XNiQD-25" value="HPF" style="rounded=0;whiteSpace=wrap;html=1;fillColor=#fff2cc;strokeColor=#d6b656;fontSize=9;" parent="yRX7iBBKM-cS_T7XNiQD-1" vertex="1">
          <mxGeometry x="330.33" y="136" width="30" height="19" as="geometry" />
        </mxCell>
        <mxCell id="yRX7iBBKM-cS_T7XNiQD-26" value="BPF" style="rounded=0;whiteSpace=wrap;html=1;fillColor=#fff2cc;strokeColor=#d6b656;fontSize=9;" parent="yRX7iBBKM-cS_T7XNiQD-1" vertex="1">
          <mxGeometry x="330.33" y="157" width="30" height="19" as="geometry" />
        </mxCell>
        <mxCell id="yRX7iBBKM-cS_T7XNiQD-27" value="Digital &lt;br&gt;Signal" style="endArrow=none;html=1;rounded=0;fontSize=9;startSize=6;strokeWidth=1;jumpSize=5;entryX=0;entryY=0.21;entryDx=0;entryDy=3;entryPerimeter=0;" parent="yRX7iBBKM-cS_T7XNiQD-1" target="yRX7iBBKM-cS_T7XNiQD-5" edge="1">
          <mxGeometry x="-1" y="-15" width="50" height="50" relative="1" as="geometry">
            <mxPoint x="230.32999999999998" y="104" as="sourcePoint" />
            <mxPoint x="215.32999999999998" y="91" as="targetPoint" />
            <mxPoint x="-15" y="-15" as="offset" />
          </mxGeometry>
        </mxCell>
        <mxCell id="yRX7iBBKM-cS_T7XNiQD-28" value="" style="endArrow=none;html=1;rounded=0;fontSize=9;startSize=6;strokeWidth=1;jumpSize=5;entryX=0.375;entryY=1;entryDx=10;entryDy=0;entryPerimeter=0;" parent="yRX7iBBKM-cS_T7XNiQD-1" target="yRX7iBBKM-cS_T7XNiQD-6" edge="1">
          <mxGeometry width="50" height="50" relative="1" as="geometry">
            <mxPoint x="230.32999999999998" y="220" as="sourcePoint" />
            <mxPoint x="360.33" y="150" as="targetPoint" />
            <Array as="points">
              <mxPoint x="430.33" y="220" />
            </Array>
          </mxGeometry>
        </mxCell>
        <mxCell id="yRX7iBBKM-cS_T7XNiQD-29" value="Filter-Select" style="edgeLabel;html=1;align=center;verticalAlign=middle;resizable=0;points=[];fontSize=9;" parent="yRX7iBBKM-cS_T7XNiQD-28" vertex="1" connectable="0">
          <mxGeometry x="-0.1667" y="3" relative="1" as="geometry">
            <mxPoint x="-122" y="3" as="offset" />
          </mxGeometry>
        </mxCell>
        <mxCell id="yRX7iBBKM-cS_T7XNiQD-30" value="2" style="endArrow=none;html=1;rounded=0;fontSize=9;startSize=6;strokeWidth=1;jumpSize=5;labelBackgroundColor=none;" parent="yRX7iBBKM-cS_T7XNiQD-1" edge="1">
          <mxGeometry x="1" y="7" width="50" height="50" relative="1" as="geometry">
            <mxPoint x="267.33" y="225" as="sourcePoint" />
            <mxPoint x="272.33" y="215" as="targetPoint" />
            <mxPoint x="1" y="-2" as="offset" />
          </mxGeometry>
        </mxCell>
        <mxCell id="yRX7iBBKM-cS_T7XNiQD-31" value="12" style="endArrow=none;html=1;rounded=0;fontSize=9;startSize=6;strokeWidth=1;jumpSize=5;labelBackgroundColor=none;" parent="yRX7iBBKM-cS_T7XNiQD-1" edge="1">
          <mxGeometry x="1" y="7" width="50" height="50" relative="1" as="geometry">
            <mxPoint x="267.33" y="108.99999999999994" as="sourcePoint" />
            <mxPoint x="272.33" y="98.99999999999994" as="targetPoint" />
            <mxPoint x="1" y="-2" as="offset" />
          </mxGeometry>
        </mxCell>
        <mxCell id="yRX7iBBKM-cS_T7XNiQD-33" value="Filters IP" style="rounded=0;whiteSpace=wrap;html=1;fontSize=9;strokeColor=#82b366;strokeWidth=1;fillColor=#d5e8d4;fontStyle=1" parent="yRX7iBBKM-cS_T7XNiQD-1" vertex="1">
          <mxGeometry x="248.32999999999998" y="59" width="66.5" height="17" as="geometry" />
        </mxCell>
        <mxCell id="Af8mpPVtDCuOwJWKXdtR-0" value="" style="shape=image;verticalLabelPosition=bottom;labelBackgroundColor=default;verticalAlign=top;aspect=fixed;imageAspect=0;image=data:image/png,iVBORw0KGgoAAAANSUhEUgAAAGUAAAEYCAYAAABFtzhkAAADw0lEQVR4Xu3VsQ0AIAzEQLL/tlR0IDHFFc4Elq1XZp99V0cZmKJQPT5MUbwmRQGbFKUoogGQqZ9SFNAAiNRSigIaAJFaSlFAAyBSSykKaABEailFAQ2ASC2lKKABEKmlFAU0ACK1lKKABkCkllIU0ACI1FKKAhoAkVpKUUADIFJLKQpoAERqKUUBDYBILaUooAEQqaUUBTQAIrWUooAGQKSWUhTQAIjUUooCGgCRWkpRQAMgUkspCmgARGopRQENgEgtpSigARCppRQFNAAitZSigAZApJZSFNAAiNRSigIaAJFaSlFAAyBSSykKaABEailFAQ2ASC2lKKABEKmlFAU0ACK1lKKABkCkllIU0ACI1FKKAhoAkVpKUUADIFJLKQpoAERqKUUBDYBILaUooAEQqaUUBTQAIrWUooAGQKSWUhTQAIjUUooCGgCRWkpRQAMgUkspCmgARGopRQENgEgtpSigARCppRQFNAAitZSigAZApJZSFNAAiNRSigIaAJFaSlFAAyBSSykKaABEailFAQ2ASC2lKKABEKmlFAU0ACK1lKKABkCkllIU0ACI1FKKAhoAkVpKUUADIFJLKQpoAERqKUUBDYBILaUooAEQqaUUBTQAIrWUooAGQKSWUhTQAIjUUooCGgCRWkpRQAMgUkspCmgARGopRQENgEgtpSigARCppRQFNAAitZSigAZApJZSFNAAiNRSigIaAJFaSlFAAyBSSykKaABEailFAQ2ASC2lKKABEKmlFAU0ACK1lKKABkCkllIU0ACI1FKKAhoAkVpKUUADIFJLKQpoAERqKUUBDYBILaUooAEQqaUUBTQAIrWUooAGQKSWUhTQAIjUUooCGgCRWkpRQAMgUkspCmgARGopRQENgEgtpSigARCppRQFNAAitZSigAZApJZSFNAAiNRSigIaAJFaSlFAAyBSSykKaABEailFAQ2ASC2lKKABEKmlFAU0ACK1lKKABkCkllIU0ACI1FKKAhoAkVpKUUADIFJLKQpoAERqKUUBDYBILaUooAEQqaUUBTQAIrWUooAGQKSWUhTQAIjUUooCGgCRWkpRQAMgUkspCmgARGopRQENgEgtpSigARCppRQFNAAitZSigAZApJZSFNAAiNRSigIaAJFaSlFAAyBSSykKaABEailFAQ2ASC2lKKABEKmlFAU0ACK1lKKABkCkllIU0ACI1FKKAhoAkVpKUUADIFJLKQpoAERqKUUBDYBILaUooAEQqaUUBTQAIrWUooAGQKSWUhTQAIj0AHLWON0O6ci9AAAAAElFTkSuQmCC;" parent="yRX7iBBKM-cS_T7XNiQD-1" vertex="1">
          <mxGeometry x="461.33" y="118" width="14.43" height="40" as="geometry" />
        </mxCell>
        <mxCell id="yRX7iBBKM-cS_T7XNiQD-22" value="Filtered &lt;br&gt;Signal" style="edgeStyle=orthogonalEdgeStyle;rounded=0;jumpSize=5;orthogonalLoop=1;jettySize=auto;html=1;fontSize=9;startArrow=none;startFill=0;startSize=6;strokeWidth=1;" parent="yRX7iBBKM-cS_T7XNiQD-1" source="yRX7iBBKM-cS_T7XNiQD-23" edge="1">
          <mxGeometry x="1" y="-20" relative="1" as="geometry">
            <mxPoint x="535" y="131" as="targetPoint" />
            <Array as="points">
              <mxPoint x="497" y="131" />
            </Array>
            <mxPoint x="20" y="-20" as="offset" />
          </mxGeometry>
        </mxCell>
        <mxCell id="Af8mpPVtDCuOwJWKXdtR-2" value="" style="shape=image;verticalLabelPosition=bottom;labelBackgroundColor=default;verticalAlign=top;aspect=fixed;imageAspect=0;image=data:image/png,iVBORw0KGgoAAAANSUhEUgAAAGUAAAEYCAYAAABFtzhkAAADw0lEQVR4Xu3VsQ0AIAzEQLL/tlR0IDHFFc4Elq1XZp99V0cZmKJQPT5MUbwmRQGbFKUoogGQqZ9SFNAAiNRSigIaAJFaSlFAAyBSSykKaABEailFAQ2ASC2lKKABEKmlFAU0ACK1lKKABkCkllIU0ACI1FKKAhoAkVpKUUADIFJLKQpoAERqKUUBDYBILaUooAEQqaUUBTQAIrWUooAGQKSWUhTQAIjUUooCGgCRWkpRQAMgUkspCmgARGopRQENgEgtpSigARCppRQFNAAitZSigAZApJZSFNAAiNRSigIaAJFaSlFAAyBSSykKaABEailFAQ2ASC2lKKABEKmlFAU0ACK1lKKABkCkllIU0ACI1FKKAhoAkVpKUUADIFJLKQpoAERqKUUBDYBILaUooAEQqaUUBTQAIrWUooAGQKSWUhTQAIjUUooCGgCRWkpRQAMgUkspCmgARGopRQENgEgtpSigARCppRQFNAAitZSigAZApJZSFNAAiNRSigIaAJFaSlFAAyBSSykKaABEailFAQ2ASC2lKKABEKmlFAU0ACK1lKKABkCkllIU0ACI1FKKAhoAkVpKUUADIFJLKQpoAERqKUUBDYBILaUooAEQqaUUBTQAIrWUooAGQKSWUhTQAIjUUooCGgCRWkpRQAMgUkspCmgARGopRQENgEgtpSigARCppRQFNAAitZSigAZApJZSFNAAiNRSigIaAJFaSlFAAyBSSykKaABEailFAQ2ASC2lKKABEKmlFAU0ACK1lKKABkCkllIU0ACI1FKKAhoAkVpKUUADIFJLKQpoAERqKUUBDYBILaUooAEQqaUUBTQAIrWUooAGQKSWUhTQAIjUUooCGgCRWkpRQAMgUkspCmgARGopRQENgEgtpSigARCppRQFNAAitZSigAZApJZSFNAAiNRSigIaAJFaSlFAAyBSSykKaABEailFAQ2ASC2lKKABEKmlFAU0ACK1lKKABkCkllIU0ACI1FKKAhoAkVpKUUADIFJLKQpoAERqKUUBDYBILaUooAEQqaUUBTQAIrWUooAGQKSWUhTQAIjUUooCGgCRWkpRQAMgUkspCmgARGopRQENgEgtpSigARCppRQFNAAitZSigAZApJZSFNAAiNRSigIaAJFaSlFAAyBSSykKaABEailFAQ2ASC2lKKABEKmlFAU0ACK1lKKABkCkllIU0ACI1FKKAhoAkVpKUUADIFJLKQpoAERqKUUBDYBILaUooAEQqaUUBTQAIrWUooAGQKSWUhTQAIj0AHLWON0O6ci9AAAAAElFTkSuQmCC;" parent="yRX7iBBKM-cS_T7XNiQD-1" vertex="1">
          <mxGeometry x="431.33" y="190" width="13.67" height="37.88" as="geometry" />
        </mxCell>
        <mxCell id="yRX7iBBKM-cS_T7XNiQD-9" value="sel[1:0]" style="text;html=1;strokeColor=none;fillColor=none;align=center;verticalAlign=middle;whiteSpace=wrap;rounded=0;fontSize=9;" parent="yRX7iBBKM-cS_T7XNiQD-1" vertex="1">
          <mxGeometry x="431.33" y="190" width="40" height="10" as="geometry" />
        </mxCell>
        <mxCell id="Af8mpPVtDCuOwJWKXdtR-3" value="" style="shape=image;verticalLabelPosition=bottom;labelBackgroundColor=default;verticalAlign=top;aspect=fixed;imageAspect=0;image=data:image/png,iVBORw0KGgoAAAANSUhEUgAAAGUAAAEYCAYAAABFtzhkAAADw0lEQVR4Xu3VsQ0AIAzEQLL/tlR0IDHFFc4Elq1XZp99V0cZmKJQPT5MUbwmRQGbFKUoogGQqZ9SFNAAiNRSigIaAJFaSlFAAyBSSykKaABEailFAQ2ASC2lKKABEKmlFAU0ACK1lKKABkCkllIU0ACI1FKKAhoAkVpKUUADIFJLKQpoAERqKUUBDYBILaUooAEQqaUUBTQAIrWUooAGQKSWUhTQAIjUUooCGgCRWkpRQAMgUkspCmgARGopRQENgEgtpSigARCppRQFNAAitZSigAZApJZSFNAAiNRSigIaAJFaSlFAAyBSSykKaABEailFAQ2ASC2lKKABEKmlFAU0ACK1lKKABkCkllIU0ACI1FKKAhoAkVpKUUADIFJLKQpoAERqKUUBDYBILaUooAEQqaUUBTQAIrWUooAGQKSWUhTQAIjUUooCGgCRWkpRQAMgUkspCmgARGopRQENgEgtpSigARCppRQFNAAitZSigAZApJZSFNAAiNRSigIaAJFaSlFAAyBSSykKaABEailFAQ2ASC2lKKABEKmlFAU0ACK1lKKABkCkllIU0ACI1FKKAhoAkVpKUUADIFJLKQpoAERqKUUBDYBILaUooAEQqaUUBTQAIrWUooAGQKSWUhTQAIjUUooCGgCRWkpRQAMgUkspCmgARGopRQENgEgtpSigARCppRQFNAAitZSigAZApJZSFNAAiNRSigIaAJFaSlFAAyBSSykKaABEailFAQ2ASC2lKKABEKmlFAU0ACK1lKKABkCkllIU0ACI1FKKAhoAkVpKUUADIFJLKQpoAERqKUUBDYBILaUooAEQqaUUBTQAIrWUooAGQKSWUhTQAIjUUooCGgCRWkpRQAMgUkspCmgARGopRQENgEgtpSigARCppRQFNAAitZSigAZApJZSFNAAiNRSigIaAJFaSlFAAyBSSykKaABEailFAQ2ASC2lKKABEKmlFAU0ACK1lKKABkCkllIU0ACI1FKKAhoAkVpKUUADIFJLKQpoAERqKUUBDYBILaUooAEQqaUUBTQAIrWUooAGQKSWUhTQAIjUUooCGgCRWkpRQAMgUkspCmgARGopRQENgEgtpSigARCppRQFNAAitZSigAZApJZSFNAAiNRSigIaAJFaSlFAAyBSSykKaABEailFAQ2ASC2lKKABEKmlFAU0ACK1lKKABkCkllIU0ACI1FKKAhoAkVpKUUADIFJLKQpoAERqKUUBDYBILaUooAEQqaUUBTQAIrWUooAGQKSWUhTQAIj0AHLWON0O6ci9AAAAAElFTkSuQmCC;rotation=-90;" parent="yRX7iBBKM-cS_T7XNiQD-1" vertex="1">
          <mxGeometry x="290" y="76" width="14.43" height="40" as="geometry" />
        </mxCell>
      </root>
    </mxGraphModel>
  </diagram>
  <diagram id="uvEvTMOAVsneJ5-hjm2T" name="blocks">
    <mxGraphModel dx="1196" dy="712" grid="1" gridSize="10" guides="1" tooltips="1" connect="1" arrows="1" fold="1" page="1" pageScale="1" pageWidth="827" pageHeight="1169" math="0" shadow="0">
      <root>
        <mxCell id="0" />
        <mxCell id="1" parent="0" />
        <mxCell id="xY26Lk390qz5ybLkuBNm-14" value="&lt;div&gt;&lt;b&gt;Filters&lt;/b&gt;&lt;/div&gt;&lt;div&gt;IP&lt;br&gt;&lt;/div&gt;" style="shape=process;whiteSpace=wrap;html=1;backgroundOutline=1;fontSize=9;strokeColor=#d6b656;fillColor=#fff2cc;size=0;" parent="1" vertex="1">
          <mxGeometry x="460" y="140" width="120" height="100" as="geometry" />
        </mxCell>
        <mxCell id="xY26Lk390qz5ybLkuBNm-36" value="EN" style="text;html=1;strokeColor=none;fillColor=none;align=left;verticalAlign=middle;whiteSpace=wrap;rounded=0;fontSize=7;" parent="1" vertex="1">
          <mxGeometry x="460" y="140" width="20" height="20" as="geometry" />
        </mxCell>
        <mxCell id="xY26Lk390qz5ybLkuBNm-37" value="SEL" style="text;html=1;strokeColor=none;fillColor=none;align=left;verticalAlign=middle;whiteSpace=wrap;rounded=0;fontSize=7;" parent="1" vertex="1">
          <mxGeometry x="460" y="160" width="20" height="20" as="geometry" />
        </mxCell>
        <mxCell id="xY26Lk390qz5ybLkuBNm-38" value="SIGNAL" style="text;html=1;strokeColor=none;fillColor=none;align=left;verticalAlign=middle;whiteSpace=wrap;rounded=0;fontSize=7;" parent="1" vertex="1">
          <mxGeometry x="460" y="180" width="20" height="20" as="geometry" />
        </mxCell>
        <mxCell id="xY26Lk390qz5ybLkuBNm-39" value="RST" style="text;html=1;strokeColor=none;fillColor=none;align=left;verticalAlign=middle;whiteSpace=wrap;rounded=0;fontSize=7;" parent="1" vertex="1">
          <mxGeometry x="460" y="200" width="20" height="20" as="geometry" />
        </mxCell>
        <mxCell id="xY26Lk390qz5ybLkuBNm-42" value="OUT" style="text;html=1;strokeColor=none;fillColor=none;align=right;verticalAlign=middle;whiteSpace=wrap;rounded=0;fontSize=7;" parent="1" vertex="1">
          <mxGeometry x="560" y="180" width="20" height="20" as="geometry" />
        </mxCell>
        <mxCell id="xY26Lk390qz5ybLkuBNm-55" value="" style="endArrow=blockThin;html=1;rounded=0;fontSize=7;endFill=1;endSize=3;" parent="1" edge="1">
          <mxGeometry width="50" height="50" relative="1" as="geometry">
            <mxPoint x="430" y="150" as="sourcePoint" />
            <mxPoint x="460" y="150" as="targetPoint" />
          </mxGeometry>
        </mxCell>
        <mxCell id="xY26Lk390qz5ybLkuBNm-58" value="" style="endArrow=blockThin;html=1;rounded=0;fontSize=7;endFill=1;endSize=3;" parent="1" edge="1">
          <mxGeometry width="50" height="50" relative="1" as="geometry">
            <mxPoint x="430" y="210" as="sourcePoint" />
            <mxPoint x="460" y="209.9" as="targetPoint" />
          </mxGeometry>
        </mxCell>
        <mxCell id="xY26Lk390qz5ybLkuBNm-60" value="&lt;div&gt;&lt;b&gt;ADC&lt;/b&gt;&lt;/div&gt;&lt;div&gt;IP&lt;br&gt;&lt;/div&gt;" style="shape=process;whiteSpace=wrap;html=1;backgroundOutline=1;fontSize=9;strokeColor=#d6b656;fillColor=#fff2cc;size=0;" parent="1" vertex="1">
          <mxGeometry x="460" y="267" width="120" height="163" as="geometry" />
        </mxCell>
        <mxCell id="xY26Lk390qz5ybLkuBNm-61" value="EN" style="text;html=1;strokeColor=none;fillColor=none;align=left;verticalAlign=middle;whiteSpace=wrap;rounded=0;fontSize=7;" parent="1" vertex="1">
          <mxGeometry x="460" y="269" width="20" height="20" as="geometry" />
        </mxCell>
        <mxCell id="xY26Lk390qz5ybLkuBNm-62" value="XXX" style="text;html=1;strokeColor=none;fillColor=none;align=left;verticalAlign=middle;whiteSpace=wrap;rounded=0;fontSize=7;" parent="1" vertex="1">
          <mxGeometry x="460" y="289" width="20" height="20" as="geometry" />
        </mxCell>
        <mxCell id="xY26Lk390qz5ybLkuBNm-63" value="XXX" style="text;html=1;strokeColor=none;fillColor=none;align=left;verticalAlign=middle;whiteSpace=wrap;rounded=0;fontSize=7;" parent="1" vertex="1">
          <mxGeometry x="460" y="309" width="20" height="20" as="geometry" />
        </mxCell>
        <mxCell id="xY26Lk390qz5ybLkuBNm-64" value="XXX" style="text;html=1;strokeColor=none;fillColor=none;align=left;verticalAlign=middle;whiteSpace=wrap;rounded=0;fontSize=7;" parent="1" vertex="1">
          <mxGeometry x="460" y="329" width="20" height="20" as="geometry" />
        </mxCell>
        <mxCell id="xY26Lk390qz5ybLkuBNm-65" value="EOC" style="text;html=1;strokeColor=none;fillColor=none;align=right;verticalAlign=middle;whiteSpace=wrap;rounded=0;fontSize=7;" parent="1" vertex="1">
          <mxGeometry x="560" y="302" width="20" height="20" as="geometry" />
        </mxCell>
        <mxCell id="xY26Lk390qz5ybLkuBNm-67" value="" style="endArrow=blockThin;html=1;rounded=0;fontSize=7;endFill=1;endSize=3;" parent="1" edge="1">
          <mxGeometry width="50" height="50" relative="1" as="geometry">
            <mxPoint x="440" y="279" as="sourcePoint" />
            <mxPoint x="460" y="279" as="targetPoint" />
          </mxGeometry>
        </mxCell>
        <mxCell id="xY26Lk390qz5ybLkuBNm-68" value="" style="endArrow=blockThin;html=1;rounded=0;fontSize=7;endFill=1;endSize=3;" parent="1" edge="1">
          <mxGeometry width="50" height="50" relative="1" as="geometry">
            <mxPoint x="440" y="298.9" as="sourcePoint" />
            <mxPoint x="460" y="298.9" as="targetPoint" />
          </mxGeometry>
        </mxCell>
        <mxCell id="xY26Lk390qz5ybLkuBNm-69" value="" style="endArrow=blockThin;html=1;rounded=0;fontSize=7;endFill=1;endSize=3;" parent="1" edge="1">
          <mxGeometry width="50" height="50" relative="1" as="geometry">
            <mxPoint x="440" y="318.9" as="sourcePoint" />
            <mxPoint x="460" y="318.9" as="targetPoint" />
          </mxGeometry>
        </mxCell>
        <mxCell id="xY26Lk390qz5ybLkuBNm-70" value="" style="endArrow=blockThin;html=1;rounded=0;fontSize=7;endFill=1;endSize=3;" parent="1" edge="1">
          <mxGeometry width="50" height="50" relative="1" as="geometry">
            <mxPoint x="440" y="338.9" as="sourcePoint" />
            <mxPoint x="460" y="338.9" as="targetPoint" />
          </mxGeometry>
        </mxCell>
        <mxCell id="xY26Lk390qz5ybLkuBNm-71" value="" style="endArrow=blockThin;html=1;rounded=0;fontSize=7;endFill=1;endSize=3;" parent="1" edge="1">
          <mxGeometry width="50" height="50" relative="1" as="geometry">
            <mxPoint x="580" y="311.9" as="sourcePoint" />
            <mxPoint x="610" y="312" as="targetPoint" />
          </mxGeometry>
        </mxCell>
        <mxCell id="xY26Lk390qz5ybLkuBNm-72" value="XXX" style="text;html=1;strokeColor=none;fillColor=none;align=left;verticalAlign=middle;whiteSpace=wrap;rounded=0;fontSize=7;" parent="1" vertex="1">
          <mxGeometry x="460" y="347" width="20" height="20" as="geometry" />
        </mxCell>
        <mxCell id="xY26Lk390qz5ybLkuBNm-73" value="XXX" style="text;html=1;strokeColor=none;fillColor=none;align=left;verticalAlign=middle;whiteSpace=wrap;rounded=0;fontSize=7;" parent="1" vertex="1">
          <mxGeometry x="460" y="367" width="20" height="20" as="geometry" />
        </mxCell>
        <mxCell id="xY26Lk390qz5ybLkuBNm-74" value="RST" style="text;html=1;strokeColor=none;fillColor=none;align=left;verticalAlign=middle;whiteSpace=wrap;rounded=0;fontSize=7;" parent="1" vertex="1">
          <mxGeometry x="460" y="387" width="20" height="20" as="geometry" />
        </mxCell>
        <mxCell id="xY26Lk390qz5ybLkuBNm-75" value="CLK" style="text;html=1;strokeColor=none;fillColor=none;align=left;verticalAlign=middle;whiteSpace=wrap;rounded=0;fontSize=7;" parent="1" vertex="1">
          <mxGeometry x="470" y="407" width="20" height="20" as="geometry" />
        </mxCell>
        <mxCell id="xY26Lk390qz5ybLkuBNm-76" value="" style="triangle;whiteSpace=wrap;html=1;fontSize=9;fillColor=#ffe6cc;strokeColor=#d79b00;" parent="1" vertex="1">
          <mxGeometry x="460" y="412" width="10" height="10" as="geometry" />
        </mxCell>
        <mxCell id="xY26Lk390qz5ybLkuBNm-77" value="" style="endArrow=blockThin;html=1;rounded=0;fontSize=7;endFill=1;endSize=3;" parent="1" edge="1">
          <mxGeometry width="50" height="50" relative="1" as="geometry">
            <mxPoint x="440" y="357" as="sourcePoint" />
            <mxPoint x="460" y="357" as="targetPoint" />
          </mxGeometry>
        </mxCell>
        <mxCell id="xY26Lk390qz5ybLkuBNm-78" value="" style="endArrow=blockThin;html=1;rounded=0;fontSize=7;endFill=1;endSize=3;" parent="1" edge="1">
          <mxGeometry width="50" height="50" relative="1" as="geometry">
            <mxPoint x="440" y="376.9" as="sourcePoint" />
            <mxPoint x="460" y="376.9" as="targetPoint" />
          </mxGeometry>
        </mxCell>
        <mxCell id="xY26Lk390qz5ybLkuBNm-79" value="" style="endArrow=blockThin;html=1;rounded=0;fontSize=7;endFill=1;endSize=3;" parent="1" edge="1">
          <mxGeometry width="50" height="50" relative="1" as="geometry">
            <mxPoint x="440" y="396.9" as="sourcePoint" />
            <mxPoint x="460" y="396.9" as="targetPoint" />
          </mxGeometry>
        </mxCell>
        <mxCell id="xY26Lk390qz5ybLkuBNm-80" value="" style="endArrow=blockThin;html=1;rounded=0;fontSize=7;endFill=1;endSize=3;" parent="1" edge="1">
          <mxGeometry width="50" height="50" relative="1" as="geometry">
            <mxPoint x="440" y="416.9" as="sourcePoint" />
            <mxPoint x="460" y="416.9" as="targetPoint" />
          </mxGeometry>
        </mxCell>
        <mxCell id="xY26Lk390qz5ybLkuBNm-86" value="DO" style="text;html=1;strokeColor=none;fillColor=none;align=right;verticalAlign=middle;whiteSpace=wrap;rounded=0;fontSize=7;" parent="1" vertex="1">
          <mxGeometry x="560" y="322" width="20" height="20" as="geometry" />
        </mxCell>
        <mxCell id="xY26Lk390qz5ybLkuBNm-88" value="&lt;div&gt;&lt;b&gt;HDMI&lt;/b&gt;&lt;/div&gt;&lt;div&gt;IP&lt;br&gt;&lt;/div&gt;" style="shape=process;whiteSpace=wrap;html=1;backgroundOutline=1;fontSize=9;strokeColor=#d6b656;fillColor=#fff2cc;size=0;" parent="1" vertex="1">
          <mxGeometry x="460" y="40" width="120" height="80" as="geometry" />
        </mxCell>
        <mxCell id="xY26Lk390qz5ybLkuBNm-89" value="EN" style="text;html=1;strokeColor=none;fillColor=none;align=left;verticalAlign=middle;whiteSpace=wrap;rounded=0;fontSize=7;" parent="1" vertex="1">
          <mxGeometry x="460" y="40" width="20" height="20" as="geometry" />
        </mxCell>
        <mxCell id="xY26Lk390qz5ybLkuBNm-90" value="SDA" style="text;html=1;strokeColor=none;fillColor=none;align=left;verticalAlign=middle;whiteSpace=wrap;rounded=0;fontSize=7;" parent="1" vertex="1">
          <mxGeometry x="460" y="60" width="20" height="20" as="geometry" />
        </mxCell>
        <mxCell id="xY26Lk390qz5ybLkuBNm-91" value="RST" style="text;html=1;strokeColor=none;fillColor=none;align=left;verticalAlign=middle;whiteSpace=wrap;rounded=0;fontSize=7;" parent="1" vertex="1">
          <mxGeometry x="460" y="80" width="20" height="20" as="geometry" />
        </mxCell>
        <mxCell id="xY26Lk390qz5ybLkuBNm-92" value="SCL" style="text;html=1;strokeColor=none;fillColor=none;align=left;verticalAlign=middle;whiteSpace=wrap;rounded=0;fontSize=7;" parent="1" vertex="1">
          <mxGeometry x="470" y="100" width="20" height="20" as="geometry" />
        </mxCell>
        <mxCell id="xY26Lk390qz5ybLkuBNm-93" value="OUT" style="text;html=1;strokeColor=none;fillColor=none;align=right;verticalAlign=middle;whiteSpace=wrap;rounded=0;fontSize=7;" parent="1" vertex="1">
          <mxGeometry x="560" y="75" width="20" height="20" as="geometry" />
        </mxCell>
        <mxCell id="xY26Lk390qz5ybLkuBNm-94" value="" style="triangle;whiteSpace=wrap;html=1;fontSize=9;fillColor=#ffe6cc;strokeColor=#d79b00;" parent="1" vertex="1">
          <mxGeometry x="460" y="105" width="10" height="10" as="geometry" />
        </mxCell>
        <mxCell id="xY26Lk390qz5ybLkuBNm-95" value="" style="endArrow=blockThin;html=1;rounded=0;fontSize=7;endFill=1;endSize=3;" parent="1" edge="1">
          <mxGeometry width="50" height="50" relative="1" as="geometry">
            <mxPoint x="440" y="50" as="sourcePoint" />
            <mxPoint x="460" y="50" as="targetPoint" />
          </mxGeometry>
        </mxCell>
        <mxCell id="xY26Lk390qz5ybLkuBNm-96" value="" style="endArrow=blockThin;html=1;rounded=0;fontSize=7;endFill=1;endSize=3;" parent="1" edge="1">
          <mxGeometry width="50" height="50" relative="1" as="geometry">
            <mxPoint x="440" y="69.89999999999998" as="sourcePoint" />
            <mxPoint x="460" y="69.89999999999998" as="targetPoint" />
          </mxGeometry>
        </mxCell>
        <mxCell id="xY26Lk390qz5ybLkuBNm-97" value="" style="endArrow=blockThin;html=1;rounded=0;fontSize=7;endFill=1;endSize=3;" parent="1" edge="1">
          <mxGeometry width="50" height="50" relative="1" as="geometry">
            <mxPoint x="440" y="89.89999999999998" as="sourcePoint" />
            <mxPoint x="460" y="89.89999999999998" as="targetPoint" />
          </mxGeometry>
        </mxCell>
        <mxCell id="xY26Lk390qz5ybLkuBNm-98" value="" style="endArrow=blockThin;html=1;rounded=0;fontSize=7;endFill=1;endSize=3;" parent="1" edge="1">
          <mxGeometry width="50" height="50" relative="1" as="geometry">
            <mxPoint x="440" y="109.89999999999998" as="sourcePoint" />
            <mxPoint x="460" y="109.89999999999998" as="targetPoint" />
          </mxGeometry>
        </mxCell>
        <mxCell id="xY26Lk390qz5ybLkuBNm-99" value="" style="endArrow=blockThin;html=1;rounded=0;fontSize=7;endFill=1;endSize=3;" parent="1" edge="1">
          <mxGeometry width="50" height="50" relative="1" as="geometry">
            <mxPoint x="580" y="84.89999999999998" as="sourcePoint" />
            <mxPoint x="600" y="84.89999999999998" as="targetPoint" />
          </mxGeometry>
        </mxCell>
        <mxCell id="xY26Lk390qz5ybLkuBNm-100" value="&lt;b&gt;PS&lt;/b&gt;" style="shape=process;whiteSpace=wrap;html=1;backgroundOutline=1;fontSize=9;strokeColor=#b85450;fillColor=#f8cecc;size=0;" parent="1" vertex="1">
          <mxGeometry x="260" y="40" width="120" height="160" as="geometry" />
        </mxCell>
        <mxCell id="xY26Lk390qz5ybLkuBNm-101" value="EN" style="text;html=1;strokeColor=none;fillColor=none;align=left;verticalAlign=middle;whiteSpace=wrap;rounded=0;fontSize=7;" parent="1" vertex="1">
          <mxGeometry x="260" y="42" width="20" height="20" as="geometry" />
        </mxCell>
        <mxCell id="xY26Lk390qz5ybLkuBNm-102" value="XXX" style="text;html=1;strokeColor=none;fillColor=none;align=left;verticalAlign=middle;whiteSpace=wrap;rounded=0;fontSize=7;" parent="1" vertex="1">
          <mxGeometry x="260" y="62" width="20" height="20" as="geometry" />
        </mxCell>
        <mxCell id="xY26Lk390qz5ybLkuBNm-103" value="XXX" style="text;html=1;strokeColor=none;fillColor=none;align=left;verticalAlign=middle;whiteSpace=wrap;rounded=0;fontSize=7;" parent="1" vertex="1">
          <mxGeometry x="260" y="82" width="20" height="20" as="geometry" />
        </mxCell>
        <mxCell id="xY26Lk390qz5ybLkuBNm-104" value="XXX" style="text;html=1;strokeColor=none;fillColor=none;align=left;verticalAlign=middle;whiteSpace=wrap;rounded=0;fontSize=7;" parent="1" vertex="1">
          <mxGeometry x="260" y="102" width="20" height="20" as="geometry" />
        </mxCell>
        <mxCell id="xY26Lk390qz5ybLkuBNm-105" value="XXX" style="text;html=1;strokeColor=none;fillColor=none;align=right;verticalAlign=middle;whiteSpace=wrap;rounded=0;fontSize=7;" parent="1" vertex="1">
          <mxGeometry x="360" y="75" width="20" height="20" as="geometry" />
        </mxCell>
        <mxCell id="xY26Lk390qz5ybLkuBNm-106" value="" style="endArrow=blockThin;html=1;rounded=0;fontSize=7;endFill=1;endSize=3;" parent="1" edge="1">
          <mxGeometry width="50" height="50" relative="1" as="geometry">
            <mxPoint x="240" y="52" as="sourcePoint" />
            <mxPoint x="260" y="52" as="targetPoint" />
          </mxGeometry>
        </mxCell>
        <mxCell id="xY26Lk390qz5ybLkuBNm-107" value="" style="endArrow=blockThin;html=1;rounded=0;fontSize=7;endFill=1;endSize=3;" parent="1" edge="1">
          <mxGeometry width="50" height="50" relative="1" as="geometry">
            <mxPoint x="240" y="71.89999999999998" as="sourcePoint" />
            <mxPoint x="260" y="71.89999999999998" as="targetPoint" />
          </mxGeometry>
        </mxCell>
        <mxCell id="xY26Lk390qz5ybLkuBNm-108" value="" style="endArrow=blockThin;html=1;rounded=0;fontSize=7;endFill=1;endSize=3;" parent="1" edge="1">
          <mxGeometry width="50" height="50" relative="1" as="geometry">
            <mxPoint x="240" y="91.89999999999998" as="sourcePoint" />
            <mxPoint x="260" y="91.89999999999998" as="targetPoint" />
          </mxGeometry>
        </mxCell>
        <mxCell id="xY26Lk390qz5ybLkuBNm-109" value="" style="endArrow=blockThin;html=1;rounded=0;fontSize=7;endFill=1;endSize=3;" parent="1" edge="1">
          <mxGeometry width="50" height="50" relative="1" as="geometry">
            <mxPoint x="240" y="111.89999999999998" as="sourcePoint" />
            <mxPoint x="260" y="111.89999999999998" as="targetPoint" />
          </mxGeometry>
        </mxCell>
        <mxCell id="xY26Lk390qz5ybLkuBNm-110" value="" style="endArrow=blockThin;html=1;rounded=0;fontSize=7;endFill=1;endSize=3;" parent="1" edge="1">
          <mxGeometry width="50" height="50" relative="1" as="geometry">
            <mxPoint x="380" y="84.89999999999998" as="sourcePoint" />
            <mxPoint x="400" y="84.89999999999998" as="targetPoint" />
          </mxGeometry>
        </mxCell>
        <mxCell id="xY26Lk390qz5ybLkuBNm-111" value="XXX" style="text;html=1;strokeColor=none;fillColor=none;align=left;verticalAlign=middle;whiteSpace=wrap;rounded=0;fontSize=7;" parent="1" vertex="1">
          <mxGeometry x="260" y="120" width="20" height="20" as="geometry" />
        </mxCell>
        <mxCell id="xY26Lk390qz5ybLkuBNm-112" value="XXX" style="text;html=1;strokeColor=none;fillColor=none;align=left;verticalAlign=middle;whiteSpace=wrap;rounded=0;fontSize=7;" parent="1" vertex="1">
          <mxGeometry x="260" y="140" width="20" height="20" as="geometry" />
        </mxCell>
        <mxCell id="xY26Lk390qz5ybLkuBNm-113" value="RST" style="text;html=1;strokeColor=none;fillColor=none;align=left;verticalAlign=middle;whiteSpace=wrap;rounded=0;fontSize=7;" parent="1" vertex="1">
          <mxGeometry x="260" y="160" width="20" height="20" as="geometry" />
        </mxCell>
        <mxCell id="xY26Lk390qz5ybLkuBNm-114" value="CLK" style="text;html=1;strokeColor=none;fillColor=none;align=left;verticalAlign=middle;whiteSpace=wrap;rounded=0;fontSize=7;" parent="1" vertex="1">
          <mxGeometry x="270" y="180" width="20" height="20" as="geometry" />
        </mxCell>
        <mxCell id="xY26Lk390qz5ybLkuBNm-115" value="" style="triangle;whiteSpace=wrap;html=1;fontSize=9;fillColor=#ffe6cc;strokeColor=#d79b00;" parent="1" vertex="1">
          <mxGeometry x="260" y="185" width="10" height="10" as="geometry" />
        </mxCell>
        <mxCell id="xY26Lk390qz5ybLkuBNm-116" value="" style="endArrow=blockThin;html=1;rounded=0;fontSize=7;endFill=1;endSize=3;" parent="1" edge="1">
          <mxGeometry width="50" height="50" relative="1" as="geometry">
            <mxPoint x="240" y="130" as="sourcePoint" />
            <mxPoint x="260" y="130" as="targetPoint" />
          </mxGeometry>
        </mxCell>
        <mxCell id="xY26Lk390qz5ybLkuBNm-117" value="" style="endArrow=blockThin;html=1;rounded=0;fontSize=7;endFill=1;endSize=3;" parent="1" edge="1">
          <mxGeometry width="50" height="50" relative="1" as="geometry">
            <mxPoint x="240" y="149.89999999999998" as="sourcePoint" />
            <mxPoint x="260" y="149.89999999999998" as="targetPoint" />
          </mxGeometry>
        </mxCell>
        <mxCell id="xY26Lk390qz5ybLkuBNm-118" value="" style="endArrow=blockThin;html=1;rounded=0;fontSize=7;endFill=1;endSize=3;" parent="1" edge="1">
          <mxGeometry width="50" height="50" relative="1" as="geometry">
            <mxPoint x="240" y="169.89999999999998" as="sourcePoint" />
            <mxPoint x="260" y="169.89999999999998" as="targetPoint" />
          </mxGeometry>
        </mxCell>
        <mxCell id="xY26Lk390qz5ybLkuBNm-119" value="" style="endArrow=blockThin;html=1;rounded=0;fontSize=7;endFill=1;endSize=3;" parent="1" edge="1">
          <mxGeometry width="50" height="50" relative="1" as="geometry">
            <mxPoint x="240" y="189.89999999999998" as="sourcePoint" />
            <mxPoint x="260" y="189.89999999999998" as="targetPoint" />
          </mxGeometry>
        </mxCell>
        <mxCell id="xY26Lk390qz5ybLkuBNm-120" value="XXX" style="text;html=1;strokeColor=none;fillColor=none;align=right;verticalAlign=middle;whiteSpace=wrap;rounded=0;fontSize=7;" parent="1" vertex="1">
          <mxGeometry x="360" y="95" width="20" height="20" as="geometry" />
        </mxCell>
        <mxCell id="xY26Lk390qz5ybLkuBNm-121" value="&lt;div&gt;&lt;b&gt;AXI_S&lt;/b&gt;&lt;/div&gt;&lt;div&gt;IP&lt;br&gt;&lt;/div&gt;" style="shape=process;whiteSpace=wrap;html=1;backgroundOutline=1;fontSize=9;strokeColor=#6c8ebf;fillColor=#dae8fc;size=0;" parent="1" vertex="1">
          <mxGeometry x="230" y="210" width="150" height="160" as="geometry" />
        </mxCell>
        <mxCell id="xY26Lk390qz5ybLkuBNm-122" value="EN" style="text;html=1;strokeColor=none;fillColor=none;align=left;verticalAlign=middle;whiteSpace=wrap;rounded=0;fontSize=7;" parent="1" vertex="1">
          <mxGeometry x="230" y="212" width="20" height="20" as="geometry" />
        </mxCell>
        <mxCell id="xY26Lk390qz5ybLkuBNm-123" value="AW" style="text;html=1;strokeColor=none;fillColor=none;align=left;verticalAlign=middle;whiteSpace=wrap;rounded=0;fontSize=7;" parent="1" vertex="1">
          <mxGeometry x="230" y="232" width="20" height="20" as="geometry" />
        </mxCell>
        <mxCell id="xY26Lk390qz5ybLkuBNm-124" value="W" style="text;html=1;strokeColor=none;fillColor=none;align=left;verticalAlign=middle;whiteSpace=wrap;rounded=0;fontSize=7;" parent="1" vertex="1">
          <mxGeometry x="230" y="252" width="20" height="20" as="geometry" />
        </mxCell>
        <mxCell id="xY26Lk390qz5ybLkuBNm-125" value="B" style="text;html=1;strokeColor=none;fillColor=none;align=left;verticalAlign=middle;whiteSpace=wrap;rounded=0;fontSize=7;" parent="1" vertex="1">
          <mxGeometry x="230" y="272" width="20" height="20" as="geometry" />
        </mxCell>
        <mxCell id="xY26Lk390qz5ybLkuBNm-126" value="HDMI_config" style="text;html=1;strokeColor=none;fillColor=none;align=right;verticalAlign=middle;whiteSpace=wrap;rounded=0;fontSize=7;" parent="1" vertex="1">
          <mxGeometry x="360" y="247" width="20" height="20" as="geometry" />
        </mxCell>
        <mxCell id="xY26Lk390qz5ybLkuBNm-127" value="" style="endArrow=blockThin;html=1;rounded=0;fontSize=7;endFill=1;endSize=3;" parent="1" edge="1">
          <mxGeometry width="50" height="50" relative="1" as="geometry">
            <mxPoint x="210" y="222" as="sourcePoint" />
            <mxPoint x="230" y="222" as="targetPoint" />
          </mxGeometry>
        </mxCell>
        <mxCell id="xY26Lk390qz5ybLkuBNm-128" value="" style="endArrow=blockThin;html=1;rounded=0;fontSize=7;endFill=1;endSize=3;" parent="1" edge="1">
          <mxGeometry width="50" height="50" relative="1" as="geometry">
            <mxPoint x="210" y="241.89999999999998" as="sourcePoint" />
            <mxPoint x="230" y="241.89999999999998" as="targetPoint" />
          </mxGeometry>
        </mxCell>
        <mxCell id="xY26Lk390qz5ybLkuBNm-129" value="" style="endArrow=blockThin;html=1;rounded=0;fontSize=7;endFill=1;endSize=3;" parent="1" edge="1">
          <mxGeometry width="50" height="50" relative="1" as="geometry">
            <mxPoint x="210" y="261.9" as="sourcePoint" />
            <mxPoint x="230" y="261.9" as="targetPoint" />
          </mxGeometry>
        </mxCell>
        <mxCell id="xY26Lk390qz5ybLkuBNm-130" value="" style="endArrow=blockThin;html=1;rounded=0;fontSize=7;endFill=1;endSize=3;" parent="1" edge="1">
          <mxGeometry width="50" height="50" relative="1" as="geometry">
            <mxPoint x="230" y="281.9" as="sourcePoint" />
            <mxPoint x="210" y="281.9" as="targetPoint" />
          </mxGeometry>
        </mxCell>
        <mxCell id="xY26Lk390qz5ybLkuBNm-132" value="AR" style="text;html=1;strokeColor=none;fillColor=none;align=left;verticalAlign=middle;whiteSpace=wrap;rounded=0;fontSize=7;" parent="1" vertex="1">
          <mxGeometry x="230" y="290" width="20" height="20" as="geometry" />
        </mxCell>
        <mxCell id="xY26Lk390qz5ybLkuBNm-133" value="R" style="text;html=1;strokeColor=none;fillColor=none;align=left;verticalAlign=middle;whiteSpace=wrap;rounded=0;fontSize=7;" parent="1" vertex="1">
          <mxGeometry x="230" y="310" width="20" height="20" as="geometry" />
        </mxCell>
        <mxCell id="xY26Lk390qz5ybLkuBNm-134" value="RST" style="text;html=1;strokeColor=none;fillColor=none;align=left;verticalAlign=middle;whiteSpace=wrap;rounded=0;fontSize=7;" parent="1" vertex="1">
          <mxGeometry x="230" y="330" width="20" height="20" as="geometry" />
        </mxCell>
        <mxCell id="xY26Lk390qz5ybLkuBNm-135" value="CLK" style="text;html=1;strokeColor=none;fillColor=none;align=left;verticalAlign=middle;whiteSpace=wrap;rounded=0;fontSize=7;" parent="1" vertex="1">
          <mxGeometry x="240" y="350" width="20" height="20" as="geometry" />
        </mxCell>
        <mxCell id="xY26Lk390qz5ybLkuBNm-136" value="" style="triangle;whiteSpace=wrap;html=1;fontSize=9;fillColor=#ffe6cc;strokeColor=#d79b00;" parent="1" vertex="1">
          <mxGeometry x="230" y="355" width="10" height="10" as="geometry" />
        </mxCell>
        <mxCell id="xY26Lk390qz5ybLkuBNm-137" value="" style="endArrow=blockThin;html=1;rounded=0;fontSize=7;endFill=1;endSize=3;" parent="1" edge="1">
          <mxGeometry width="50" height="50" relative="1" as="geometry">
            <mxPoint x="210" y="300" as="sourcePoint" />
            <mxPoint x="230" y="300" as="targetPoint" />
          </mxGeometry>
        </mxCell>
        <mxCell id="xY26Lk390qz5ybLkuBNm-138" value="" style="endArrow=blockThin;html=1;rounded=0;fontSize=7;endFill=1;endSize=3;" parent="1" edge="1">
          <mxGeometry width="50" height="50" relative="1" as="geometry">
            <mxPoint x="230" y="319.9" as="sourcePoint" />
            <mxPoint x="210" y="319.9" as="targetPoint" />
          </mxGeometry>
        </mxCell>
        <mxCell id="xY26Lk390qz5ybLkuBNm-139" value="" style="endArrow=blockThin;html=1;rounded=0;fontSize=7;endFill=1;endSize=3;" parent="1" edge="1">
          <mxGeometry width="50" height="50" relative="1" as="geometry">
            <mxPoint x="210" y="339.9" as="sourcePoint" />
            <mxPoint x="230" y="339.9" as="targetPoint" />
          </mxGeometry>
        </mxCell>
        <mxCell id="xY26Lk390qz5ybLkuBNm-140" value="" style="endArrow=blockThin;html=1;rounded=0;fontSize=7;endFill=1;endSize=3;" parent="1" edge="1">
          <mxGeometry width="50" height="50" relative="1" as="geometry">
            <mxPoint x="210" y="359.9" as="sourcePoint" />
            <mxPoint x="230" y="359.9" as="targetPoint" />
          </mxGeometry>
        </mxCell>
        <mxCell id="xY26Lk390qz5ybLkuBNm-141" value="&lt;div&gt;Filter_Select&lt;/div&gt;" style="text;html=1;strokeColor=none;fillColor=none;align=right;verticalAlign=middle;whiteSpace=wrap;rounded=0;fontSize=7;" parent="1" vertex="1">
          <mxGeometry x="360" y="287" width="20" height="20" as="geometry" />
        </mxCell>
        <mxCell id="aB2pylv8eeh1iW32WXUq-1" value="ADC_config" style="text;html=1;strokeColor=none;fillColor=none;align=right;verticalAlign=middle;whiteSpace=wrap;rounded=0;fontSize=7;" parent="1" vertex="1">
          <mxGeometry x="360" y="267" width="20" height="20" as="geometry" />
        </mxCell>
        <mxCell id="bkC1_MD1O3NsYFcz1UF--1" value="Filtered_Signal" style="text;html=1;strokeColor=none;fillColor=none;align=right;verticalAlign=middle;whiteSpace=wrap;rounded=0;fontSize=7;" parent="1" vertex="1">
          <mxGeometry x="360" y="307" width="20" height="20" as="geometry" />
        </mxCell>
        <mxCell id="36DtHKYsBJLXRnfznozq-6" value="12" style="endArrow=none;html=1;rounded=0;fontSize=6;startSize=6;strokeWidth=1;jumpSize=5;labelBackgroundColor=none;" parent="1" edge="1">
          <mxGeometry x="0.1" y="7" width="50" height="50" relative="1" as="geometry">
            <mxPoint x="395" y="319.5" as="sourcePoint" />
            <mxPoint x="400" y="314.5" as="targetPoint" />
            <mxPoint as="offset" />
          </mxGeometry>
        </mxCell>
        <mxCell id="36DtHKYsBJLXRnfznozq-7" value="" style="endArrow=blockThin;html=1;rounded=0;fontSize=7;endFill=1;endSize=3;" parent="1" edge="1">
          <mxGeometry width="50" height="50" relative="1" as="geometry">
            <mxPoint x="410" y="317.05" as="sourcePoint" />
            <mxPoint x="380" y="316.95" as="targetPoint" />
          </mxGeometry>
        </mxCell>
        <mxCell id="36DtHKYsBJLXRnfznozq-10" value="" style="endArrow=blockThin;html=1;rounded=0;fontSize=7;endFill=1;endSize=3;" parent="1" edge="1">
          <mxGeometry width="50" height="50" relative="1" as="geometry">
            <mxPoint x="380" y="296.8999999999999" as="sourcePoint" />
            <mxPoint x="410" y="297" as="targetPoint" />
          </mxGeometry>
        </mxCell>
        <mxCell id="36DtHKYsBJLXRnfznozq-11" value="8" style="endArrow=none;html=1;rounded=0;fontSize=6;startSize=6;strokeWidth=1;jumpSize=5;labelBackgroundColor=none;" parent="1" edge="1">
          <mxGeometry x="0.4" y="5" width="50" height="50" relative="1" as="geometry">
            <mxPoint x="390" y="280" as="sourcePoint" />
            <mxPoint x="395" y="275" as="targetPoint" />
            <mxPoint as="offset" />
          </mxGeometry>
        </mxCell>
        <mxCell id="36DtHKYsBJLXRnfznozq-12" value="" style="endArrow=blockThin;html=1;rounded=0;fontSize=7;endFill=1;endSize=3;" parent="1" edge="1">
          <mxGeometry width="50" height="50" relative="1" as="geometry">
            <mxPoint x="380" y="276.8999999999999" as="sourcePoint" />
            <mxPoint x="410" y="277" as="targetPoint" />
          </mxGeometry>
        </mxCell>
        <mxCell id="36DtHKYsBJLXRnfznozq-13" value="8" style="endArrow=none;html=1;rounded=0;fontSize=6;startSize=6;strokeWidth=1;jumpSize=5;labelBackgroundColor=none;" parent="1" edge="1">
          <mxGeometry x="0.5" y="5" width="50" height="50" relative="1" as="geometry">
            <mxPoint x="390" y="259.5" as="sourcePoint" />
            <mxPoint x="395" y="254.5" as="targetPoint" />
            <mxPoint as="offset" />
          </mxGeometry>
        </mxCell>
        <mxCell id="36DtHKYsBJLXRnfznozq-14" value="" style="endArrow=blockThin;html=1;rounded=0;fontSize=7;endFill=1;endSize=3;" parent="1" edge="1">
          <mxGeometry width="50" height="50" relative="1" as="geometry">
            <mxPoint x="380" y="256.3999999999999" as="sourcePoint" />
            <mxPoint x="410" y="256.5" as="targetPoint" />
          </mxGeometry>
        </mxCell>
        <mxCell id="7kUUhAK3YL8TPVer2hDQ-2" value="12" style="endArrow=none;html=1;rounded=0;fontSize=6;startSize=6;strokeWidth=1;jumpSize=5;labelBackgroundColor=none;" parent="1" edge="1">
          <mxGeometry x="0.1" y="7" width="50" height="50" relative="1" as="geometry">
            <mxPoint x="590" y="334.5" as="sourcePoint" />
            <mxPoint x="595" y="329.5" as="targetPoint" />
            <mxPoint as="offset" />
          </mxGeometry>
        </mxCell>
        <mxCell id="7kUUhAK3YL8TPVer2hDQ-3" value="" style="endArrow=blockThin;html=1;rounded=0;fontSize=7;endFill=1;endSize=3;" parent="1" edge="1">
          <mxGeometry width="50" height="50" relative="1" as="geometry">
            <mxPoint x="580" y="331.3999999999999" as="sourcePoint" />
            <mxPoint x="610" y="331.5" as="targetPoint" />
          </mxGeometry>
        </mxCell>
        <mxCell id="7kUUhAK3YL8TPVer2hDQ-4" value="2" style="endArrow=none;html=1;rounded=0;fontSize=6;startSize=6;strokeWidth=1;jumpSize=5;labelBackgroundColor=none;" parent="1" edge="1">
          <mxGeometry x="0.4" y="5" width="50" height="50" relative="1" as="geometry">
            <mxPoint x="390" y="299.5" as="sourcePoint" />
            <mxPoint x="395" y="294.5" as="targetPoint" />
            <mxPoint as="offset" />
          </mxGeometry>
        </mxCell>
        <mxCell id="7kUUhAK3YL8TPVer2hDQ-12" value="CLK" style="text;html=1;strokeColor=none;fillColor=none;align=left;verticalAlign=middle;whiteSpace=wrap;rounded=0;fontSize=7;" parent="1" vertex="1">
          <mxGeometry x="470" y="220" width="20" height="20" as="geometry" />
        </mxCell>
        <mxCell id="7kUUhAK3YL8TPVer2hDQ-13" value="" style="triangle;whiteSpace=wrap;html=1;fontSize=9;fillColor=#ffe6cc;strokeColor=#d79b00;" parent="1" vertex="1">
          <mxGeometry x="460" y="225" width="10" height="10" as="geometry" />
        </mxCell>
        <mxCell id="7kUUhAK3YL8TPVer2hDQ-14" value="" style="endArrow=blockThin;html=1;rounded=0;fontSize=7;endFill=1;endSize=3;" parent="1" edge="1">
          <mxGeometry width="50" height="50" relative="1" as="geometry">
            <mxPoint x="430" y="230" as="sourcePoint" />
            <mxPoint x="460" y="229.89999999999998" as="targetPoint" />
          </mxGeometry>
        </mxCell>
        <mxCell id="7kUUhAK3YL8TPVer2hDQ-18" value="12" style="endArrow=none;html=1;rounded=0;fontSize=6;startSize=6;strokeWidth=1;jumpSize=5;labelBackgroundColor=none;" parent="1" edge="1">
          <mxGeometry x="0.1" y="7" width="50" height="50" relative="1" as="geometry">
            <mxPoint x="440" y="192.5" as="sourcePoint" />
            <mxPoint x="445" y="187.5" as="targetPoint" />
            <mxPoint as="offset" />
          </mxGeometry>
        </mxCell>
        <mxCell id="7kUUhAK3YL8TPVer2hDQ-19" value="" style="endArrow=blockThin;html=1;rounded=0;fontSize=7;endFill=1;endSize=3;" parent="1" edge="1">
          <mxGeometry width="50" height="50" relative="1" as="geometry">
            <mxPoint x="430" y="189.39999999999986" as="sourcePoint" />
            <mxPoint x="460" y="189.5" as="targetPoint" />
          </mxGeometry>
        </mxCell>
        <mxCell id="7kUUhAK3YL8TPVer2hDQ-20" value="12" style="endArrow=none;html=1;rounded=0;fontSize=6;startSize=6;strokeWidth=1;jumpSize=5;labelBackgroundColor=none;" parent="1" edge="1">
          <mxGeometry x="0.1" y="7" width="50" height="50" relative="1" as="geometry">
            <mxPoint x="590" y="192.5" as="sourcePoint" />
            <mxPoint x="595" y="187.5" as="targetPoint" />
            <mxPoint as="offset" />
          </mxGeometry>
        </mxCell>
        <mxCell id="7kUUhAK3YL8TPVer2hDQ-21" value="" style="endArrow=blockThin;html=1;rounded=0;fontSize=7;endFill=1;endSize=3;" parent="1" edge="1">
          <mxGeometry width="50" height="50" relative="1" as="geometry">
            <mxPoint x="580" y="189.39999999999986" as="sourcePoint" />
            <mxPoint x="610" y="189.5" as="targetPoint" />
          </mxGeometry>
        </mxCell>
        <mxCell id="7kUUhAK3YL8TPVer2hDQ-22" value="" style="endArrow=blockThin;html=1;rounded=0;fontSize=7;endFill=1;endSize=3;" parent="1" edge="1">
          <mxGeometry width="50" height="50" relative="1" as="geometry">
            <mxPoint x="430" y="169.89999999999992" as="sourcePoint" />
            <mxPoint x="460" y="170" as="targetPoint" />
          </mxGeometry>
        </mxCell>
        <mxCell id="7kUUhAK3YL8TPVer2hDQ-23" value="2" style="endArrow=none;html=1;rounded=0;fontSize=6;startSize=6;strokeWidth=1;jumpSize=5;labelBackgroundColor=none;" parent="1" edge="1">
          <mxGeometry x="0.4" y="5" width="50" height="50" relative="1" as="geometry">
            <mxPoint x="440" y="172.5" as="sourcePoint" />
            <mxPoint x="445" y="167.5" as="targetPoint" />
            <mxPoint as="offset" />
          </mxGeometry>
        </mxCell>
      </root>
    </mxGraphModel>
  </diagram>
  <diagram name="Copy of HDMIblockdesign" id="GOSVGcgFGw7hf2YpI0Lo">
    <mxGraphModel dx="2046" dy="712" grid="1" gridSize="10" guides="1" tooltips="1" connect="1" arrows="1" fold="1" page="1" pageScale="1" pageWidth="850" pageHeight="1100" math="0" shadow="0">
      <root>
        <mxCell id="TAO55AP3Hbz2Ya9clQJf-0" />
        <mxCell id="TAO55AP3Hbz2Ya9clQJf-1" parent="TAO55AP3Hbz2Ya9clQJf-0" />
        <mxCell id="TAO55AP3Hbz2Ya9clQJf-27" value="&lt;div&gt;&lt;b&gt;HDMI&lt;/b&gt;&lt;/div&gt;&lt;div&gt;IP&lt;br&gt;&lt;/div&gt;" style="shape=process;whiteSpace=wrap;html=1;backgroundOutline=1;fontSize=9;strokeColor=#d6b656;fillColor=#fff2cc;size=0;" parent="TAO55AP3Hbz2Ya9clQJf-1" vertex="1">
          <mxGeometry x="520" y="35.25" width="105" height="134.75" as="geometry" />
        </mxCell>
        <mxCell id="TAO55AP3Hbz2Ya9clQJf-2" value="&lt;div&gt;&lt;b&gt;AXI&lt;/b&gt;&lt;/div&gt;&lt;div&gt;&lt;b&gt;Interconnect&lt;/b&gt;&lt;br&gt;&lt;/div&gt;" style="shape=process;whiteSpace=wrap;html=1;backgroundOutline=1;fontSize=9;strokeColor=#6c8ebf;fillColor=#dae8fc;size=0;verticalAlign=middle;align=left;" parent="TAO55AP3Hbz2Ya9clQJf-1" vertex="1">
          <mxGeometry x="174" y="70" width="96" height="140" as="geometry" />
        </mxCell>
        <mxCell id="TAO55AP3Hbz2Ya9clQJf-25" value="AXI-Lite" style="edgeStyle=orthogonalEdgeStyle;rounded=0;orthogonalLoop=1;jettySize=auto;html=1;entryX=0;entryY=0.5;entryDx=0;entryDy=0;fontSize=7;startArrow=classic;startFill=1;endArrow=classic;endFill=1;startSize=3;endSize=3;labelBackgroundColor=none;" parent="TAO55AP3Hbz2Ya9clQJf-1" source="TAO55AP3Hbz2Ya9clQJf-26" target="TAO55AP3Hbz2Ya9clQJf-2" edge="1">
          <mxGeometry x="-0.0667" y="5" relative="1" as="geometry">
            <mxPoint as="offset" />
            <Array as="points">
              <mxPoint x="130" y="140" />
              <mxPoint x="130" y="140" />
            </Array>
          </mxGeometry>
        </mxCell>
        <mxCell id="ZdmPgmuOy5tHTi2a4pXS-7" style="edgeStyle=orthogonalEdgeStyle;rounded=0;orthogonalLoop=1;jettySize=auto;html=1;exitX=0.212;exitY=1.005;exitDx=0;exitDy=0;entryX=0.5;entryY=0;entryDx=0;entryDy=0;exitPerimeter=0;startArrow=classic;startFill=1;endSize=3;startSize=3;" parent="TAO55AP3Hbz2Ya9clQJf-1" source="TAO55AP3Hbz2Ya9clQJf-26" target="ZdmPgmuOy5tHTi2a4pXS-5" edge="1">
          <mxGeometry relative="1" as="geometry" />
        </mxCell>
        <mxCell id="ZdmPgmuOy5tHTi2a4pXS-8" style="edgeStyle=orthogonalEdgeStyle;rounded=0;orthogonalLoop=1;jettySize=auto;html=1;exitX=0.773;exitY=1.001;exitDx=0;exitDy=0;entryX=0.5;entryY=0;entryDx=0;entryDy=0;startArrow=classic;startFill=1;startSize=3;endSize=3;exitPerimeter=0;" parent="TAO55AP3Hbz2Ya9clQJf-1" source="TAO55AP3Hbz2Ya9clQJf-26" target="TAO55AP3Hbz2Ya9clQJf-52" edge="1">
          <mxGeometry relative="1" as="geometry" />
        </mxCell>
        <mxCell id="TAO55AP3Hbz2Ya9clQJf-26" value="&lt;div&gt;&lt;span&gt;PS&lt;/span&gt;&lt;/div&gt;" style="shape=process;whiteSpace=wrap;html=1;backgroundOutline=1;fontSize=9;strokeColor=#b85450;fillColor=#f8cecc;size=0;fontStyle=1" parent="TAO55AP3Hbz2Ya9clQJf-1" vertex="1">
          <mxGeometry x="50" y="70" width="70" height="130" as="geometry" />
        </mxCell>
        <mxCell id="TAO55AP3Hbz2Ya9clQJf-33" value="TMDS_clk" style="text;html=1;strokeColor=none;fillColor=none;align=left;verticalAlign=middle;whiteSpace=wrap;rounded=0;fontSize=7;" parent="TAO55AP3Hbz2Ya9clQJf-1" vertex="1">
          <mxGeometry x="520" y="65.34" width="20" height="20" as="geometry" />
        </mxCell>
        <mxCell id="TAO55AP3Hbz2Ya9clQJf-40" value="&lt;div&gt;Clk&lt;/div&gt;&lt;div&gt;Wizard&lt;/div&gt;" style="shape=process;whiteSpace=wrap;html=1;backgroundOutline=1;fontSize=9;strokeColor=#d6b656;fillColor=#fff2cc;size=0;fontStyle=1" parent="TAO55AP3Hbz2Ya9clQJf-1" vertex="1">
          <mxGeometry x="50.43000000000001" y="10" width="107" height="41" as="geometry" />
        </mxCell>
        <mxCell id="TAO55AP3Hbz2Ya9clQJf-41" style="edgeStyle=orthogonalEdgeStyle;rounded=0;orthogonalLoop=1;jettySize=auto;html=1;exitX=0;exitY=0.5;exitDx=0;exitDy=0;fontSize=5;startArrow=classic;startFill=1;endArrow=none;endFill=0;startSize=3;endSize=3;" parent="TAO55AP3Hbz2Ya9clQJf-1" source="TAO55AP3Hbz2Ya9clQJf-43" edge="1">
          <mxGeometry relative="1" as="geometry">
            <mxPoint x="0.4300000000000068" y="30" as="targetPoint" />
          </mxGeometry>
        </mxCell>
        <mxCell id="TAO55AP3Hbz2Ya9clQJf-42" value="SYSCLK" style="edgeLabel;html=1;align=center;verticalAlign=middle;resizable=0;points=[];fontSize=7;fontStyle=1" parent="TAO55AP3Hbz2Ya9clQJf-41" vertex="1" connectable="0">
          <mxGeometry x="0.8889" relative="1" as="geometry">
            <mxPoint x="-3" as="offset" />
          </mxGeometry>
        </mxCell>
        <mxCell id="TAO55AP3Hbz2Ya9clQJf-43" value="Clk" style="text;html=1;strokeColor=none;fillColor=none;align=left;verticalAlign=middle;whiteSpace=wrap;rounded=0;fontSize=7;" parent="TAO55AP3Hbz2Ya9clQJf-1" vertex="1">
          <mxGeometry x="50.43000000000001" y="20" width="20" height="20" as="geometry" />
        </mxCell>
        <mxCell id="Lchh02WLpkzByO56kSNv-3" style="edgeStyle=orthogonalEdgeStyle;rounded=0;orthogonalLoop=1;jettySize=auto;html=1;exitX=1;exitY=0.5;exitDx=0;exitDy=0;entryX=0;entryY=0.5;entryDx=0;entryDy=0;startArrow=none;startFill=0;startSize=3;endSize=3;" parent="TAO55AP3Hbz2Ya9clQJf-1" source="TAO55AP3Hbz2Ya9clQJf-45" target="TAO55AP3Hbz2Ya9clQJf-48" edge="1">
          <mxGeometry relative="1" as="geometry">
            <Array as="points">
              <mxPoint x="500" y="20" />
              <mxPoint x="500" y="55" />
            </Array>
          </mxGeometry>
        </mxCell>
        <mxCell id="TAO55AP3Hbz2Ya9clQJf-45" value="Pixclk" style="text;html=1;strokeColor=none;fillColor=none;align=right;verticalAlign=middle;whiteSpace=wrap;rounded=0;fontSize=7;" parent="TAO55AP3Hbz2Ya9clQJf-1" vertex="1">
          <mxGeometry x="137.43" y="10" width="20" height="20" as="geometry" />
        </mxCell>
        <mxCell id="TAO55AP3Hbz2Ya9clQJf-46" style="edgeStyle=orthogonalEdgeStyle;rounded=0;orthogonalLoop=1;jettySize=auto;html=1;exitX=0.997;exitY=0.599;exitDx=0;exitDy=0;entryX=0;entryY=0.5;entryDx=0;entryDy=0;fontSize=9;endSize=3;exitPerimeter=0;" parent="TAO55AP3Hbz2Ya9clQJf-1" source="TAO55AP3Hbz2Ya9clQJf-47" target="TAO55AP3Hbz2Ya9clQJf-33" edge="1">
          <mxGeometry relative="1" as="geometry">
            <Array as="points">
              <mxPoint x="490" y="42" />
              <mxPoint x="490" y="75" />
              <mxPoint x="520" y="75" />
            </Array>
          </mxGeometry>
        </mxCell>
        <mxCell id="TAO55AP3Hbz2Ya9clQJf-47" value="TMDS_clk" style="text;html=1;strokeColor=none;fillColor=none;align=right;verticalAlign=middle;whiteSpace=wrap;rounded=0;fontSize=7;" parent="TAO55AP3Hbz2Ya9clQJf-1" vertex="1">
          <mxGeometry x="137.43" y="30" width="20" height="20" as="geometry" />
        </mxCell>
        <mxCell id="TAO55AP3Hbz2Ya9clQJf-48" value="Pixclk" style="text;html=1;strokeColor=none;fillColor=none;align=left;verticalAlign=middle;whiteSpace=wrap;rounded=0;fontSize=7;" parent="TAO55AP3Hbz2Ya9clQJf-1" vertex="1">
          <mxGeometry x="520" y="44.84" width="20" height="20" as="geometry" />
        </mxCell>
        <mxCell id="ZdmPgmuOy5tHTi2a4pXS-22" style="edgeStyle=orthogonalEdgeStyle;rounded=0;orthogonalLoop=1;jettySize=auto;html=1;exitX=1;exitY=0.5;exitDx=0;exitDy=0;startArrow=none;startFill=0;startSize=3;endSize=3;entryX=0.002;entryY=0.785;entryDx=0;entryDy=0;entryPerimeter=0;" parent="TAO55AP3Hbz2Ya9clQJf-1" source="TAO55AP3Hbz2Ya9clQJf-51" target="4uMJYd1qXO8FA0IXXtRy-7" edge="1">
          <mxGeometry relative="1" as="geometry">
            <mxPoint x="370" y="110" as="targetPoint" />
          </mxGeometry>
        </mxCell>
        <mxCell id="TAO55AP3Hbz2Ya9clQJf-51" value="XADC" style="shape=process;whiteSpace=wrap;html=1;backgroundOutline=1;fontSize=9;strokeColor=#d6b656;fillColor=#fff2cc;size=0;fontStyle=1" parent="TAO55AP3Hbz2Ya9clQJf-1" vertex="1">
          <mxGeometry x="310" y="99.84" width="36" height="20" as="geometry" />
        </mxCell>
        <mxCell id="ZdmPgmuOy5tHTi2a4pXS-25" style="edgeStyle=orthogonalEdgeStyle;rounded=0;orthogonalLoop=1;jettySize=auto;html=1;exitX=1;exitY=0.5;exitDx=0;exitDy=0;startArrow=none;startFill=0;startSize=3;endSize=3;" parent="TAO55AP3Hbz2Ya9clQJf-1" source="TAO55AP3Hbz2Ya9clQJf-52" target="ZdmPgmuOy5tHTi2a4pXS-4" edge="1">
          <mxGeometry relative="1" as="geometry">
            <Array as="points">
              <mxPoint x="220" y="237" />
              <mxPoint x="220" y="237" />
            </Array>
          </mxGeometry>
        </mxCell>
        <mxCell id="TAO55AP3Hbz2Ya9clQJf-52" value="DDR" style="shape=process;whiteSpace=wrap;html=1;backgroundOutline=1;fontSize=9;strokeColor=#b85450;fillColor=#f8cecc;size=0;fontStyle=1" parent="TAO55AP3Hbz2Ya9clQJf-1" vertex="1">
          <mxGeometry x="89.72" y="219" width="30" height="35" as="geometry" />
        </mxCell>
        <mxCell id="ZdmPgmuOy5tHTi2a4pXS-21" style="edgeStyle=orthogonalEdgeStyle;rounded=0;orthogonalLoop=1;jettySize=auto;html=1;exitX=1;exitY=0.5;exitDx=0;exitDy=0;startArrow=none;startFill=0;startSize=3;endSize=3;" parent="TAO55AP3Hbz2Ya9clQJf-1" source="4uMJYd1qXO8FA0IXXtRy-1" target="4uMJYd1qXO8FA0IXXtRy-8" edge="1">
          <mxGeometry relative="1" as="geometry">
            <Array as="points">
              <mxPoint x="370" y="90" />
              <mxPoint x="370" y="90" />
            </Array>
          </mxGeometry>
        </mxCell>
        <mxCell id="4uMJYd1qXO8FA0IXXtRy-1" value="&lt;div&gt;&lt;b&gt;AXI_M&lt;/b&gt;&lt;/div&gt;" style="shape=process;whiteSpace=wrap;html=1;backgroundOutline=1;fontSize=9;strokeColor=#6c8ebf;fillColor=#dae8fc;size=0;verticalAlign=middle;" parent="TAO55AP3Hbz2Ya9clQJf-1" vertex="1">
          <mxGeometry x="237" y="80.34" width="33" height="19.5" as="geometry" />
        </mxCell>
        <mxCell id="ZdmPgmuOy5tHTi2a4pXS-20" style="edgeStyle=orthogonalEdgeStyle;rounded=0;orthogonalLoop=1;jettySize=auto;html=1;exitX=1;exitY=0.5;exitDx=0;exitDy=0;entryX=0;entryY=0.5;entryDx=0;entryDy=0;startArrow=classic;startFill=1;startSize=3;endSize=3;" parent="TAO55AP3Hbz2Ya9clQJf-1" source="4uMJYd1qXO8FA0IXXtRy-2" target="4uMJYd1qXO8FA0IXXtRy-5" edge="1">
          <mxGeometry relative="1" as="geometry">
            <Array as="points">
              <mxPoint x="520" y="141" />
            </Array>
          </mxGeometry>
        </mxCell>
        <mxCell id="4uMJYd1qXO8FA0IXXtRy-2" value="&lt;div&gt;&lt;b&gt;AXI_M&lt;/b&gt;&lt;/div&gt;" style="shape=process;whiteSpace=wrap;html=1;backgroundOutline=1;fontSize=9;strokeColor=#6c8ebf;fillColor=#dae8fc;size=0;verticalAlign=middle;" parent="TAO55AP3Hbz2Ya9clQJf-1" vertex="1">
          <mxGeometry x="237" y="131" width="33" height="19.5" as="geometry" />
        </mxCell>
        <mxCell id="ZdmPgmuOy5tHTi2a4pXS-5" value="&lt;div&gt;SD&lt;/div&gt;&lt;div&gt;Card&lt;br&gt;&lt;/div&gt;" style="shape=process;whiteSpace=wrap;html=1;backgroundOutline=1;fontSize=9;strokeColor=#b85450;fillColor=#f8cecc;size=0;fontStyle=1" parent="TAO55AP3Hbz2Ya9clQJf-1" vertex="1">
          <mxGeometry x="50.43" y="219" width="30" height="35" as="geometry" />
        </mxCell>
        <mxCell id="ZdmPgmuOy5tHTi2a4pXS-24" style="edgeStyle=orthogonalEdgeStyle;rounded=0;orthogonalLoop=1;jettySize=auto;html=1;exitX=1;exitY=0.5;exitDx=0;exitDy=0;startArrow=none;startFill=0;startSize=3;endSize=3;" parent="TAO55AP3Hbz2Ya9clQJf-1" source="ZdmPgmuOy5tHTi2a4pXS-15" target="ZdmPgmuOy5tHTi2a4pXS-14" edge="1">
          <mxGeometry relative="1" as="geometry">
            <mxPoint x="310" y="170" as="targetPoint" />
            <Array as="points">
              <mxPoint x="320" y="191" />
              <mxPoint x="320" y="191" />
            </Array>
          </mxGeometry>
        </mxCell>
        <mxCell id="ZdmPgmuOy5tHTi2a4pXS-15" value="&lt;div&gt;&lt;b&gt;AXI_M&lt;/b&gt;&lt;/div&gt;" style="shape=process;whiteSpace=wrap;html=1;backgroundOutline=1;fontSize=9;strokeColor=#6c8ebf;fillColor=#dae8fc;size=0;verticalAlign=middle;" parent="TAO55AP3Hbz2Ya9clQJf-1" vertex="1">
          <mxGeometry x="237" y="180.25" width="33" height="19.5" as="geometry" />
        </mxCell>
        <mxCell id="Lchh02WLpkzByO56kSNv-0" style="edgeStyle=orthogonalEdgeStyle;rounded=0;orthogonalLoop=1;jettySize=auto;html=1;exitX=1;exitY=0.5;exitDx=0;exitDy=0;startArrow=none;startFill=0;startSize=3;endSize=3;" parent="TAO55AP3Hbz2Ya9clQJf-1" source="4uMJYd1qXO8FA0IXXtRy-7" target="TAO55AP3Hbz2Ya9clQJf-27" edge="1">
          <mxGeometry relative="1" as="geometry">
            <Array as="points">
              <mxPoint x="500" y="98" />
              <mxPoint x="500" y="98" />
            </Array>
          </mxGeometry>
        </mxCell>
        <mxCell id="4uMJYd1qXO8FA0IXXtRy-7" value="&lt;div&gt;&lt;b&gt;Filters&lt;/b&gt;&lt;/div&gt;&lt;div&gt;IP&lt;br&gt;&lt;/div&gt;" style="shape=process;whiteSpace=wrap;html=1;backgroundOutline=1;fontSize=9;strokeColor=#d6b656;fillColor=#fff2cc;size=0;" parent="TAO55AP3Hbz2Ya9clQJf-1" vertex="1">
          <mxGeometry x="375" y="75.09" width="100" height="44.75" as="geometry" />
        </mxCell>
        <mxCell id="4uMJYd1qXO8FA0IXXtRy-8" value="&lt;div&gt;&lt;b&gt;AXI_S&lt;/b&gt;&lt;/div&gt;" style="shape=process;whiteSpace=wrap;html=1;backgroundOutline=1;fontSize=9;strokeColor=#6c8ebf;fillColor=#dae8fc;size=0;verticalAlign=middle;" parent="TAO55AP3Hbz2Ya9clQJf-1" vertex="1">
          <mxGeometry x="375" y="80.33555555555554" width="33" height="15.166666666666666" as="geometry" />
        </mxCell>
        <mxCell id="ZdmPgmuOy5tHTi2a4pXS-26" style="edgeStyle=orthogonalEdgeStyle;rounded=0;orthogonalLoop=1;jettySize=auto;html=1;exitX=1;exitY=0.5;exitDx=0;exitDy=0;startArrow=none;startFill=0;startSize=3;endSize=3;" parent="TAO55AP3Hbz2Ya9clQJf-1" source="ZdmPgmuOy5tHTi2a4pXS-4" target="TAO55AP3Hbz2Ya9clQJf-27" edge="1">
          <mxGeometry relative="1" as="geometry">
            <Array as="points">
              <mxPoint x="370" y="210" />
              <mxPoint x="490" y="210" />
              <mxPoint x="490" y="160" />
            </Array>
          </mxGeometry>
        </mxCell>
        <mxCell id="ZdmPgmuOy5tHTi2a4pXS-4" value="CDMA" style="shape=process;whiteSpace=wrap;html=1;backgroundOutline=1;fontSize=9;strokeColor=#d6b656;fillColor=#fff2cc;size=0;fontStyle=1" parent="TAO55AP3Hbz2Ya9clQJf-1" vertex="1">
          <mxGeometry x="318" y="180.25" width="52" height="69.75" as="geometry" />
        </mxCell>
        <mxCell id="ZdmPgmuOy5tHTi2a4pXS-14" value="&lt;div&gt;&lt;b&gt;AXI_S&lt;/b&gt;&lt;/div&gt;" style="shape=process;whiteSpace=wrap;html=1;backgroundOutline=1;fontSize=9;strokeColor=#6c8ebf;fillColor=#dae8fc;size=0;verticalAlign=middle;" parent="TAO55AP3Hbz2Ya9clQJf-1" vertex="1">
          <mxGeometry x="318" y="183.16555555555556" width="33" height="15.166666666666666" as="geometry" />
        </mxCell>
        <mxCell id="TAO55AP3Hbz2Ya9clQJf-19" value="&amp;nbsp;&lt;font style=&quot;font-size: 9px;&quot;&gt;HDMI-Tx&amp;nbsp; &lt;br style=&quot;font-size: 9px;&quot;&gt;Port&lt;/font&gt;" style="rounded=0;whiteSpace=wrap;html=1;fillColor=#DAE8FC;strokeColor=#6c8ebf;dashed=1;strokeWidth=2;verticalAlign=top;fontSize=9;fontStyle=1" parent="TAO55AP3Hbz2Ya9clQJf-1" vertex="1">
          <mxGeometry x="650" y="57.379999999999995" width="55" height="80.5" as="geometry" />
        </mxCell>
        <mxCell id="TAO55AP3Hbz2Ya9clQJf-20" style="edgeStyle=orthogonalEdgeStyle;rounded=0;orthogonalLoop=1;jettySize=auto;html=1;exitX=1;exitY=0.5;exitDx=0;exitDy=0;fontSize=7;endSize=3;" parent="TAO55AP3Hbz2Ya9clQJf-1" source="TAO55AP3Hbz2Ya9clQJf-36" target="TAO55AP3Hbz2Ya9clQJf-19" edge="1">
          <mxGeometry relative="1" as="geometry">
            <mxPoint x="676" y="98.63" as="targetPoint" />
            <Array as="points">
              <mxPoint x="660" y="107.38" />
              <mxPoint x="660" y="107.38" />
            </Array>
          </mxGeometry>
        </mxCell>
        <mxCell id="TAO55AP3Hbz2Ya9clQJf-21" value="" style="shape=image;html=1;verticalAlign=top;verticalLabelPosition=bottom;labelBackgroundColor=#ffffff;imageAspect=0;aspect=fixed;image=https://cdn1.iconfinder.com/data/icons/bootstrap-vol-3/16/hdmi-128.png;fontSize=9;fillColor=#000000;imageBackground=#DAE8FC;" parent="TAO55AP3Hbz2Ya9clQJf-1" vertex="1">
          <mxGeometry x="658.1700000000001" y="96.38" width="38.65" height="38.65" as="geometry" />
        </mxCell>
        <mxCell id="TAO55AP3Hbz2Ya9clQJf-22" style="edgeStyle=orthogonalEdgeStyle;rounded=0;orthogonalLoop=1;jettySize=auto;html=1;exitX=1;exitY=0.5;exitDx=0;exitDy=0;fontSize=9;endSize=3;" parent="TAO55AP3Hbz2Ya9clQJf-1" source="TAO55AP3Hbz2Ya9clQJf-34" target="TAO55AP3Hbz2Ya9clQJf-19" edge="1">
          <mxGeometry relative="1" as="geometry">
            <Array as="points">
              <mxPoint x="625" y="66.38" />
            </Array>
            <mxPoint x="650" y="67.38" as="targetPoint" />
          </mxGeometry>
        </mxCell>
        <mxCell id="TAO55AP3Hbz2Ya9clQJf-23" style="edgeStyle=orthogonalEdgeStyle;rounded=0;orthogonalLoop=1;jettySize=auto;html=1;exitX=1;exitY=0.5;exitDx=0;exitDy=0;entryX=0.025;entryY=0.367;entryDx=0;entryDy=0;entryPerimeter=0;fontSize=9;endSize=3;" parent="TAO55AP3Hbz2Ya9clQJf-1" source="TAO55AP3Hbz2Ya9clQJf-35" target="TAO55AP3Hbz2Ya9clQJf-19" edge="1">
          <mxGeometry relative="1" as="geometry">
            <Array as="points" />
          </mxGeometry>
        </mxCell>
        <mxCell id="TAO55AP3Hbz2Ya9clQJf-24" style="edgeStyle=orthogonalEdgeStyle;rounded=0;orthogonalLoop=1;jettySize=auto;html=1;exitX=1;exitY=0.5;exitDx=0;exitDy=0;entryX=0;entryY=0.864;entryDx=0;entryDy=0;entryPerimeter=0;fontSize=9;endSize=3;" parent="TAO55AP3Hbz2Ya9clQJf-1" source="TAO55AP3Hbz2Ya9clQJf-37" target="TAO55AP3Hbz2Ya9clQJf-19" edge="1">
          <mxGeometry relative="1" as="geometry" />
        </mxCell>
        <mxCell id="TAO55AP3Hbz2Ya9clQJf-34" value="TMDSp" style="text;html=1;strokeColor=none;fillColor=none;align=right;verticalAlign=middle;whiteSpace=wrap;rounded=0;fontSize=7;" parent="TAO55AP3Hbz2Ya9clQJf-1" vertex="1">
          <mxGeometry x="605" y="57.379999999999995" width="20" height="20" as="geometry" />
        </mxCell>
        <mxCell id="TAO55AP3Hbz2Ya9clQJf-35" value="TMDSn" style="text;html=1;strokeColor=none;fillColor=none;align=right;verticalAlign=middle;whiteSpace=wrap;rounded=0;fontSize=7;" parent="TAO55AP3Hbz2Ya9clQJf-1" vertex="1">
          <mxGeometry x="605" y="77.38" width="20" height="20" as="geometry" />
        </mxCell>
        <mxCell id="TAO55AP3Hbz2Ya9clQJf-36" value="TMDSp_clk" style="text;html=1;strokeColor=none;fillColor=none;align=right;verticalAlign=middle;whiteSpace=wrap;rounded=0;fontSize=7;" parent="TAO55AP3Hbz2Ya9clQJf-1" vertex="1">
          <mxGeometry x="605" y="97.38" width="20" height="20" as="geometry" />
        </mxCell>
        <mxCell id="TAO55AP3Hbz2Ya9clQJf-37" value="TMDSn_clk" style="text;html=1;strokeColor=none;fillColor=none;align=right;verticalAlign=middle;whiteSpace=wrap;rounded=0;fontSize=7;" parent="TAO55AP3Hbz2Ya9clQJf-1" vertex="1">
          <mxGeometry x="605" y="117.38" width="20" height="20" as="geometry" />
        </mxCell>
        <mxCell id="4uMJYd1qXO8FA0IXXtRy-5" value="&lt;div&gt;&lt;b&gt;AXI_S&lt;/b&gt;&lt;/div&gt;" style="shape=process;whiteSpace=wrap;html=1;backgroundOutline=1;fontSize=9;strokeColor=#6c8ebf;fillColor=#dae8fc;size=0;verticalAlign=middle;" parent="TAO55AP3Hbz2Ya9clQJf-1" vertex="1">
          <mxGeometry x="520" y="130.99999999999997" width="33" height="19.5" as="geometry" />
        </mxCell>
        <mxCell id="Lchh02WLpkzByO56kSNv-4" value="&lt;div&gt;Filtered&lt;/div&gt;&lt;div&gt;Signal&lt;/div&gt;" style="text;html=1;strokeColor=none;fillColor=none;align=left;verticalAlign=middle;whiteSpace=wrap;rounded=0;fontSize=7;" parent="TAO55AP3Hbz2Ya9clQJf-1" vertex="1">
          <mxGeometry x="520" y="87.63" width="20" height="20" as="geometry" />
        </mxCell>
        <mxCell id="Lchh02WLpkzByO56kSNv-5" value="FrameLine" style="text;html=1;strokeColor=none;fillColor=none;align=left;verticalAlign=middle;whiteSpace=wrap;rounded=0;fontSize=7;" parent="TAO55AP3Hbz2Ya9clQJf-1" vertex="1">
          <mxGeometry x="520" y="150.5" width="20" height="20" as="geometry" />
        </mxCell>
      </root>
    </mxGraphModel>
  </diagram>
  <diagram name="HDMI_IP" id="DIQ0rc0NHFOrXqflwq8c">
    <mxGraphModel dx="2046" dy="712" grid="1" gridSize="5" guides="1" tooltips="1" connect="1" arrows="1" fold="1" page="1" pageScale="1" pageWidth="850" pageHeight="1100" math="0" shadow="0">
      <root>
        <mxCell id="eboJwfwgzQ0K-ukfMv3k-0" />
        <mxCell id="eboJwfwgzQ0K-ukfMv3k-1" parent="eboJwfwgzQ0K-ukfMv3k-0" />
        <mxCell id="eboJwfwgzQ0K-ukfMv3k-97" value="HDMI Controller" style="shape=process;whiteSpace=wrap;html=1;backgroundOutline=1;fontSize=9;strokeColor=#d6b656;fillColor=#fff2cc;size=0;fontStyle=1;verticalAlign=middle;" parent="eboJwfwgzQ0K-ukfMv3k-1" vertex="1">
          <mxGeometry x="-305" y="140" width="125" height="185" as="geometry" />
        </mxCell>
        <mxCell id="eboJwfwgzQ0K-ukfMv3k-3" value="HDMI IP" style="shape=process;whiteSpace=wrap;html=1;backgroundOutline=1;fontSize=9;strokeColor=#d6b656;fillColor=#fff2cc;size=0;fontStyle=1;verticalAlign=middle;" parent="eboJwfwgzQ0K-ukfMv3k-1" vertex="1">
          <mxGeometry x="-470" y="55" width="50" height="15" as="geometry" />
        </mxCell>
        <mxCell id="eboJwfwgzQ0K-ukfMv3k-9" style="edgeStyle=orthogonalEdgeStyle;rounded=0;orthogonalLoop=1;jettySize=auto;html=1;exitX=1;exitY=0.5;exitDx=0;exitDy=0;fontSize=5;startArrow=classic;startFill=1;endArrow=none;endFill=0;startSize=3;endSize=3;entryX=1;entryY=0.5;entryDx=0;entryDy=0;" parent="eboJwfwgzQ0K-ukfMv3k-1" target="eboJwfwgzQ0K-ukfMv3k-10" edge="1">
          <mxGeometry relative="1" as="geometry">
            <mxPoint x="175" y="125.9230769230769" as="sourcePoint" />
          </mxGeometry>
        </mxCell>
        <mxCell id="eboJwfwgzQ0K-ukfMv3k-11" style="edgeStyle=orthogonalEdgeStyle;rounded=0;orthogonalLoop=1;jettySize=auto;html=1;exitX=1;exitY=0.5;exitDx=0;exitDy=0;fontSize=5;startArrow=classic;startFill=1;endArrow=none;endFill=0;startSize=3;endSize=3;entryX=1;entryY=0.5;entryDx=0;entryDy=0;" parent="eboJwfwgzQ0K-ukfMv3k-1" target="eboJwfwgzQ0K-ukfMv3k-12" edge="1">
          <mxGeometry relative="1" as="geometry">
            <mxPoint x="175" y="145.9230769230769" as="sourcePoint" />
          </mxGeometry>
        </mxCell>
        <mxCell id="eboJwfwgzQ0K-ukfMv3k-13" style="edgeStyle=orthogonalEdgeStyle;rounded=0;orthogonalLoop=1;jettySize=auto;html=1;exitX=1;exitY=0.5;exitDx=0;exitDy=0;fontSize=5;startArrow=classic;startFill=1;endArrow=none;endFill=0;startSize=3;endSize=3;entryX=1;entryY=0.5;entryDx=0;entryDy=0;" parent="eboJwfwgzQ0K-ukfMv3k-1" target="eboJwfwgzQ0K-ukfMv3k-14" edge="1">
          <mxGeometry relative="1" as="geometry">
            <mxPoint x="175" y="165.9230769230769" as="sourcePoint" />
          </mxGeometry>
        </mxCell>
        <mxCell id="eboJwfwgzQ0K-ukfMv3k-15" style="edgeStyle=orthogonalEdgeStyle;rounded=0;orthogonalLoop=1;jettySize=auto;html=1;exitX=1;exitY=0.5;exitDx=0;exitDy=0;fontSize=5;startArrow=classic;startFill=1;endArrow=none;endFill=0;startSize=3;endSize=3;entryX=1;entryY=0.5;entryDx=0;entryDy=0;" parent="eboJwfwgzQ0K-ukfMv3k-1" target="eboJwfwgzQ0K-ukfMv3k-16" edge="1">
          <mxGeometry relative="1" as="geometry">
            <mxPoint x="175" y="185.9230769230769" as="sourcePoint" />
          </mxGeometry>
        </mxCell>
        <mxCell id="eboJwfwgzQ0K-ukfMv3k-40" value="3" style="endArrow=none;html=1;rounded=0;fontSize=6;startSize=6;strokeWidth=1;jumpSize=5;labelBackgroundColor=none;" parent="eboJwfwgzQ0K-ukfMv3k-1" edge="1">
          <mxGeometry x="0.5" y="5" width="50" height="50" relative="1" as="geometry">
            <mxPoint x="145" y="129" as="sourcePoint" />
            <mxPoint x="150" y="124" as="targetPoint" />
            <mxPoint as="offset" />
          </mxGeometry>
        </mxCell>
        <mxCell id="eboJwfwgzQ0K-ukfMv3k-41" value="3" style="endArrow=none;html=1;rounded=0;fontSize=6;startSize=6;strokeWidth=1;jumpSize=5;labelBackgroundColor=none;" parent="eboJwfwgzQ0K-ukfMv3k-1" edge="1">
          <mxGeometry x="0.5" y="5" width="50" height="50" relative="1" as="geometry">
            <mxPoint x="145" y="148.5" as="sourcePoint" />
            <mxPoint x="150" y="143.5" as="targetPoint" />
            <mxPoint as="offset" />
          </mxGeometry>
        </mxCell>
        <mxCell id="eboJwfwgzQ0K-ukfMv3k-44" value="" style="group" parent="eboJwfwgzQ0K-ukfMv3k-1" vertex="1" connectable="0">
          <mxGeometry x="-66" y="235" width="100" height="100.5" as="geometry" />
        </mxCell>
        <mxCell id="eboJwfwgzQ0K-ukfMv3k-45" value="BRAM" style="shape=process;whiteSpace=wrap;html=1;backgroundOutline=1;fontSize=9;strokeColor=#d6b656;fillColor=#fff2cc;size=0;fontStyle=1;verticalAlign=middle;" parent="eboJwfwgzQ0K-ukfMv3k-44" vertex="1">
          <mxGeometry y="5.5" width="100" height="90" as="geometry" />
        </mxCell>
        <mxCell id="eboJwfwgzQ0K-ukfMv3k-46" value="DO" style="text;html=1;strokeColor=none;fillColor=none;align=right;verticalAlign=middle;whiteSpace=wrap;rounded=0;fontSize=7;" parent="eboJwfwgzQ0K-ukfMv3k-44" vertex="1">
          <mxGeometry x="80" y="40.5" width="20" height="20" as="geometry" />
        </mxCell>
        <mxCell id="eboJwfwgzQ0K-ukfMv3k-47" value="ADDR" style="text;html=1;strokeColor=none;fillColor=none;align=left;verticalAlign=middle;whiteSpace=wrap;rounded=0;fontSize=7;" parent="eboJwfwgzQ0K-ukfMv3k-44" vertex="1">
          <mxGeometry y="45.5" width="20" height="20" as="geometry" />
        </mxCell>
        <mxCell id="eboJwfwgzQ0K-ukfMv3k-48" value="CLK" style="text;html=1;strokeColor=none;fillColor=none;align=left;verticalAlign=middle;whiteSpace=wrap;rounded=0;fontSize=7;" parent="eboJwfwgzQ0K-ukfMv3k-44" vertex="1">
          <mxGeometry x="10" y="25.5" width="20" height="20" as="geometry" />
        </mxCell>
        <mxCell id="eboJwfwgzQ0K-ukfMv3k-49" value="DI" style="text;html=1;strokeColor=none;fillColor=none;align=left;verticalAlign=middle;whiteSpace=wrap;rounded=0;fontSize=7;" parent="eboJwfwgzQ0K-ukfMv3k-44" vertex="1">
          <mxGeometry y="65.5" width="20" height="20" as="geometry" />
        </mxCell>
        <mxCell id="eboJwfwgzQ0K-ukfMv3k-50" value="EN" style="text;html=1;strokeColor=none;fillColor=none;align=left;verticalAlign=middle;whiteSpace=wrap;rounded=0;fontSize=7;" parent="eboJwfwgzQ0K-ukfMv3k-44" vertex="1">
          <mxGeometry x="20" y="5" width="20" height="15.5" as="geometry" />
        </mxCell>
        <mxCell id="eboJwfwgzQ0K-ukfMv3k-51" value="REGCE" style="text;html=1;strokeColor=none;fillColor=none;align=left;verticalAlign=middle;whiteSpace=wrap;rounded=0;fontSize=7;" parent="eboJwfwgzQ0K-ukfMv3k-44" vertex="1">
          <mxGeometry x="60" y="5" width="20" height="15" as="geometry" />
        </mxCell>
        <mxCell id="eboJwfwgzQ0K-ukfMv3k-52" value="RST" style="text;html=1;strokeColor=none;fillColor=none;align=left;verticalAlign=middle;whiteSpace=wrap;rounded=0;fontSize=7;" parent="eboJwfwgzQ0K-ukfMv3k-44" vertex="1">
          <mxGeometry x="40" y="80.5" width="20" height="20" as="geometry" />
        </mxCell>
        <mxCell id="eboJwfwgzQ0K-ukfMv3k-53" value="WE" style="text;html=1;strokeColor=none;fillColor=none;align=left;verticalAlign=middle;whiteSpace=wrap;rounded=0;fontSize=7;" parent="eboJwfwgzQ0K-ukfMv3k-44" vertex="1">
          <mxGeometry x="40" y="5" width="20" height="15.5" as="geometry" />
        </mxCell>
        <mxCell id="eboJwfwgzQ0K-ukfMv3k-54" value="" style="triangle;whiteSpace=wrap;html=1;fontSize=9;fillColor=#ffe6cc;strokeColor=#d79b00;" parent="eboJwfwgzQ0K-ukfMv3k-44" vertex="1">
          <mxGeometry y="30.5" width="10" height="10" as="geometry" />
        </mxCell>
        <mxCell id="eboJwfwgzQ0K-ukfMv3k-55" value="" style="group" parent="eboJwfwgzQ0K-ukfMv3k-1" vertex="1" connectable="0">
          <mxGeometry x="-66" y="355.5" width="100" height="100.5" as="geometry" />
        </mxCell>
        <mxCell id="eboJwfwgzQ0K-ukfMv3k-63" value="RST" style="text;html=1;strokeColor=none;fillColor=none;align=left;verticalAlign=middle;whiteSpace=wrap;rounded=0;fontSize=7;" parent="eboJwfwgzQ0K-ukfMv3k-55" vertex="1">
          <mxGeometry x="40" y="80.5" width="20" height="20" as="geometry" />
        </mxCell>
        <mxCell id="ReqildVVERc5ANtARuIc-3" value="" style="group" parent="eboJwfwgzQ0K-ukfMv3k-55" vertex="1" connectable="0">
          <mxGeometry y="5" width="100" height="90.5" as="geometry" />
        </mxCell>
        <mxCell id="eboJwfwgzQ0K-ukfMv3k-56" value="BRAM" style="shape=process;whiteSpace=wrap;html=1;backgroundOutline=1;fontSize=9;strokeColor=#d6b656;fillColor=#fff2cc;size=0;fontStyle=1;verticalAlign=middle;" parent="ReqildVVERc5ANtARuIc-3" vertex="1">
          <mxGeometry y="0.5" width="100" height="90" as="geometry" />
        </mxCell>
        <mxCell id="eboJwfwgzQ0K-ukfMv3k-57" value="DO" style="text;html=1;strokeColor=none;fillColor=none;align=right;verticalAlign=middle;whiteSpace=wrap;rounded=0;fontSize=7;" parent="ReqildVVERc5ANtARuIc-3" vertex="1">
          <mxGeometry x="80" y="35.5" width="20" height="20" as="geometry" />
        </mxCell>
        <mxCell id="eboJwfwgzQ0K-ukfMv3k-58" value="ADDR" style="text;html=1;strokeColor=none;fillColor=none;align=left;verticalAlign=middle;whiteSpace=wrap;rounded=0;fontSize=7;" parent="ReqildVVERc5ANtARuIc-3" vertex="1">
          <mxGeometry y="40.5" width="20" height="20" as="geometry" />
        </mxCell>
        <mxCell id="eboJwfwgzQ0K-ukfMv3k-59" value="CLK" style="text;html=1;strokeColor=none;fillColor=none;align=left;verticalAlign=middle;whiteSpace=wrap;rounded=0;fontSize=7;" parent="ReqildVVERc5ANtARuIc-3" vertex="1">
          <mxGeometry x="10" y="20.5" width="20" height="20" as="geometry" />
        </mxCell>
        <mxCell id="eboJwfwgzQ0K-ukfMv3k-60" value="DI" style="text;html=1;strokeColor=none;fillColor=none;align=left;verticalAlign=middle;whiteSpace=wrap;rounded=0;fontSize=7;" parent="ReqildVVERc5ANtARuIc-3" vertex="1">
          <mxGeometry y="60.5" width="20" height="20" as="geometry" />
        </mxCell>
        <mxCell id="eboJwfwgzQ0K-ukfMv3k-61" value="EN" style="text;html=1;strokeColor=none;fillColor=none;align=left;verticalAlign=middle;whiteSpace=wrap;rounded=0;fontSize=7;" parent="ReqildVVERc5ANtARuIc-3" vertex="1">
          <mxGeometry x="20" width="20" height="15.5" as="geometry" />
        </mxCell>
        <mxCell id="eboJwfwgzQ0K-ukfMv3k-62" value="REGCE" style="text;html=1;strokeColor=none;fillColor=none;align=left;verticalAlign=middle;whiteSpace=wrap;rounded=0;fontSize=7;" parent="ReqildVVERc5ANtARuIc-3" vertex="1">
          <mxGeometry x="60" width="20" height="15" as="geometry" />
        </mxCell>
        <mxCell id="eboJwfwgzQ0K-ukfMv3k-64" value="WE" style="text;html=1;strokeColor=none;fillColor=none;align=left;verticalAlign=middle;whiteSpace=wrap;rounded=0;fontSize=7;" parent="ReqildVVERc5ANtARuIc-3" vertex="1">
          <mxGeometry x="40" width="20" height="15.5" as="geometry" />
        </mxCell>
        <mxCell id="eboJwfwgzQ0K-ukfMv3k-65" value="" style="triangle;whiteSpace=wrap;html=1;fontSize=9;fillColor=#ffe6cc;strokeColor=#d79b00;" parent="ReqildVVERc5ANtARuIc-3" vertex="1">
          <mxGeometry y="25.5" width="10" height="10" as="geometry" />
        </mxCell>
        <mxCell id="eboJwfwgzQ0K-ukfMv3k-66" style="edgeStyle=orthogonalEdgeStyle;rounded=0;orthogonalLoop=1;jettySize=auto;html=1;exitX=1;exitY=0.5;exitDx=0;exitDy=0;entryX=0;entryY=0.5;entryDx=0;entryDy=0;strokeWidth=1;endSize=4;endArrow=none;endFill=0;" parent="eboJwfwgzQ0K-ukfMv3k-1" source="eboJwfwgzQ0K-ukfMv3k-46" target="eboJwfwgzQ0K-ukfMv3k-107" edge="1">
          <mxGeometry relative="1" as="geometry">
            <mxPoint x="94.00499999999988" y="273.28250000000014" as="targetPoint" />
            <Array as="points">
              <mxPoint x="60" y="286" />
              <mxPoint x="60" y="465" />
              <mxPoint x="-331" y="465" />
              <mxPoint x="-331" y="284" />
              <mxPoint x="-305" y="284" />
            </Array>
          </mxGeometry>
        </mxCell>
        <mxCell id="eboJwfwgzQ0K-ukfMv3k-67" style="edgeStyle=orthogonalEdgeStyle;rounded=0;orthogonalLoop=1;jettySize=auto;html=1;exitX=1;exitY=0.5;exitDx=0;exitDy=0;entryX=-0.01;entryY=0.44;entryDx=0;entryDy=0;strokeWidth=1;endSize=4;entryPerimeter=0;endArrow=none;endFill=0;" parent="eboJwfwgzQ0K-ukfMv3k-1" source="eboJwfwgzQ0K-ukfMv3k-56" target="eboJwfwgzQ0K-ukfMv3k-108" edge="1">
          <mxGeometry relative="1" as="geometry">
            <mxPoint x="94" y="295" as="targetPoint" />
            <Array as="points">
              <mxPoint x="54" y="406" />
              <mxPoint x="54" y="460" />
              <mxPoint x="-325" y="460" />
              <mxPoint x="-325" y="304" />
              <mxPoint x="-305" y="304" />
            </Array>
          </mxGeometry>
        </mxCell>
        <mxCell id="eboJwfwgzQ0K-ukfMv3k-68" value="&lt;div&gt;&lt;br&gt;&lt;/div&gt;&lt;div&gt;&lt;br&gt;&lt;/div&gt;" style="edgeLabel;html=1;align=center;verticalAlign=middle;resizable=0;points=[];" parent="eboJwfwgzQ0K-ukfMv3k-67" vertex="1" connectable="0">
          <mxGeometry x="0.7691" y="-2" relative="1" as="geometry">
            <mxPoint as="offset" />
          </mxGeometry>
        </mxCell>
        <mxCell id="eboJwfwgzQ0K-ukfMv3k-70" value="Pixclk" style="text;html=1;strokeColor=none;fillColor=none;align=right;verticalAlign=middle;whiteSpace=wrap;rounded=0;fontSize=7;" parent="eboJwfwgzQ0K-ukfMv3k-1" vertex="1">
          <mxGeometry x="-475" y="105" width="35" height="20" as="geometry" />
        </mxCell>
        <mxCell id="eboJwfwgzQ0K-ukfMv3k-73" value="TMDS_clk" style="text;html=1;strokeColor=none;fillColor=none;align=left;verticalAlign=middle;whiteSpace=wrap;rounded=0;fontSize=7;" parent="eboJwfwgzQ0K-ukfMv3k-1" vertex="1">
          <mxGeometry x="-475" y="125" width="35" height="20" as="geometry" />
        </mxCell>
        <mxCell id="eboJwfwgzQ0K-ukfMv3k-76" style="edgeStyle=orthogonalEdgeStyle;rounded=0;orthogonalLoop=1;jettySize=auto;html=1;exitX=1;exitY=0.5;exitDx=0;exitDy=0;endArrow=none;endFill=0;endSize=3;strokeWidth=1;entryX=1;entryY=0.5;entryDx=0;entryDy=0;" parent="eboJwfwgzQ0K-ukfMv3k-1" source="eboJwfwgzQ0K-ukfMv3k-73" edge="1">
          <mxGeometry relative="1" as="geometry">
            <mxPoint x="-305" y="176" as="targetPoint" />
            <Array as="points">
              <mxPoint x="-345" y="135" />
              <mxPoint x="-345" y="176" />
            </Array>
            <mxPoint x="-419" y="100" as="sourcePoint" />
          </mxGeometry>
        </mxCell>
        <mxCell id="eboJwfwgzQ0K-ukfMv3k-85" style="edgeStyle=orthogonalEdgeStyle;rounded=0;orthogonalLoop=1;jettySize=auto;html=1;exitX=1;exitY=0.25;exitDx=0;exitDy=0;entryX=0;entryY=0.5;entryDx=0;entryDy=0;endArrow=none;endFill=0;endSize=3;strokeWidth=1;" parent="eboJwfwgzQ0K-ukfMv3k-1" source="eboJwfwgzQ0K-ukfMv3k-88" target="eboJwfwgzQ0K-ukfMv3k-103" edge="1">
          <mxGeometry relative="1" as="geometry" />
        </mxCell>
        <mxCell id="eboJwfwgzQ0K-ukfMv3k-86" style="edgeStyle=orthogonalEdgeStyle;rounded=0;orthogonalLoop=1;jettySize=auto;html=1;exitX=1;exitY=0.75;exitDx=0;exitDy=0;entryX=0;entryY=0.5;entryDx=0;entryDy=0;endArrow=none;endFill=0;endSize=3;strokeWidth=1;" parent="eboJwfwgzQ0K-ukfMv3k-1" source="eboJwfwgzQ0K-ukfMv3k-88" target="eboJwfwgzQ0K-ukfMv3k-104" edge="1">
          <mxGeometry relative="1" as="geometry" />
        </mxCell>
        <mxCell id="eboJwfwgzQ0K-ukfMv3k-87" style="edgeStyle=orthogonalEdgeStyle;rounded=0;orthogonalLoop=1;jettySize=auto;html=1;exitX=0;exitY=0.5;exitDx=0;exitDy=0;endArrow=none;endFill=0;entryX=1;entryY=0.5;entryDx=0;entryDy=0;" parent="eboJwfwgzQ0K-ukfMv3k-1" source="eboJwfwgzQ0K-ukfMv3k-88" edge="1">
          <mxGeometry relative="1" as="geometry">
            <mxPoint x="-435" y="247.72000000000003" as="targetPoint" />
          </mxGeometry>
        </mxCell>
        <mxCell id="eboJwfwgzQ0K-ukfMv3k-88" value="&lt;div&gt;&lt;b&gt;AXI_S&lt;/b&gt;&lt;/div&gt;" style="shape=process;whiteSpace=wrap;html=1;backgroundOutline=1;fontSize=9;strokeColor=#6c8ebf;fillColor=#dae8fc;size=0;verticalAlign=middle;" parent="eboJwfwgzQ0K-ukfMv3k-1" vertex="1">
          <mxGeometry x="-409" y="228" width="33" height="38.57" as="geometry" />
        </mxCell>
        <mxCell id="eboJwfwgzQ0K-ukfMv3k-89" style="edgeStyle=orthogonalEdgeStyle;rounded=0;orthogonalLoop=1;jettySize=auto;html=1;entryX=0;entryY=0.5;entryDx=0;entryDy=0;endArrow=none;endFill=0;endSize=3;strokeWidth=1;" parent="eboJwfwgzQ0K-ukfMv3k-1" source="eboJwfwgzQ0K-ukfMv3k-90" target="eboJwfwgzQ0K-ukfMv3k-105" edge="1">
          <mxGeometry relative="1" as="geometry" />
        </mxCell>
        <mxCell id="eboJwfwgzQ0K-ukfMv3k-90" value="ADCVal" style="text;html=1;strokeColor=none;fillColor=none;align=right;verticalAlign=middle;whiteSpace=wrap;rounded=0;fontSize=7;" parent="eboJwfwgzQ0K-ukfMv3k-1" vertex="1">
          <mxGeometry x="-475" y="207" width="35" height="20" as="geometry" />
        </mxCell>
        <mxCell id="eboJwfwgzQ0K-ukfMv3k-115" value="AXI-Lite" style="text;html=1;strokeColor=none;fillColor=none;align=right;verticalAlign=middle;whiteSpace=wrap;rounded=0;fontSize=7;" parent="eboJwfwgzQ0K-ukfMv3k-1" vertex="1">
          <mxGeometry x="-475" y="237.72" width="35" height="20" as="geometry" />
        </mxCell>
        <mxCell id="eboJwfwgzQ0K-ukfMv3k-119" value="19" style="endArrow=none;html=1;rounded=0;fontSize=6;startSize=6;strokeWidth=1;jumpSize=5;labelBackgroundColor=none;" parent="eboJwfwgzQ0K-ukfMv3k-1" edge="1">
          <mxGeometry x="1" y="7" width="50" height="50" relative="1" as="geometry">
            <mxPoint x="-139.99999999999977" y="298.5" as="sourcePoint" />
            <mxPoint x="-134.99999999999977" y="288.5" as="targetPoint" />
            <mxPoint x="1" y="-2" as="offset" />
          </mxGeometry>
        </mxCell>
        <mxCell id="eboJwfwgzQ0K-ukfMv3k-120" value="19" style="endArrow=none;html=1;rounded=0;fontSize=6;startSize=6;strokeWidth=1;jumpSize=5;labelBackgroundColor=none;" parent="eboJwfwgzQ0K-ukfMv3k-1" edge="1">
          <mxGeometry x="1" y="7" width="50" height="50" relative="1" as="geometry">
            <mxPoint x="-139.9999999999999" y="260" as="sourcePoint" />
            <mxPoint x="-134.9999999999999" y="250" as="targetPoint" />
            <mxPoint x="1" y="-2" as="offset" />
          </mxGeometry>
        </mxCell>
        <mxCell id="eboJwfwgzQ0K-ukfMv3k-121" value="24" style="endArrow=none;html=1;rounded=0;fontSize=6;startSize=6;strokeWidth=1;jumpSize=5;labelBackgroundColor=none;" parent="eboJwfwgzQ0K-ukfMv3k-1" edge="1">
          <mxGeometry x="1" y="7" width="50" height="50" relative="1" as="geometry">
            <mxPoint x="-99.99999999999989" y="220" as="sourcePoint" />
            <mxPoint x="-94.99999999999989" y="210" as="targetPoint" />
            <mxPoint x="1" y="-2" as="offset" />
          </mxGeometry>
        </mxCell>
        <mxCell id="ReqildVVERc5ANtARuIc-9" style="edgeStyle=orthogonalEdgeStyle;rounded=0;orthogonalLoop=1;jettySize=auto;html=1;exitX=1;exitY=0.5;exitDx=0;exitDy=0;entryX=0;entryY=0.5;entryDx=0;entryDy=0;endSize=3;" parent="eboJwfwgzQ0K-ukfMv3k-1" source="eboJwfwgzQ0K-ukfMv3k-34" target="eboJwfwgzQ0K-ukfMv3k-31" edge="1">
          <mxGeometry relative="1" as="geometry" />
        </mxCell>
        <mxCell id="eboJwfwgzQ0K-ukfMv3k-34" value="vSync" style="text;html=1;strokeColor=none;fillColor=none;align=right;verticalAlign=middle;whiteSpace=wrap;rounded=0;fontSize=7;" parent="eboJwfwgzQ0K-ukfMv3k-1" vertex="1">
          <mxGeometry x="-200" y="185" width="20" height="20" as="geometry" />
        </mxCell>
        <mxCell id="ReqildVVERc5ANtARuIc-8" style="edgeStyle=orthogonalEdgeStyle;rounded=0;orthogonalLoop=1;jettySize=auto;html=1;exitX=1;exitY=0.5;exitDx=0;exitDy=0;entryX=0;entryY=0.5;entryDx=0;entryDy=0;endSize=3;" parent="eboJwfwgzQ0K-ukfMv3k-1" source="eboJwfwgzQ0K-ukfMv3k-37" target="eboJwfwgzQ0K-ukfMv3k-32" edge="1">
          <mxGeometry relative="1" as="geometry" />
        </mxCell>
        <mxCell id="eboJwfwgzQ0K-ukfMv3k-37" value="hSync" style="text;html=1;strokeColor=none;fillColor=none;align=right;verticalAlign=middle;whiteSpace=wrap;rounded=0;fontSize=7;" parent="eboJwfwgzQ0K-ukfMv3k-1" vertex="1">
          <mxGeometry x="-200" y="165" width="20" height="20" as="geometry" />
        </mxCell>
        <mxCell id="ReqildVVERc5ANtARuIc-7" style="edgeStyle=orthogonalEdgeStyle;rounded=0;orthogonalLoop=1;jettySize=auto;html=1;exitX=1;exitY=0.5;exitDx=0;exitDy=0;entryX=0;entryY=0.5;entryDx=0;entryDy=0;endSize=3;" parent="eboJwfwgzQ0K-ukfMv3k-1" source="eboJwfwgzQ0K-ukfMv3k-39" target="eboJwfwgzQ0K-ukfMv3k-35" edge="1">
          <mxGeometry relative="1" as="geometry" />
        </mxCell>
        <mxCell id="eboJwfwgzQ0K-ukfMv3k-39" value="VDEn" style="text;html=1;strokeColor=none;fillColor=none;align=left;verticalAlign=middle;whiteSpace=wrap;rounded=0;fontSize=7;" parent="eboJwfwgzQ0K-ukfMv3k-1" vertex="1">
          <mxGeometry x="-200" y="145" width="20" height="20" as="geometry" />
        </mxCell>
        <mxCell id="ReqildVVERc5ANtARuIc-1" value="" style="group" parent="eboJwfwgzQ0K-ukfMv3k-1" vertex="1" connectable="0">
          <mxGeometry x="-10" y="105" width="130" height="120" as="geometry" />
        </mxCell>
        <mxCell id="eboJwfwgzQ0K-ukfMv3k-7" value="&lt;div&gt;&lt;b&gt;HDMI&lt;/b&gt;&lt;/div&gt;&lt;div&gt;&lt;b&gt;Interface&lt;/b&gt;&lt;br&gt;&lt;/div&gt;" style="shape=process;whiteSpace=wrap;html=1;backgroundOutline=1;fontSize=9;strokeColor=#d6b656;fillColor=#fff2cc;size=0;" parent="ReqildVVERc5ANtARuIc-1" vertex="1">
          <mxGeometry width="130" height="120" as="geometry" />
        </mxCell>
        <mxCell id="eboJwfwgzQ0K-ukfMv3k-10" value="TMDSp" style="text;html=1;strokeColor=none;fillColor=none;align=right;verticalAlign=middle;whiteSpace=wrap;rounded=0;fontSize=7;" parent="ReqildVVERc5ANtARuIc-1" vertex="1">
          <mxGeometry x="110" y="11" width="20" height="20" as="geometry" />
        </mxCell>
        <mxCell id="eboJwfwgzQ0K-ukfMv3k-12" value="TMDSn" style="text;html=1;strokeColor=none;fillColor=none;align=right;verticalAlign=middle;whiteSpace=wrap;rounded=0;fontSize=7;" parent="ReqildVVERc5ANtARuIc-1" vertex="1">
          <mxGeometry x="110" y="31" width="20" height="20" as="geometry" />
        </mxCell>
        <mxCell id="eboJwfwgzQ0K-ukfMv3k-14" value="TMDSp_clk" style="text;html=1;strokeColor=none;fillColor=none;align=right;verticalAlign=middle;whiteSpace=wrap;rounded=0;fontSize=7;" parent="ReqildVVERc5ANtARuIc-1" vertex="1">
          <mxGeometry x="110" y="51" width="20" height="20" as="geometry" />
        </mxCell>
        <mxCell id="eboJwfwgzQ0K-ukfMv3k-16" value="TMDSn_clk" style="text;html=1;strokeColor=none;fillColor=none;align=right;verticalAlign=middle;whiteSpace=wrap;rounded=0;fontSize=7;" parent="ReqildVVERc5ANtARuIc-1" vertex="1">
          <mxGeometry x="110" y="71" width="20" height="20" as="geometry" />
        </mxCell>
        <mxCell id="eboJwfwgzQ0K-ukfMv3k-19" value="TMDS_clk" style="text;html=1;strokeColor=none;fillColor=none;align=left;verticalAlign=middle;whiteSpace=wrap;rounded=0;fontSize=7;" parent="ReqildVVERc5ANtARuIc-1" vertex="1">
          <mxGeometry y="20.5" width="20" height="20" as="geometry" />
        </mxCell>
        <mxCell id="eboJwfwgzQ0K-ukfMv3k-20" value="Pixclk" style="text;html=1;strokeColor=none;fillColor=none;align=left;verticalAlign=middle;whiteSpace=wrap;rounded=0;fontSize=7;" parent="ReqildVVERc5ANtARuIc-1" vertex="1">
          <mxGeometry width="20" height="20" as="geometry" />
        </mxCell>
        <mxCell id="eboJwfwgzQ0K-ukfMv3k-31" value="vSync" style="text;html=1;strokeColor=none;fillColor=none;align=left;verticalAlign=middle;whiteSpace=wrap;rounded=0;fontSize=7;" parent="ReqildVVERc5ANtARuIc-1" vertex="1">
          <mxGeometry y="80" width="20" height="20" as="geometry" />
        </mxCell>
        <mxCell id="eboJwfwgzQ0K-ukfMv3k-32" value="hSync" style="text;html=1;strokeColor=none;fillColor=none;align=left;verticalAlign=middle;whiteSpace=wrap;rounded=0;fontSize=7;" parent="ReqildVVERc5ANtARuIc-1" vertex="1">
          <mxGeometry y="60" width="20" height="20" as="geometry" />
        </mxCell>
        <mxCell id="eboJwfwgzQ0K-ukfMv3k-35" value="VDEn" style="text;html=1;strokeColor=none;fillColor=none;align=left;verticalAlign=middle;whiteSpace=wrap;rounded=0;fontSize=7;" parent="ReqildVVERc5ANtARuIc-1" vertex="1">
          <mxGeometry y="40" width="20" height="20" as="geometry" />
        </mxCell>
        <mxCell id="ReqildVVERc5ANtARuIc-0" value="Pixel" style="text;html=1;strokeColor=none;fillColor=none;align=left;verticalAlign=middle;whiteSpace=wrap;rounded=0;fontSize=7;" parent="ReqildVVERc5ANtARuIc-1" vertex="1">
          <mxGeometry y="100" width="20" height="20" as="geometry" />
        </mxCell>
        <mxCell id="ReqildVVERc5ANtARuIc-12" style="edgeStyle=orthogonalEdgeStyle;rounded=0;orthogonalLoop=1;jettySize=auto;html=1;exitX=1;exitY=0.5;exitDx=0;exitDy=0;entryX=0;entryY=0.5;entryDx=0;entryDy=0;endSize=3;" parent="eboJwfwgzQ0K-ukfMv3k-1" source="eboJwfwgzQ0K-ukfMv3k-98" target="eboJwfwgzQ0K-ukfMv3k-47" edge="1">
          <mxGeometry relative="1" as="geometry">
            <Array as="points">
              <mxPoint x="-100" y="255" />
              <mxPoint x="-100" y="291" />
            </Array>
          </mxGeometry>
        </mxCell>
        <mxCell id="eboJwfwgzQ0K-ukfMv3k-98" value="&lt;div&gt;addrB0&lt;/div&gt;" style="text;html=1;strokeColor=none;fillColor=none;align=right;verticalAlign=middle;whiteSpace=wrap;rounded=0;fontSize=7;" parent="eboJwfwgzQ0K-ukfMv3k-1" vertex="1">
          <mxGeometry x="-205" y="245" width="25" height="20" as="geometry" />
        </mxCell>
        <mxCell id="eboJwfwgzQ0K-ukfMv3k-100" value="&lt;div&gt;TMDS_clk&lt;/div&gt;" style="text;html=1;strokeColor=none;fillColor=none;align=left;verticalAlign=middle;whiteSpace=wrap;rounded=0;fontSize=7;" parent="eboJwfwgzQ0K-ukfMv3k-1" vertex="1">
          <mxGeometry x="-305" y="165" width="48.400000000000006" height="20" as="geometry" />
        </mxCell>
        <mxCell id="ReqildVVERc5ANtARuIc-14" style="edgeStyle=orthogonalEdgeStyle;rounded=0;orthogonalLoop=1;jettySize=auto;html=1;exitX=1;exitY=0.5;exitDx=0;exitDy=0;entryX=0;entryY=0.5;entryDx=0;entryDy=0;endSize=3;" parent="eboJwfwgzQ0K-ukfMv3k-1" source="eboJwfwgzQ0K-ukfMv3k-102" target="eboJwfwgzQ0K-ukfMv3k-49" edge="1">
          <mxGeometry relative="1" as="geometry" />
        </mxCell>
        <mxCell id="eboJwfwgzQ0K-ukfMv3k-102" value="WD" style="text;html=1;strokeColor=none;fillColor=none;align=right;verticalAlign=middle;whiteSpace=wrap;rounded=0;fontSize=7;" parent="eboJwfwgzQ0K-ukfMv3k-1" vertex="1">
          <mxGeometry x="-204.2" y="303.5" width="24.200000000000003" height="15" as="geometry" />
        </mxCell>
        <mxCell id="eboJwfwgzQ0K-ukfMv3k-103" value="Width" style="text;html=1;strokeColor=none;fillColor=none;align=left;verticalAlign=middle;whiteSpace=wrap;rounded=0;fontSize=7;" parent="eboJwfwgzQ0K-ukfMv3k-1" vertex="1">
          <mxGeometry x="-305" y="227" width="24.200000000000003" height="20" as="geometry" />
        </mxCell>
        <mxCell id="eboJwfwgzQ0K-ukfMv3k-104" value="Height" style="text;html=1;strokeColor=none;fillColor=none;align=left;verticalAlign=middle;whiteSpace=wrap;rounded=0;fontSize=7;" parent="eboJwfwgzQ0K-ukfMv3k-1" vertex="1">
          <mxGeometry x="-305" y="247" width="24.200000000000003" height="20" as="geometry" />
        </mxCell>
        <mxCell id="eboJwfwgzQ0K-ukfMv3k-105" value="val" style="text;html=1;strokeColor=none;fillColor=none;align=left;verticalAlign=middle;whiteSpace=wrap;rounded=0;fontSize=7;" parent="eboJwfwgzQ0K-ukfMv3k-1" vertex="1">
          <mxGeometry x="-305" y="207" width="24.200000000000003" height="20" as="geometry" />
        </mxCell>
        <mxCell id="eboJwfwgzQ0K-ukfMv3k-107" value="RD0" style="text;html=1;strokeColor=none;fillColor=none;align=left;verticalAlign=middle;whiteSpace=wrap;rounded=0;fontSize=7;" parent="eboJwfwgzQ0K-ukfMv3k-1" vertex="1">
          <mxGeometry x="-305" y="273.5" width="24.200000000000003" height="20" as="geometry" />
        </mxCell>
        <mxCell id="eboJwfwgzQ0K-ukfMv3k-108" value="RD1" style="text;html=1;strokeColor=none;fillColor=none;align=left;verticalAlign=middle;whiteSpace=wrap;rounded=0;fontSize=7;" parent="eboJwfwgzQ0K-ukfMv3k-1" vertex="1">
          <mxGeometry x="-305" y="293.5" width="24.200000000000003" height="20" as="geometry" />
        </mxCell>
        <mxCell id="ReqildVVERc5ANtARuIc-13" style="edgeStyle=orthogonalEdgeStyle;rounded=0;orthogonalLoop=1;jettySize=auto;html=1;exitX=1;exitY=0.5;exitDx=0;exitDy=0;entryX=0;entryY=0.5;entryDx=0;entryDy=0;endSize=3;" parent="eboJwfwgzQ0K-ukfMv3k-1" source="eboJwfwgzQ0K-ukfMv3k-109" target="eboJwfwgzQ0K-ukfMv3k-58" edge="1">
          <mxGeometry relative="1" as="geometry">
            <Array as="points">
              <mxPoint x="-110" y="294" />
              <mxPoint x="-110" y="411" />
            </Array>
          </mxGeometry>
        </mxCell>
        <mxCell id="eboJwfwgzQ0K-ukfMv3k-109" value="&lt;div&gt;addrB1&lt;/div&gt;" style="text;html=1;strokeColor=none;fillColor=none;align=right;verticalAlign=middle;whiteSpace=wrap;rounded=0;fontSize=7;" parent="eboJwfwgzQ0K-ukfMv3k-1" vertex="1">
          <mxGeometry x="-205" y="283.5" width="25" height="20" as="geometry" />
        </mxCell>
        <mxCell id="ReqildVVERc5ANtARuIc-11" style="edgeStyle=orthogonalEdgeStyle;rounded=0;orthogonalLoop=1;jettySize=auto;html=1;exitX=1;exitY=0.5;exitDx=0;exitDy=0;entryX=0.25;entryY=0;entryDx=0;entryDy=0;endSize=3;" parent="eboJwfwgzQ0K-ukfMv3k-1" source="eboJwfwgzQ0K-ukfMv3k-110" target="eboJwfwgzQ0K-ukfMv3k-53" edge="1">
          <mxGeometry relative="1" as="geometry">
            <Array as="points">
              <mxPoint x="-21" y="235" />
            </Array>
          </mxGeometry>
        </mxCell>
        <mxCell id="eboJwfwgzQ0K-ukfMv3k-110" value="&lt;div&gt;WE0&lt;/div&gt;" style="text;html=1;strokeColor=none;fillColor=none;align=right;verticalAlign=middle;whiteSpace=wrap;rounded=0;fontSize=7;" parent="eboJwfwgzQ0K-ukfMv3k-1" vertex="1">
          <mxGeometry x="-200" y="225" width="20" height="20" as="geometry" />
        </mxCell>
        <mxCell id="ReqildVVERc5ANtARuIc-16" style="edgeStyle=orthogonalEdgeStyle;rounded=0;orthogonalLoop=1;jettySize=auto;html=1;exitX=1;exitY=0.5;exitDx=0;exitDy=0;entryX=0.5;entryY=0;entryDx=0;entryDy=0;endSize=3;" parent="eboJwfwgzQ0K-ukfMv3k-1" source="eboJwfwgzQ0K-ukfMv3k-111" target="eboJwfwgzQ0K-ukfMv3k-64" edge="1">
          <mxGeometry relative="1" as="geometry">
            <Array as="points">
              <mxPoint x="-105" y="274" />
              <mxPoint x="-105" y="355" />
              <mxPoint x="-16" y="355" />
            </Array>
          </mxGeometry>
        </mxCell>
        <mxCell id="eboJwfwgzQ0K-ukfMv3k-111" value="&lt;div&gt;WE1&lt;/div&gt;" style="text;html=1;strokeColor=none;fillColor=none;align=right;verticalAlign=middle;whiteSpace=wrap;rounded=0;fontSize=7;" parent="eboJwfwgzQ0K-ukfMv3k-1" vertex="1">
          <mxGeometry x="-205" y="263.5" width="25" height="20" as="geometry" />
        </mxCell>
        <mxCell id="ReqildVVERc5ANtARuIc-10" style="edgeStyle=orthogonalEdgeStyle;rounded=0;orthogonalLoop=1;jettySize=auto;html=1;exitX=1;exitY=0.5;exitDx=0;exitDy=0;entryX=0;entryY=0.5;entryDx=0;entryDy=0;endSize=3;" parent="eboJwfwgzQ0K-ukfMv3k-1" source="eboJwfwgzQ0K-ukfMv3k-112" target="ReqildVVERc5ANtARuIc-0" edge="1">
          <mxGeometry relative="1" as="geometry" />
        </mxCell>
        <mxCell id="eboJwfwgzQ0K-ukfMv3k-112" value="Pixel" style="text;html=1;strokeColor=none;fillColor=none;align=right;verticalAlign=middle;whiteSpace=wrap;rounded=0;fontSize=7;" parent="eboJwfwgzQ0K-ukfMv3k-1" vertex="1">
          <mxGeometry x="-205" y="205" width="25" height="20" as="geometry" />
        </mxCell>
        <mxCell id="ReqildVVERc5ANtARuIc-15" style="edgeStyle=orthogonalEdgeStyle;rounded=0;orthogonalLoop=1;jettySize=auto;html=1;exitX=0;exitY=0.5;exitDx=0;exitDy=0;entryX=0;entryY=0.5;entryDx=0;entryDy=0;endSize=3;" parent="eboJwfwgzQ0K-ukfMv3k-1" target="eboJwfwgzQ0K-ukfMv3k-60" edge="1">
          <mxGeometry relative="1" as="geometry">
            <mxPoint x="-90" y="310" as="sourcePoint" />
            <Array as="points">
              <mxPoint x="-90" y="431" />
            </Array>
          </mxGeometry>
        </mxCell>
        <mxCell id="ReqildVVERc5ANtARuIc-17" style="edgeStyle=orthogonalEdgeStyle;rounded=0;orthogonalLoop=1;jettySize=auto;html=1;endSize=3;entryX=0;entryY=0.5;entryDx=0;entryDy=0;" parent="eboJwfwgzQ0K-ukfMv3k-1" source="eboJwfwgzQ0K-ukfMv3k-73" target="eboJwfwgzQ0K-ukfMv3k-19" edge="1">
          <mxGeometry relative="1" as="geometry" />
        </mxCell>
        <mxCell id="ReqildVVERc5ANtARuIc-18" style="edgeStyle=orthogonalEdgeStyle;rounded=0;orthogonalLoop=1;jettySize=auto;html=1;exitX=1;exitY=0.5;exitDx=0;exitDy=0;entryX=0;entryY=0.5;entryDx=0;entryDy=0;endSize=3;" parent="eboJwfwgzQ0K-ukfMv3k-1" source="eboJwfwgzQ0K-ukfMv3k-70" target="eboJwfwgzQ0K-ukfMv3k-20" edge="1">
          <mxGeometry relative="1" as="geometry" />
        </mxCell>
        <mxCell id="ReqildVVERc5ANtARuIc-19" value="32" style="endArrow=none;html=1;rounded=0;fontSize=6;startSize=6;strokeWidth=1;jumpSize=5;labelBackgroundColor=none;" parent="eboJwfwgzQ0K-ukfMv3k-1" edge="1">
          <mxGeometry x="1" y="7" width="50" height="50" relative="1" as="geometry">
            <mxPoint x="-344.9999999999998" y="262" as="sourcePoint" />
            <mxPoint x="-339.9999999999998" y="252" as="targetPoint" />
            <mxPoint x="1" y="-2" as="offset" />
          </mxGeometry>
        </mxCell>
        <mxCell id="ReqildVVERc5ANtARuIc-20" value="32" style="endArrow=none;html=1;rounded=0;fontSize=6;startSize=6;strokeWidth=1;jumpSize=5;labelBackgroundColor=none;" parent="eboJwfwgzQ0K-ukfMv3k-1" edge="1">
          <mxGeometry x="1" y="7" width="50" height="50" relative="1" as="geometry">
            <mxPoint x="-344.9999999999998" y="242" as="sourcePoint" />
            <mxPoint x="-339.9999999999998" y="232" as="targetPoint" />
            <mxPoint x="1" y="-2" as="offset" />
          </mxGeometry>
        </mxCell>
        <mxCell id="ReqildVVERc5ANtARuIc-21" value="12" style="endArrow=none;html=1;rounded=0;fontSize=6;startSize=6;strokeWidth=1;jumpSize=5;labelBackgroundColor=none;" parent="eboJwfwgzQ0K-ukfMv3k-1" edge="1">
          <mxGeometry x="1" y="7" width="50" height="50" relative="1" as="geometry">
            <mxPoint x="-364.9999999999998" y="222" as="sourcePoint" />
            <mxPoint x="-359.9999999999998" y="212" as="targetPoint" />
            <mxPoint x="1" y="-2" as="offset" />
          </mxGeometry>
        </mxCell>
        <mxCell id="ReqildVVERc5ANtARuIc-39" style="edgeStyle=orthogonalEdgeStyle;rounded=0;orthogonalLoop=1;jettySize=auto;html=1;exitX=0;exitY=0.5;exitDx=0;exitDy=0;endSize=3;entryX=0;entryY=0.5;entryDx=0;entryDy=0;endArrow=none;endFill=0;" parent="eboJwfwgzQ0K-ukfMv3k-1" target="ReqildVVERc5ANtARuIc-38" edge="1">
          <mxGeometry relative="1" as="geometry">
            <mxPoint x="-350" y="115" as="sourcePoint" />
            <Array as="points">
              <mxPoint x="-350" y="195" />
            </Array>
          </mxGeometry>
        </mxCell>
        <mxCell id="ReqildVVERc5ANtARuIc-38" value="Pixclk" style="text;html=1;strokeColor=none;fillColor=none;align=left;verticalAlign=middle;whiteSpace=wrap;rounded=0;fontSize=7;" parent="eboJwfwgzQ0K-ukfMv3k-1" vertex="1">
          <mxGeometry x="-305" y="185" width="48.400000000000006" height="20" as="geometry" />
        </mxCell>
      </root>
    </mxGraphModel>
  </diagram>
  <diagram name="Filters_IP" id="_ZlddUjoe1pmwm9zd2yZ">
    <mxGraphModel dx="2200" dy="793" grid="1" gridSize="5" guides="1" tooltips="1" connect="1" arrows="1" fold="1" page="1" pageScale="1" pageWidth="850" pageHeight="1100" math="0" shadow="0">
      <root>
        <mxCell id="2BGxexyMWsaTjnRBS6L6-0" />
        <mxCell id="2BGxexyMWsaTjnRBS6L6-1" parent="2BGxexyMWsaTjnRBS6L6-0" />
        <mxCell id="Wk4sJEK-bcK-ollA5JWG-11" value="" style="group" parent="2BGxexyMWsaTjnRBS6L6-1" vertex="1" connectable="0">
          <mxGeometry x="150" y="160" width="130" height="140" as="geometry" />
        </mxCell>
        <mxCell id="2BGxexyMWsaTjnRBS6L6-56" value="&lt;b&gt;Filter&lt;/b&gt;" style="shape=process;whiteSpace=wrap;html=1;backgroundOutline=1;fontSize=9;strokeColor=#d6b656;fillColor=#fff2cc;size=0;" parent="Wk4sJEK-bcK-ollA5JWG-11" vertex="1">
          <mxGeometry width="130" height="140" as="geometry" />
        </mxCell>
        <mxCell id="2BGxexyMWsaTjnRBS6L6-61" value="Start" style="text;html=1;strokeColor=none;fillColor=none;align=left;verticalAlign=middle;whiteSpace=wrap;rounded=0;fontSize=7;" parent="Wk4sJEK-bcK-ollA5JWG-11" vertex="1">
          <mxGeometry y="40" width="20" height="20" as="geometry" />
        </mxCell>
        <mxCell id="2BGxexyMWsaTjnRBS6L6-62" value="Clk" style="text;html=1;strokeColor=none;fillColor=none;align=left;verticalAlign=middle;whiteSpace=wrap;rounded=0;fontSize=7;" parent="Wk4sJEK-bcK-ollA5JWG-11" vertex="1">
          <mxGeometry width="20" height="20" as="geometry" />
        </mxCell>
        <mxCell id="2BGxexyMWsaTjnRBS6L6-63" value="x_coef" style="text;html=1;strokeColor=none;fillColor=none;align=left;verticalAlign=middle;whiteSpace=wrap;rounded=0;fontSize=7;" parent="Wk4sJEK-bcK-ollA5JWG-11" vertex="1">
          <mxGeometry y="99.5" width="20" height="20" as="geometry" />
        </mxCell>
        <mxCell id="2BGxexyMWsaTjnRBS6L6-64" value="x_ant" style="text;html=1;strokeColor=none;fillColor=none;align=left;verticalAlign=middle;whiteSpace=wrap;rounded=0;fontSize=7;" parent="Wk4sJEK-bcK-ollA5JWG-11" vertex="1">
          <mxGeometry y="79.5" width="20" height="20" as="geometry" />
        </mxCell>
        <mxCell id="2BGxexyMWsaTjnRBS6L6-65" value="Done" style="text;html=1;strokeColor=none;fillColor=none;align=left;verticalAlign=middle;whiteSpace=wrap;rounded=0;fontSize=7;" parent="Wk4sJEK-bcK-ollA5JWG-11" vertex="1">
          <mxGeometry y="59.5" width="20" height="20" as="geometry" />
        </mxCell>
        <mxCell id="2BGxexyMWsaTjnRBS6L6-66" value="dcValEn" style="text;html=1;strokeColor=none;fillColor=none;align=left;verticalAlign=middle;whiteSpace=wrap;rounded=0;fontSize=7;" parent="Wk4sJEK-bcK-ollA5JWG-11" vertex="1">
          <mxGeometry y="119.5" width="20" height="20" as="geometry" />
        </mxCell>
        <mxCell id="Wk4sJEK-bcK-ollA5JWG-4" value="Reset" style="text;html=1;strokeColor=none;fillColor=none;align=left;verticalAlign=middle;whiteSpace=wrap;rounded=0;fontSize=7;" parent="Wk4sJEK-bcK-ollA5JWG-11" vertex="1">
          <mxGeometry y="20" width="20" height="20" as="geometry" />
        </mxCell>
        <mxCell id="Wk4sJEK-bcK-ollA5JWG-5" value="x_coef_ce" style="text;html=1;strokeColor=none;fillColor=none;align=right;verticalAlign=middle;whiteSpace=wrap;rounded=0;fontSize=7;" parent="Wk4sJEK-bcK-ollA5JWG-11" vertex="1">
          <mxGeometry x="110" y="41.25" width="20" height="20" as="geometry" />
        </mxCell>
        <mxCell id="Wk4sJEK-bcK-ollA5JWG-6" value="x_ant_ce" style="text;html=1;strokeColor=none;fillColor=none;align=right;verticalAlign=middle;whiteSpace=wrap;rounded=0;fontSize=7;" parent="Wk4sJEK-bcK-ollA5JWG-11" vertex="1">
          <mxGeometry x="110" y="21.25" width="20" height="20" as="geometry" />
        </mxCell>
        <mxCell id="Wk4sJEK-bcK-ollA5JWG-7" value="return" style="text;html=1;strokeColor=none;fillColor=none;align=right;verticalAlign=middle;whiteSpace=wrap;rounded=0;fontSize=7;" parent="Wk4sJEK-bcK-ollA5JWG-11" vertex="1">
          <mxGeometry x="110" y="59.25" width="20" height="20" as="geometry" />
        </mxCell>
        <mxCell id="Wk4sJEK-bcK-ollA5JWG-8" value="x_ant_addr" style="text;html=1;strokeColor=none;fillColor=none;align=right;verticalAlign=middle;whiteSpace=wrap;rounded=0;fontSize=7;" parent="Wk4sJEK-bcK-ollA5JWG-11" vertex="1">
          <mxGeometry x="110" y="79.25" width="20" height="20" as="geometry" />
        </mxCell>
        <mxCell id="Wk4sJEK-bcK-ollA5JWG-9" value="x_coef_addr" style="text;html=1;strokeColor=none;fillColor=none;align=right;verticalAlign=middle;whiteSpace=wrap;rounded=0;fontSize=7;" parent="Wk4sJEK-bcK-ollA5JWG-11" vertex="1">
          <mxGeometry x="110" y="99.5" width="20" height="20" as="geometry" />
        </mxCell>
        <mxCell id="Wk4sJEK-bcK-ollA5JWG-12" value="" style="group" parent="2BGxexyMWsaTjnRBS6L6-1" vertex="1" connectable="0">
          <mxGeometry x="150" y="310" width="130" height="140" as="geometry" />
        </mxCell>
        <mxCell id="Wk4sJEK-bcK-ollA5JWG-13" value="&lt;b&gt;Filter&lt;/b&gt;" style="shape=process;whiteSpace=wrap;html=1;backgroundOutline=1;fontSize=9;strokeColor=#d6b656;fillColor=#fff2cc;size=0;" parent="Wk4sJEK-bcK-ollA5JWG-12" vertex="1">
          <mxGeometry y="20" width="130" height="140" as="geometry" />
        </mxCell>
        <mxCell id="Wk4sJEK-bcK-ollA5JWG-14" value="Start" style="text;html=1;strokeColor=none;fillColor=none;align=left;verticalAlign=middle;whiteSpace=wrap;rounded=0;fontSize=7;" parent="Wk4sJEK-bcK-ollA5JWG-12" vertex="1">
          <mxGeometry y="60" width="20" height="20" as="geometry" />
        </mxCell>
        <mxCell id="Wk4sJEK-bcK-ollA5JWG-15" value="Clk" style="text;html=1;strokeColor=none;fillColor=none;align=left;verticalAlign=middle;whiteSpace=wrap;rounded=0;fontSize=7;" parent="Wk4sJEK-bcK-ollA5JWG-12" vertex="1">
          <mxGeometry y="20" width="20" height="20" as="geometry" />
        </mxCell>
        <mxCell id="Wk4sJEK-bcK-ollA5JWG-16" value="x_coef" style="text;html=1;strokeColor=none;fillColor=none;align=left;verticalAlign=middle;whiteSpace=wrap;rounded=0;fontSize=7;" parent="Wk4sJEK-bcK-ollA5JWG-12" vertex="1">
          <mxGeometry y="119.5" width="20" height="20" as="geometry" />
        </mxCell>
        <mxCell id="Wk4sJEK-bcK-ollA5JWG-17" value="x_ant" style="text;html=1;strokeColor=none;fillColor=none;align=left;verticalAlign=middle;whiteSpace=wrap;rounded=0;fontSize=7;" parent="Wk4sJEK-bcK-ollA5JWG-12" vertex="1">
          <mxGeometry y="99.5" width="20" height="20" as="geometry" />
        </mxCell>
        <mxCell id="Wk4sJEK-bcK-ollA5JWG-18" value="Done" style="text;html=1;strokeColor=none;fillColor=none;align=left;verticalAlign=middle;whiteSpace=wrap;rounded=0;fontSize=7;" parent="Wk4sJEK-bcK-ollA5JWG-12" vertex="1">
          <mxGeometry y="79.5" width="20" height="20" as="geometry" />
        </mxCell>
        <mxCell id="Wk4sJEK-bcK-ollA5JWG-19" value="dcValEn" style="text;html=1;strokeColor=none;fillColor=none;align=left;verticalAlign=middle;whiteSpace=wrap;rounded=0;fontSize=7;" parent="Wk4sJEK-bcK-ollA5JWG-12" vertex="1">
          <mxGeometry y="139.5" width="20" height="20" as="geometry" />
        </mxCell>
        <mxCell id="Wk4sJEK-bcK-ollA5JWG-20" value="Reset" style="text;html=1;strokeColor=none;fillColor=none;align=left;verticalAlign=middle;whiteSpace=wrap;rounded=0;fontSize=7;" parent="Wk4sJEK-bcK-ollA5JWG-12" vertex="1">
          <mxGeometry y="40" width="20" height="20" as="geometry" />
        </mxCell>
        <mxCell id="Wk4sJEK-bcK-ollA5JWG-21" value="x_coef_ce" style="text;html=1;strokeColor=none;fillColor=none;align=right;verticalAlign=middle;whiteSpace=wrap;rounded=0;fontSize=7;" parent="Wk4sJEK-bcK-ollA5JWG-12" vertex="1">
          <mxGeometry x="110" y="61.25" width="20" height="20" as="geometry" />
        </mxCell>
        <mxCell id="Wk4sJEK-bcK-ollA5JWG-22" value="x_ant_ce" style="text;html=1;strokeColor=none;fillColor=none;align=right;verticalAlign=middle;whiteSpace=wrap;rounded=0;fontSize=7;" parent="Wk4sJEK-bcK-ollA5JWG-12" vertex="1">
          <mxGeometry x="110" y="41.25" width="20" height="20" as="geometry" />
        </mxCell>
        <mxCell id="Wk4sJEK-bcK-ollA5JWG-23" value="return" style="text;html=1;strokeColor=none;fillColor=none;align=right;verticalAlign=middle;whiteSpace=wrap;rounded=0;fontSize=7;" parent="Wk4sJEK-bcK-ollA5JWG-12" vertex="1">
          <mxGeometry x="110" y="79.25" width="20" height="20" as="geometry" />
        </mxCell>
        <mxCell id="Wk4sJEK-bcK-ollA5JWG-24" value="x_ant_addr" style="text;html=1;strokeColor=none;fillColor=none;align=right;verticalAlign=middle;whiteSpace=wrap;rounded=0;fontSize=7;" parent="Wk4sJEK-bcK-ollA5JWG-12" vertex="1">
          <mxGeometry x="110" y="99.25" width="20" height="20" as="geometry" />
        </mxCell>
        <mxCell id="Wk4sJEK-bcK-ollA5JWG-25" value="x_coef_addr" style="text;html=1;strokeColor=none;fillColor=none;align=right;verticalAlign=middle;whiteSpace=wrap;rounded=0;fontSize=7;" parent="Wk4sJEK-bcK-ollA5JWG-12" vertex="1">
          <mxGeometry x="110" y="119.5" width="20" height="20" as="geometry" />
        </mxCell>
        <mxCell id="Wk4sJEK-bcK-ollA5JWG-26" value="" style="group" parent="2BGxexyMWsaTjnRBS6L6-1" vertex="1" connectable="0">
          <mxGeometry x="150" y="500" width="130" height="140" as="geometry" />
        </mxCell>
        <mxCell id="Wk4sJEK-bcK-ollA5JWG-27" value="&lt;b&gt;Filter&lt;/b&gt;" style="shape=process;whiteSpace=wrap;html=1;backgroundOutline=1;fontSize=9;strokeColor=#d6b656;fillColor=#fff2cc;size=0;" parent="Wk4sJEK-bcK-ollA5JWG-26" vertex="1">
          <mxGeometry width="130" height="140" as="geometry" />
        </mxCell>
        <mxCell id="Wk4sJEK-bcK-ollA5JWG-28" value="Start" style="text;html=1;strokeColor=none;fillColor=none;align=left;verticalAlign=middle;whiteSpace=wrap;rounded=0;fontSize=7;" parent="Wk4sJEK-bcK-ollA5JWG-26" vertex="1">
          <mxGeometry y="40" width="20" height="20" as="geometry" />
        </mxCell>
        <mxCell id="Wk4sJEK-bcK-ollA5JWG-29" value="Clk" style="text;html=1;strokeColor=none;fillColor=none;align=left;verticalAlign=middle;whiteSpace=wrap;rounded=0;fontSize=7;" parent="Wk4sJEK-bcK-ollA5JWG-26" vertex="1">
          <mxGeometry width="20" height="20" as="geometry" />
        </mxCell>
        <mxCell id="Wk4sJEK-bcK-ollA5JWG-30" value="x_coef" style="text;html=1;strokeColor=none;fillColor=none;align=left;verticalAlign=middle;whiteSpace=wrap;rounded=0;fontSize=7;" parent="Wk4sJEK-bcK-ollA5JWG-26" vertex="1">
          <mxGeometry y="99.5" width="20" height="20" as="geometry" />
        </mxCell>
        <mxCell id="Wk4sJEK-bcK-ollA5JWG-31" value="x_ant" style="text;html=1;strokeColor=none;fillColor=none;align=left;verticalAlign=middle;whiteSpace=wrap;rounded=0;fontSize=7;" parent="Wk4sJEK-bcK-ollA5JWG-26" vertex="1">
          <mxGeometry y="79.5" width="20" height="20" as="geometry" />
        </mxCell>
        <mxCell id="Wk4sJEK-bcK-ollA5JWG-32" value="Done" style="text;html=1;strokeColor=none;fillColor=none;align=left;verticalAlign=middle;whiteSpace=wrap;rounded=0;fontSize=7;" parent="Wk4sJEK-bcK-ollA5JWG-26" vertex="1">
          <mxGeometry y="59.5" width="20" height="20" as="geometry" />
        </mxCell>
        <mxCell id="Wk4sJEK-bcK-ollA5JWG-33" value="dcValEn" style="text;html=1;strokeColor=none;fillColor=none;align=left;verticalAlign=middle;whiteSpace=wrap;rounded=0;fontSize=7;" parent="Wk4sJEK-bcK-ollA5JWG-26" vertex="1">
          <mxGeometry y="119.5" width="20" height="20" as="geometry" />
        </mxCell>
        <mxCell id="Wk4sJEK-bcK-ollA5JWG-34" value="Reset" style="text;html=1;strokeColor=none;fillColor=none;align=left;verticalAlign=middle;whiteSpace=wrap;rounded=0;fontSize=7;" parent="Wk4sJEK-bcK-ollA5JWG-26" vertex="1">
          <mxGeometry y="20" width="20" height="20" as="geometry" />
        </mxCell>
        <mxCell id="Wk4sJEK-bcK-ollA5JWG-35" value="x_coef_ce" style="text;html=1;strokeColor=none;fillColor=none;align=right;verticalAlign=middle;whiteSpace=wrap;rounded=0;fontSize=7;" parent="Wk4sJEK-bcK-ollA5JWG-26" vertex="1">
          <mxGeometry x="110" y="41.25" width="20" height="20" as="geometry" />
        </mxCell>
        <mxCell id="Wk4sJEK-bcK-ollA5JWG-36" value="x_ant_ce" style="text;html=1;strokeColor=none;fillColor=none;align=right;verticalAlign=middle;whiteSpace=wrap;rounded=0;fontSize=7;" parent="Wk4sJEK-bcK-ollA5JWG-26" vertex="1">
          <mxGeometry x="110" y="21.25" width="20" height="20" as="geometry" />
        </mxCell>
        <mxCell id="Wk4sJEK-bcK-ollA5JWG-37" value="return" style="text;html=1;strokeColor=none;fillColor=none;align=right;verticalAlign=middle;whiteSpace=wrap;rounded=0;fontSize=7;" parent="Wk4sJEK-bcK-ollA5JWG-26" vertex="1">
          <mxGeometry x="110" y="59.25" width="20" height="20" as="geometry" />
        </mxCell>
        <mxCell id="Wk4sJEK-bcK-ollA5JWG-38" value="x_ant_addr" style="text;html=1;strokeColor=none;fillColor=none;align=right;verticalAlign=middle;whiteSpace=wrap;rounded=0;fontSize=7;" parent="Wk4sJEK-bcK-ollA5JWG-26" vertex="1">
          <mxGeometry x="110" y="79.25" width="20" height="20" as="geometry" />
        </mxCell>
        <mxCell id="Wk4sJEK-bcK-ollA5JWG-39" value="x_coef_addr" style="text;html=1;strokeColor=none;fillColor=none;align=right;verticalAlign=middle;whiteSpace=wrap;rounded=0;fontSize=7;" parent="Wk4sJEK-bcK-ollA5JWG-26" vertex="1">
          <mxGeometry x="110" y="99.5" width="20" height="20" as="geometry" />
        </mxCell>
        <mxCell id="2BGxexyMWsaTjnRBS6L6-23" value="" style="group" parent="2BGxexyMWsaTjnRBS6L6-1" vertex="1" connectable="0">
          <mxGeometry x="-265" y="370" width="100" height="90.5" as="geometry" />
        </mxCell>
        <mxCell id="2BGxexyMWsaTjnRBS6L6-24" value="BRAM" style="shape=process;whiteSpace=wrap;html=1;backgroundOutline=1;fontSize=9;strokeColor=#d6b656;fillColor=#fff2cc;size=0;fontStyle=1;verticalAlign=middle;" parent="2BGxexyMWsaTjnRBS6L6-23" vertex="1">
          <mxGeometry y="0.5" width="100" height="90" as="geometry" />
        </mxCell>
        <mxCell id="2BGxexyMWsaTjnRBS6L6-25" value="DO" style="text;html=1;strokeColor=none;fillColor=none;align=right;verticalAlign=middle;whiteSpace=wrap;rounded=0;fontSize=7;" parent="2BGxexyMWsaTjnRBS6L6-23" vertex="1">
          <mxGeometry x="80" y="35.5" width="20" height="20" as="geometry" />
        </mxCell>
        <mxCell id="2BGxexyMWsaTjnRBS6L6-26" value="ADDR" style="text;html=1;strokeColor=none;fillColor=none;align=left;verticalAlign=middle;whiteSpace=wrap;rounded=0;fontSize=7;" parent="2BGxexyMWsaTjnRBS6L6-23" vertex="1">
          <mxGeometry y="40.5" width="20" height="20" as="geometry" />
        </mxCell>
        <mxCell id="2BGxexyMWsaTjnRBS6L6-27" value="CLK" style="text;html=1;strokeColor=none;fillColor=none;align=left;verticalAlign=middle;whiteSpace=wrap;rounded=0;fontSize=7;" parent="2BGxexyMWsaTjnRBS6L6-23" vertex="1">
          <mxGeometry x="10" y="20.5" width="20" height="20" as="geometry" />
        </mxCell>
        <mxCell id="2BGxexyMWsaTjnRBS6L6-28" value="DI" style="text;html=1;strokeColor=none;fillColor=none;align=left;verticalAlign=middle;whiteSpace=wrap;rounded=0;fontSize=7;" parent="2BGxexyMWsaTjnRBS6L6-23" vertex="1">
          <mxGeometry y="60.5" width="20" height="20" as="geometry" />
        </mxCell>
        <mxCell id="2BGxexyMWsaTjnRBS6L6-29" value="EN" style="text;html=1;strokeColor=none;fillColor=none;align=left;verticalAlign=middle;whiteSpace=wrap;rounded=0;fontSize=7;" parent="2BGxexyMWsaTjnRBS6L6-23" vertex="1">
          <mxGeometry x="30" y="0.5" width="20" height="15.5" as="geometry" />
        </mxCell>
        <mxCell id="2BGxexyMWsaTjnRBS6L6-31" value="WE" style="text;html=1;strokeColor=none;fillColor=none;align=left;verticalAlign=middle;whiteSpace=wrap;rounded=0;fontSize=7;" parent="2BGxexyMWsaTjnRBS6L6-23" vertex="1">
          <mxGeometry x="50" y="0.5" width="20" height="15.5" as="geometry" />
        </mxCell>
        <mxCell id="2BGxexyMWsaTjnRBS6L6-32" value="" style="triangle;whiteSpace=wrap;html=1;fontSize=9;fillColor=#ffe6cc;strokeColor=#d79b00;" parent="2BGxexyMWsaTjnRBS6L6-23" vertex="1">
          <mxGeometry y="25.5" width="10" height="10" as="geometry" />
        </mxCell>
        <mxCell id="Wk4sJEK-bcK-ollA5JWG-58" value="" style="group" parent="2BGxexyMWsaTjnRBS6L6-1" vertex="1" connectable="0">
          <mxGeometry x="-45" y="370" width="100" height="90.5" as="geometry" />
        </mxCell>
        <mxCell id="Wk4sJEK-bcK-ollA5JWG-59" value="BRAM" style="shape=process;whiteSpace=wrap;html=1;backgroundOutline=1;fontSize=9;strokeColor=#d6b656;fillColor=#fff2cc;size=0;fontStyle=1;verticalAlign=middle;" parent="Wk4sJEK-bcK-ollA5JWG-58" vertex="1">
          <mxGeometry y="0.5" width="100" height="90" as="geometry" />
        </mxCell>
        <mxCell id="Wk4sJEK-bcK-ollA5JWG-60" value="DO" style="text;html=1;strokeColor=none;fillColor=none;align=right;verticalAlign=middle;whiteSpace=wrap;rounded=0;fontSize=7;" parent="Wk4sJEK-bcK-ollA5JWG-58" vertex="1">
          <mxGeometry x="80" y="35.5" width="20" height="20" as="geometry" />
        </mxCell>
        <mxCell id="Wk4sJEK-bcK-ollA5JWG-61" value="ADDR" style="text;html=1;strokeColor=none;fillColor=none;align=left;verticalAlign=middle;whiteSpace=wrap;rounded=0;fontSize=7;" parent="Wk4sJEK-bcK-ollA5JWG-58" vertex="1">
          <mxGeometry y="40.5" width="20" height="20" as="geometry" />
        </mxCell>
        <mxCell id="Wk4sJEK-bcK-ollA5JWG-62" value="CLK" style="text;html=1;strokeColor=none;fillColor=none;align=left;verticalAlign=middle;whiteSpace=wrap;rounded=0;fontSize=7;" parent="Wk4sJEK-bcK-ollA5JWG-58" vertex="1">
          <mxGeometry x="10" y="20.5" width="20" height="20" as="geometry" />
        </mxCell>
        <mxCell id="Wk4sJEK-bcK-ollA5JWG-63" value="DI" style="text;html=1;strokeColor=none;fillColor=none;align=left;verticalAlign=middle;whiteSpace=wrap;rounded=0;fontSize=7;" parent="Wk4sJEK-bcK-ollA5JWG-58" vertex="1">
          <mxGeometry y="60.5" width="20" height="20" as="geometry" />
        </mxCell>
        <mxCell id="Wk4sJEK-bcK-ollA5JWG-64" value="EN" style="text;html=1;strokeColor=none;fillColor=none;align=left;verticalAlign=middle;whiteSpace=wrap;rounded=0;fontSize=7;" parent="Wk4sJEK-bcK-ollA5JWG-58" vertex="1">
          <mxGeometry x="30" y="0.5" width="20" height="15.5" as="geometry" />
        </mxCell>
        <mxCell id="Wk4sJEK-bcK-ollA5JWG-65" value="WE" style="text;html=1;strokeColor=none;fillColor=none;align=left;verticalAlign=middle;whiteSpace=wrap;rounded=0;fontSize=7;" parent="Wk4sJEK-bcK-ollA5JWG-58" vertex="1">
          <mxGeometry x="50" y="0.5" width="20" height="15.5" as="geometry" />
        </mxCell>
        <mxCell id="Wk4sJEK-bcK-ollA5JWG-66" value="" style="triangle;whiteSpace=wrap;html=1;fontSize=9;fillColor=#ffe6cc;strokeColor=#d79b00;" parent="Wk4sJEK-bcK-ollA5JWG-58" vertex="1">
          <mxGeometry y="25.5" width="10" height="10" as="geometry" />
        </mxCell>
      </root>
    </mxGraphModel>
  </diagram>
  <diagram name="BlockDiagram" id="x7_BKrjBYVV7NP7LcVdP">
    <mxGraphModel dx="1196" dy="712" grid="1" gridSize="10" guides="1" tooltips="1" connect="1" arrows="1" fold="1" page="1" pageScale="1" pageWidth="850" pageHeight="1100" math="0" shadow="0">
      <root>
        <mxCell id="3tY0TkDUMJXCh9hplSuB-0" />
        <mxCell id="3tY0TkDUMJXCh9hplSuB-1" parent="3tY0TkDUMJXCh9hplSuB-0" />
        <mxCell id="3tY0TkDUMJXCh9hplSuB-2" value="&lt;div&gt;&lt;b&gt;HDMI&lt;/b&gt;&lt;/div&gt;&lt;div&gt;IP&lt;br&gt;&lt;/div&gt;" style="shape=process;whiteSpace=wrap;html=1;backgroundOutline=1;fontSize=9;strokeColor=#d6b656;fillColor=#fff2cc;size=0;" parent="3tY0TkDUMJXCh9hplSuB-1" vertex="1">
          <mxGeometry x="613" y="56.09" width="105" height="134.75" as="geometry" />
        </mxCell>
        <mxCell id="3tY0TkDUMJXCh9hplSuB-3" value="&lt;div&gt;&lt;b&gt;AXI&lt;/b&gt;&lt;/div&gt;&lt;div&gt;&lt;b&gt;Interconnect&lt;/b&gt;&lt;br&gt;&lt;/div&gt;" style="shape=process;whiteSpace=wrap;html=1;backgroundOutline=1;fontSize=9;strokeColor=#6c8ebf;fillColor=#dae8fc;size=0;verticalAlign=bottom;align=left;" parent="3tY0TkDUMJXCh9hplSuB-1" vertex="1">
          <mxGeometry x="238" y="109.34" width="86" height="130" as="geometry" />
        </mxCell>
        <mxCell id="3tY0TkDUMJXCh9hplSuB-4" value="AXI-Lite" style="edgeStyle=orthogonalEdgeStyle;rounded=0;orthogonalLoop=1;jettySize=auto;html=1;entryX=0;entryY=0.5;entryDx=0;entryDy=0;fontSize=7;startArrow=classic;startFill=1;endArrow=classic;endFill=1;startSize=3;endSize=3;labelBackgroundColor=default;exitX=1;exitY=0.5;exitDx=0;exitDy=0;" parent="3tY0TkDUMJXCh9hplSuB-1" source="f4EQiWSrmJXB-VE3wWvt-21" target="f4EQiWSrmJXB-VE3wWvt-0" edge="1">
          <mxGeometry x="0.0137" relative="1" as="geometry">
            <mxPoint as="offset" />
            <Array as="points">
              <mxPoint x="207" y="115" />
              <mxPoint x="207" y="151" />
            </Array>
          </mxGeometry>
        </mxCell>
        <mxCell id="3tY0TkDUMJXCh9hplSuB-7" value="Processor System" style="shape=process;whiteSpace=wrap;html=1;backgroundOutline=1;fontSize=9;strokeColor=#b85450;fillColor=#f8cecc;size=0;fontStyle=1" parent="3tY0TkDUMJXCh9hplSuB-1" vertex="1">
          <mxGeometry x="107" y="109.34" width="66" height="66" as="geometry" />
        </mxCell>
        <mxCell id="3tY0TkDUMJXCh9hplSuB-8" value="TMDS_clk" style="text;html=1;strokeColor=none;fillColor=none;align=left;verticalAlign=middle;whiteSpace=wrap;rounded=0;fontSize=6;" parent="3tY0TkDUMJXCh9hplSuB-1" vertex="1">
          <mxGeometry x="613" y="73.84" width="20" height="20" as="geometry" />
        </mxCell>
        <mxCell id="3tY0TkDUMJXCh9hplSuB-9" value="&lt;div&gt;Clk&lt;/div&gt;&lt;div&gt;Wizard&lt;/div&gt;" style="shape=process;whiteSpace=wrap;html=1;backgroundOutline=1;fontSize=9;strokeColor=#d6b656;fillColor=#fff2cc;size=0;fontStyle=1" parent="3tY0TkDUMJXCh9hplSuB-1" vertex="1">
          <mxGeometry x="137.43" y="30" width="89.57" height="41" as="geometry" />
        </mxCell>
        <mxCell id="3tY0TkDUMJXCh9hplSuB-10" style="edgeStyle=orthogonalEdgeStyle;rounded=0;orthogonalLoop=1;jettySize=auto;html=1;exitX=0;exitY=0.5;exitDx=0;exitDy=0;fontSize=5;startArrow=classic;startFill=1;endArrow=none;endFill=0;startSize=3;endSize=3;" parent="3tY0TkDUMJXCh9hplSuB-1" source="3tY0TkDUMJXCh9hplSuB-12" edge="1">
          <mxGeometry relative="1" as="geometry">
            <mxPoint x="87.43" y="50" as="targetPoint" />
          </mxGeometry>
        </mxCell>
        <mxCell id="3tY0TkDUMJXCh9hplSuB-11" value="SYSCLK" style="edgeLabel;html=1;align=center;verticalAlign=middle;resizable=0;points=[];fontSize=7;fontStyle=1" parent="3tY0TkDUMJXCh9hplSuB-10" vertex="1" connectable="0">
          <mxGeometry x="0.8889" relative="1" as="geometry">
            <mxPoint x="-3" as="offset" />
          </mxGeometry>
        </mxCell>
        <mxCell id="3tY0TkDUMJXCh9hplSuB-12" value="Clk" style="text;html=1;strokeColor=none;fillColor=none;align=left;verticalAlign=middle;whiteSpace=wrap;rounded=0;fontSize=6;" parent="3tY0TkDUMJXCh9hplSuB-1" vertex="1">
          <mxGeometry x="137.43" y="40" width="20" height="20" as="geometry" />
        </mxCell>
        <mxCell id="3tY0TkDUMJXCh9hplSuB-13" style="edgeStyle=orthogonalEdgeStyle;rounded=0;orthogonalLoop=1;jettySize=auto;html=1;exitX=1;exitY=0.5;exitDx=0;exitDy=0;entryX=0;entryY=0.5;entryDx=0;entryDy=0;startArrow=none;startFill=0;startSize=3;endSize=3;endArrow=none;endFill=0;" parent="3tY0TkDUMJXCh9hplSuB-1" source="3tY0TkDUMJXCh9hplSuB-14" target="3tY0TkDUMJXCh9hplSuB-17" edge="1">
          <mxGeometry relative="1" as="geometry">
            <Array as="points">
              <mxPoint x="587" y="40" />
              <mxPoint x="587" y="66" />
            </Array>
          </mxGeometry>
        </mxCell>
        <mxCell id="3tY0TkDUMJXCh9hplSuB-14" value="Pixclk" style="text;html=1;strokeColor=none;fillColor=none;align=right;verticalAlign=middle;whiteSpace=wrap;rounded=0;fontSize=6;" parent="3tY0TkDUMJXCh9hplSuB-1" vertex="1">
          <mxGeometry x="207" y="30" width="20" height="20" as="geometry" />
        </mxCell>
        <mxCell id="3tY0TkDUMJXCh9hplSuB-15" style="edgeStyle=orthogonalEdgeStyle;rounded=0;orthogonalLoop=1;jettySize=auto;html=1;exitX=0.997;exitY=0.599;exitDx=0;exitDy=0;entryX=0;entryY=0.5;entryDx=0;entryDy=0;fontSize=9;endSize=3;exitPerimeter=0;endArrow=none;endFill=0;" parent="3tY0TkDUMJXCh9hplSuB-1" source="3tY0TkDUMJXCh9hplSuB-16" target="3tY0TkDUMJXCh9hplSuB-8" edge="1">
          <mxGeometry relative="1" as="geometry">
            <Array as="points">
              <mxPoint x="567" y="62" />
              <mxPoint x="567" y="83" />
            </Array>
          </mxGeometry>
        </mxCell>
        <mxCell id="3tY0TkDUMJXCh9hplSuB-16" value="TMDS_clk" style="text;html=1;strokeColor=none;fillColor=none;align=right;verticalAlign=middle;whiteSpace=wrap;rounded=0;fontSize=6;" parent="3tY0TkDUMJXCh9hplSuB-1" vertex="1">
          <mxGeometry x="207" y="50" width="20" height="20" as="geometry" />
        </mxCell>
        <mxCell id="3tY0TkDUMJXCh9hplSuB-17" value="Pixclk" style="text;html=1;strokeColor=none;fillColor=none;align=left;verticalAlign=middle;whiteSpace=wrap;rounded=0;fontSize=6;" parent="3tY0TkDUMJXCh9hplSuB-1" vertex="1">
          <mxGeometry x="613" y="56.09" width="20" height="20" as="geometry" />
        </mxCell>
        <mxCell id="3tY0TkDUMJXCh9hplSuB-23" value="&lt;div style=&quot;font-size: 7px;&quot;&gt;&lt;b style=&quot;font-size: 7px;&quot;&gt;AXI_M&lt;/b&gt;&lt;/div&gt;" style="shape=process;whiteSpace=wrap;html=1;backgroundOutline=1;fontSize=7;strokeColor=none;fillColor=none;size=0;verticalAlign=middle;" parent="3tY0TkDUMJXCh9hplSuB-1" vertex="1">
          <mxGeometry x="294" y="146.05" width="30" height="10" as="geometry" />
        </mxCell>
        <mxCell id="f4EQiWSrmJXB-VE3wWvt-8" style="edgeStyle=orthogonalEdgeStyle;rounded=0;orthogonalLoop=1;jettySize=auto;html=1;entryX=0;entryY=0.5;entryDx=0;entryDy=0;labelBackgroundColor=default;fontSize=7;startArrow=classic;startFill=1;startSize=3;endSize=3;exitX=1;exitY=0.5;exitDx=0;exitDy=0;" parent="3tY0TkDUMJXCh9hplSuB-1" source="3tY0TkDUMJXCh9hplSuB-23" target="f4EQiWSrmJXB-VE3wWvt-7" edge="1">
          <mxGeometry relative="1" as="geometry" />
        </mxCell>
        <mxCell id="f4EQiWSrmJXB-VE3wWvt-10" value="&lt;div&gt;AXI-Lite&lt;/div&gt;" style="edgeLabel;html=1;align=center;verticalAlign=middle;resizable=0;points=[];fontSize=7;labelBackgroundColor=default;" parent="f4EQiWSrmJXB-VE3wWvt-8" vertex="1" connectable="0">
          <mxGeometry x="0.198" y="1" relative="1" as="geometry">
            <mxPoint y="7" as="offset" />
          </mxGeometry>
        </mxCell>
        <mxCell id="f4EQiWSrmJXB-VE3wWvt-28" value="AXI-Lite" style="edgeStyle=orthogonalEdgeStyle;rounded=0;orthogonalLoop=1;jettySize=auto;html=1;entryX=0;entryY=0.5;entryDx=0;entryDy=0;labelBackgroundColor=default;fontSize=7;startArrow=classic;startFill=1;startSize=3;endSize=3;" parent="3tY0TkDUMJXCh9hplSuB-1" source="3tY0TkDUMJXCh9hplSuB-28" target="f4EQiWSrmJXB-VE3wWvt-25" edge="1">
          <mxGeometry x="0.0057" y="5" relative="1" as="geometry">
            <mxPoint as="offset" />
          </mxGeometry>
        </mxCell>
        <mxCell id="3tY0TkDUMJXCh9hplSuB-28" value="&lt;div style=&quot;font-size: 7px;&quot;&gt;&lt;b style=&quot;font-size: 7px;&quot;&gt;AXI_M&lt;/b&gt;&lt;/div&gt;" style="shape=process;whiteSpace=wrap;html=1;backgroundOutline=1;fontSize=7;strokeColor=none;fillColor=none;size=0;verticalAlign=middle;" parent="3tY0TkDUMJXCh9hplSuB-1" vertex="1">
          <mxGeometry x="294" y="190.84" width="30" height="10" as="geometry" />
        </mxCell>
        <mxCell id="3tY0TkDUMJXCh9hplSuB-35" value="&amp;nbsp;&lt;font style=&quot;font-size: 9px;&quot;&gt;HDMI-Tx&amp;nbsp; &lt;br style=&quot;font-size: 9px;&quot;&gt;Port&lt;/font&gt;" style="rounded=0;whiteSpace=wrap;html=1;fillColor=#DAE8FC;strokeColor=#6c8ebf;dashed=1;strokeWidth=2;verticalAlign=top;fontSize=9;fontStyle=1" parent="3tY0TkDUMJXCh9hplSuB-1" vertex="1">
          <mxGeometry x="743" y="78.22" width="55" height="80.5" as="geometry" />
        </mxCell>
        <mxCell id="3tY0TkDUMJXCh9hplSuB-36" style="edgeStyle=orthogonalEdgeStyle;rounded=0;orthogonalLoop=1;jettySize=auto;html=1;exitX=1;exitY=0.5;exitDx=0;exitDy=0;fontSize=7;endSize=3;" parent="3tY0TkDUMJXCh9hplSuB-1" source="3tY0TkDUMJXCh9hplSuB-43" target="3tY0TkDUMJXCh9hplSuB-35" edge="1">
          <mxGeometry relative="1" as="geometry">
            <mxPoint x="769" y="119.47" as="targetPoint" />
            <Array as="points">
              <mxPoint x="753" y="128.22" />
              <mxPoint x="753" y="128.22" />
            </Array>
          </mxGeometry>
        </mxCell>
        <mxCell id="3tY0TkDUMJXCh9hplSuB-37" value="" style="shape=image;html=1;verticalAlign=top;verticalLabelPosition=bottom;labelBackgroundColor=#ffffff;imageAspect=0;aspect=fixed;image=https://cdn1.iconfinder.com/data/icons/bootstrap-vol-3/16/hdmi-128.png;fontSize=9;fillColor=#000000;imageBackground=#DAE8FC;" parent="3tY0TkDUMJXCh9hplSuB-1" vertex="1">
          <mxGeometry x="751.1700000000001" y="117.22" width="38.65" height="38.65" as="geometry" />
        </mxCell>
        <mxCell id="3tY0TkDUMJXCh9hplSuB-38" style="edgeStyle=orthogonalEdgeStyle;rounded=0;orthogonalLoop=1;jettySize=auto;html=1;exitX=1;exitY=0.5;exitDx=0;exitDy=0;fontSize=9;endSize=3;" parent="3tY0TkDUMJXCh9hplSuB-1" source="3tY0TkDUMJXCh9hplSuB-41" target="3tY0TkDUMJXCh9hplSuB-35" edge="1">
          <mxGeometry relative="1" as="geometry">
            <Array as="points">
              <mxPoint x="718" y="87.22" />
            </Array>
            <mxPoint x="743" y="88.22" as="targetPoint" />
          </mxGeometry>
        </mxCell>
        <mxCell id="3tY0TkDUMJXCh9hplSuB-39" style="edgeStyle=orthogonalEdgeStyle;rounded=0;orthogonalLoop=1;jettySize=auto;html=1;exitX=1;exitY=0.5;exitDx=0;exitDy=0;entryX=0.025;entryY=0.367;entryDx=0;entryDy=0;entryPerimeter=0;fontSize=9;endSize=3;" parent="3tY0TkDUMJXCh9hplSuB-1" source="3tY0TkDUMJXCh9hplSuB-42" target="3tY0TkDUMJXCh9hplSuB-35" edge="1">
          <mxGeometry relative="1" as="geometry">
            <Array as="points" />
          </mxGeometry>
        </mxCell>
        <mxCell id="3tY0TkDUMJXCh9hplSuB-40" style="edgeStyle=orthogonalEdgeStyle;rounded=0;orthogonalLoop=1;jettySize=auto;html=1;exitX=1;exitY=0.5;exitDx=0;exitDy=0;entryX=0;entryY=0.864;entryDx=0;entryDy=0;entryPerimeter=0;fontSize=9;endSize=3;" parent="3tY0TkDUMJXCh9hplSuB-1" source="3tY0TkDUMJXCh9hplSuB-44" target="3tY0TkDUMJXCh9hplSuB-35" edge="1">
          <mxGeometry relative="1" as="geometry" />
        </mxCell>
        <mxCell id="3tY0TkDUMJXCh9hplSuB-41" value="TMDSp" style="text;html=1;strokeColor=none;fillColor=none;align=right;verticalAlign=middle;whiteSpace=wrap;rounded=0;fontSize=6;" parent="3tY0TkDUMJXCh9hplSuB-1" vertex="1">
          <mxGeometry x="698" y="78.22" width="20" height="20" as="geometry" />
        </mxCell>
        <mxCell id="3tY0TkDUMJXCh9hplSuB-42" value="TMDSn" style="text;html=1;strokeColor=none;fillColor=none;align=right;verticalAlign=middle;whiteSpace=wrap;rounded=0;fontSize=6;" parent="3tY0TkDUMJXCh9hplSuB-1" vertex="1">
          <mxGeometry x="698" y="98.22" width="20" height="20" as="geometry" />
        </mxCell>
        <mxCell id="3tY0TkDUMJXCh9hplSuB-43" value="TMDSp_clk" style="text;html=1;strokeColor=none;fillColor=none;align=right;verticalAlign=middle;whiteSpace=wrap;rounded=0;fontSize=6;" parent="3tY0TkDUMJXCh9hplSuB-1" vertex="1">
          <mxGeometry x="698" y="118.22" width="20" height="20" as="geometry" />
        </mxCell>
        <mxCell id="3tY0TkDUMJXCh9hplSuB-44" value="TMDSn_clk" style="text;html=1;strokeColor=none;fillColor=none;align=right;verticalAlign=middle;whiteSpace=wrap;rounded=0;fontSize=6;" parent="3tY0TkDUMJXCh9hplSuB-1" vertex="1">
          <mxGeometry x="698" y="138.22" width="20" height="20" as="geometry" />
        </mxCell>
        <mxCell id="3tY0TkDUMJXCh9hplSuB-46" value="&lt;div style=&quot;font-size: 6px;&quot;&gt;Filtered Signal&lt;/div&gt;" style="text;html=1;strokeColor=none;fillColor=none;align=left;verticalAlign=middle;whiteSpace=wrap;rounded=0;fontSize=6;" parent="3tY0TkDUMJXCh9hplSuB-1" vertex="1">
          <mxGeometry x="613" y="170.84" width="53" height="20" as="geometry" />
        </mxCell>
        <mxCell id="f4EQiWSrmJXB-VE3wWvt-0" value="&lt;div style=&quot;font-size: 7px;&quot;&gt;&lt;b style=&quot;font-size: 7px;&quot;&gt;AXI_S&lt;/b&gt;&lt;/div&gt;" style="shape=process;whiteSpace=wrap;html=1;backgroundOutline=1;fontSize=7;strokeColor=none;fillColor=none;size=0;verticalAlign=middle;" parent="3tY0TkDUMJXCh9hplSuB-1" vertex="1">
          <mxGeometry x="238" y="146.05" width="30" height="10" as="geometry" />
        </mxCell>
        <mxCell id="f4EQiWSrmJXB-VE3wWvt-4" style="edgeStyle=orthogonalEdgeStyle;rounded=0;orthogonalLoop=1;jettySize=auto;html=1;entryX=1.001;entryY=0.086;entryDx=0;entryDy=0;endSize=3;startSize=3;startArrow=classic;startFill=1;entryPerimeter=0;" parent="3tY0TkDUMJXCh9hplSuB-1" source="f4EQiWSrmJXB-VE3wWvt-1" target="f4EQiWSrmJXB-VE3wWvt-2" edge="1">
          <mxGeometry relative="1" as="geometry">
            <Array as="points">
              <mxPoint x="207" y="196" />
              <mxPoint x="207" y="204" />
            </Array>
          </mxGeometry>
        </mxCell>
        <mxCell id="f4EQiWSrmJXB-VE3wWvt-6" value="&lt;div style=&quot;font-size: 7px;&quot;&gt;&lt;font style=&quot;font-size: 7px;&quot;&gt;AXI-Lite&lt;/font&gt;&lt;/div&gt;" style="edgeLabel;html=1;align=center;verticalAlign=middle;resizable=0;points=[];" parent="f4EQiWSrmJXB-VE3wWvt-4" vertex="1" connectable="0">
          <mxGeometry x="-0.2251" y="-1" relative="1" as="geometry">
            <mxPoint x="-2" y="7" as="offset" />
          </mxGeometry>
        </mxCell>
        <mxCell id="f4EQiWSrmJXB-VE3wWvt-1" value="&lt;div style=&quot;font-size: 7px;&quot;&gt;&lt;b style=&quot;font-size: 7px;&quot;&gt;AXI_S&lt;/b&gt;&lt;/div&gt;" style="shape=process;whiteSpace=wrap;html=1;backgroundOutline=1;fontSize=7;strokeColor=none;fillColor=none;size=0;verticalAlign=middle;" parent="3tY0TkDUMJXCh9hplSuB-1" vertex="1">
          <mxGeometry x="238" y="190.84" width="30" height="10" as="geometry" />
        </mxCell>
        <mxCell id="f4EQiWSrmJXB-VE3wWvt-9" value="" style="group" parent="3tY0TkDUMJXCh9hplSuB-1" vertex="1" connectable="0">
          <mxGeometry x="391" y="73" width="55" height="57.62" as="geometry" />
        </mxCell>
        <mxCell id="3tY0TkDUMJXCh9hplSuB-19" value="&lt;div&gt;XADC&lt;/div&gt;" style="shape=process;whiteSpace=wrap;html=1;backgroundOutline=1;fontSize=9;strokeColor=#d6b656;fillColor=#fff2cc;size=0;fontStyle=1" parent="f4EQiWSrmJXB-VE3wWvt-9" vertex="1">
          <mxGeometry y="0.005121322549091172" width="55" height="57.6148786774509" as="geometry" />
        </mxCell>
        <mxCell id="f4EQiWSrmJXB-VE3wWvt-7" value="&lt;div style=&quot;font-size: 7px;&quot;&gt;&lt;font style=&quot;font-size: 7px;&quot;&gt;&lt;b&gt;AXI_S&lt;/b&gt;&lt;/font&gt;&lt;/div&gt;" style="shape=process;whiteSpace=wrap;html=1;backgroundOutline=1;fontSize=9;strokeColor=none;fillColor=none;size=0;verticalAlign=middle;align=left;fontColor=default;" parent="f4EQiWSrmJXB-VE3wWvt-9" vertex="1">
          <mxGeometry y="47.39" width="30" height="10" as="geometry" />
        </mxCell>
        <mxCell id="3I-uDCUbhMjniZcurYs8-1" value="ADCPin_n" style="text;html=1;align=left;verticalAlign=middle;resizable=0;points=[];autosize=1;strokeColor=none;fillColor=none;fontSize=6;" parent="f4EQiWSrmJXB-VE3wWvt-9" vertex="1">
          <mxGeometry y="0.00999999999999801" width="40" height="10" as="geometry" />
        </mxCell>
        <mxCell id="3I-uDCUbhMjniZcurYs8-2" value="ADCPin_p" style="text;html=1;align=left;verticalAlign=middle;resizable=0;points=[];autosize=1;strokeColor=none;fillColor=none;fontSize=6;" parent="f4EQiWSrmJXB-VE3wWvt-9" vertex="1">
          <mxGeometry y="15.350000000000009" width="40" height="10" as="geometry" />
        </mxCell>
        <mxCell id="f4EQiWSrmJXB-VE3wWvt-18" style="edgeStyle=orthogonalEdgeStyle;rounded=0;orthogonalLoop=1;jettySize=auto;html=1;entryX=0.002;entryY=0.133;entryDx=0;entryDy=0;entryPerimeter=0;labelBackgroundColor=default;fontSize=7;startArrow=none;startFill=0;startSize=3;endSize=3;endArrow=none;endFill=0;" parent="3tY0TkDUMJXCh9hplSuB-1" source="f4EQiWSrmJXB-VE3wWvt-14" target="3tY0TkDUMJXCh9hplSuB-19" edge="1">
          <mxGeometry relative="1" as="geometry" />
        </mxCell>
        <mxCell id="f4EQiWSrmJXB-VE3wWvt-14" value="ADCPin_n" style="text;html=1;align=right;verticalAlign=middle;resizable=0;points=[];autosize=1;strokeColor=none;fillColor=none;fontSize=7;" parent="3tY0TkDUMJXCh9hplSuB-1" vertex="1">
          <mxGeometry x="53" y="75" width="50" height="10" as="geometry" />
        </mxCell>
        <mxCell id="f4EQiWSrmJXB-VE3wWvt-19" style="edgeStyle=orthogonalEdgeStyle;rounded=0;orthogonalLoop=1;jettySize=auto;html=1;entryX=0.006;entryY=0.376;entryDx=0;entryDy=0;entryPerimeter=0;labelBackgroundColor=default;fontSize=7;startArrow=none;startFill=0;startSize=3;endSize=3;endArrow=none;endFill=0;" parent="3tY0TkDUMJXCh9hplSuB-1" source="f4EQiWSrmJXB-VE3wWvt-15" target="3tY0TkDUMJXCh9hplSuB-19" edge="1">
          <mxGeometry relative="1" as="geometry" />
        </mxCell>
        <mxCell id="f4EQiWSrmJXB-VE3wWvt-15" value="ADCPin_p" style="text;html=1;align=right;verticalAlign=middle;resizable=0;points=[];autosize=1;strokeColor=none;fillColor=none;fontSize=7;" parent="3tY0TkDUMJXCh9hplSuB-1" vertex="1">
          <mxGeometry x="53" y="90.34" width="50" height="10" as="geometry" />
        </mxCell>
        <mxCell id="f4EQiWSrmJXB-VE3wWvt-21" value="&lt;div style=&quot;font-size: 7px;&quot;&gt;&lt;b style=&quot;font-size: 7px;&quot;&gt;AXI_M&lt;/b&gt;&lt;/div&gt;" style="shape=process;whiteSpace=wrap;html=1;backgroundOutline=1;fontSize=7;strokeColor=none;fillColor=none;size=0;verticalAlign=middle;align=center;" parent="3tY0TkDUMJXCh9hplSuB-1" vertex="1">
          <mxGeometry x="143" y="110.34" width="30" height="10" as="geometry" />
        </mxCell>
        <mxCell id="f4EQiWSrmJXB-VE3wWvt-22" value="" style="group" parent="3tY0TkDUMJXCh9hplSuB-1" vertex="1" connectable="0">
          <mxGeometry x="484" y="189.9955555555555" width="100" height="60" as="geometry" />
        </mxCell>
        <mxCell id="3tY0TkDUMJXCh9hplSuB-30" value="&lt;div&gt;&lt;b&gt;Filters&lt;/b&gt;&lt;/div&gt;&lt;div&gt;IP&lt;br&gt;&lt;/div&gt;" style="shape=process;whiteSpace=wrap;html=1;backgroundOutline=1;fontSize=9;strokeColor=#d6b656;fillColor=#fff2cc;size=0;" parent="f4EQiWSrmJXB-VE3wWvt-22" vertex="1">
          <mxGeometry width="100" height="60" as="geometry" />
        </mxCell>
        <mxCell id="f4EQiWSrmJXB-VE3wWvt-32" value="Filter Select" style="text;html=1;strokeColor=none;fillColor=none;align=left;verticalAlign=middle;whiteSpace=wrap;rounded=0;fontSize=6;" parent="f4EQiWSrmJXB-VE3wWvt-22" vertex="1">
          <mxGeometry y="-0.6555555555555123" width="40" height="20" as="geometry" />
        </mxCell>
        <mxCell id="f4EQiWSrmJXB-VE3wWvt-34" value="ADC Val" style="text;html=1;strokeColor=none;fillColor=none;align=left;verticalAlign=middle;whiteSpace=wrap;rounded=0;fontSize=6;" parent="f4EQiWSrmJXB-VE3wWvt-22" vertex="1">
          <mxGeometry y="36.34" width="40" height="9.34" as="geometry" />
        </mxCell>
        <mxCell id="f4EQiWSrmJXB-VE3wWvt-35" value="Start" style="text;html=1;strokeColor=none;fillColor=none;align=left;verticalAlign=middle;whiteSpace=wrap;rounded=0;fontSize=6;" parent="f4EQiWSrmJXB-VE3wWvt-22" vertex="1">
          <mxGeometry y="47" width="40" height="9.34" as="geometry" />
        </mxCell>
        <mxCell id="f4EQiWSrmJXB-VE3wWvt-42" value="Result" style="text;html=1;strokeColor=none;fillColor=none;align=right;verticalAlign=middle;whiteSpace=wrap;rounded=0;fontSize=6;" parent="f4EQiWSrmJXB-VE3wWvt-22" vertex="1">
          <mxGeometry x="60" y="19.34444444444452" width="40" height="20" as="geometry" />
        </mxCell>
        <mxCell id="f4EQiWSrmJXB-VE3wWvt-31" value="" style="group" parent="3tY0TkDUMJXCh9hplSuB-1" vertex="1" connectable="0">
          <mxGeometry x="376" y="170" width="70" height="50" as="geometry" />
        </mxCell>
        <mxCell id="f4EQiWSrmJXB-VE3wWvt-24" value="&lt;div&gt;&lt;b&gt;Config&lt;/b&gt; IP&lt;br&gt;&lt;/div&gt;" style="shape=process;whiteSpace=wrap;html=1;backgroundOutline=1;fontSize=9;strokeColor=#d6b656;fillColor=#fff2cc;size=0;verticalAlign=bottom;" parent="f4EQiWSrmJXB-VE3wWvt-31" vertex="1">
          <mxGeometry width="70" height="50" as="geometry" />
        </mxCell>
        <mxCell id="f4EQiWSrmJXB-VE3wWvt-25" value="&lt;div style=&quot;font-size: 7px;&quot;&gt;&lt;b style=&quot;font-size: 7px;&quot;&gt;AXI_S&lt;/b&gt;&lt;/div&gt;" style="shape=process;whiteSpace=wrap;html=1;backgroundOutline=1;fontSize=7;strokeColor=none;fillColor=none;size=0;verticalAlign=middle;align=left;" parent="f4EQiWSrmJXB-VE3wWvt-31" vertex="1">
          <mxGeometry y="1" width="37.5" height="10" as="geometry" />
        </mxCell>
        <mxCell id="f4EQiWSrmJXB-VE3wWvt-27" value="Filter Select" style="text;html=1;strokeColor=none;fillColor=none;align=right;verticalAlign=middle;whiteSpace=wrap;rounded=0;fontSize=6;" parent="f4EQiWSrmJXB-VE3wWvt-31" vertex="1">
          <mxGeometry x="30" y="15" width="40" height="20" as="geometry" />
        </mxCell>
        <mxCell id="f4EQiWSrmJXB-VE3wWvt-33" style="edgeStyle=orthogonalEdgeStyle;rounded=0;orthogonalLoop=1;jettySize=auto;html=1;entryX=0;entryY=0.5;entryDx=0;entryDy=0;labelBackgroundColor=default;fontSize=6;startArrow=none;startFill=0;startSize=3;endSize=3;endArrow=none;endFill=0;" parent="3tY0TkDUMJXCh9hplSuB-1" source="f4EQiWSrmJXB-VE3wWvt-27" target="f4EQiWSrmJXB-VE3wWvt-32" edge="1">
          <mxGeometry relative="1" as="geometry" />
        </mxCell>
        <mxCell id="f4EQiWSrmJXB-VE3wWvt-38" style="edgeStyle=orthogonalEdgeStyle;rounded=0;orthogonalLoop=1;jettySize=auto;html=1;labelBackgroundColor=default;fontSize=6;startArrow=none;startFill=0;startSize=3;endSize=3;endArrow=none;endFill=0;exitX=1;exitY=0.5;exitDx=0;exitDy=0;entryX=0;entryY=0.5;entryDx=0;entryDy=0;" parent="3tY0TkDUMJXCh9hplSuB-1" source="f4EQiWSrmJXB-VE3wWvt-36" target="f4EQiWSrmJXB-VE3wWvt-34" edge="1">
          <mxGeometry relative="1" as="geometry">
            <mxPoint x="172" y="249.02857142857135" as="sourcePoint" />
            <mxPoint x="487" y="230" as="targetPoint" />
            <Array as="points">
              <mxPoint x="327" y="247" />
              <mxPoint x="367" y="247" />
              <mxPoint x="367" y="231" />
            </Array>
          </mxGeometry>
        </mxCell>
        <mxCell id="f4EQiWSrmJXB-VE3wWvt-39" style="edgeStyle=orthogonalEdgeStyle;rounded=0;orthogonalLoop=1;jettySize=auto;html=1;labelBackgroundColor=default;fontSize=6;startArrow=none;startFill=0;startSize=3;endSize=3;endArrow=none;endFill=0;exitX=1;exitY=0.5;exitDx=0;exitDy=0;" parent="3tY0TkDUMJXCh9hplSuB-1" source="f4EQiWSrmJXB-VE3wWvt-37" target="f4EQiWSrmJXB-VE3wWvt-35" edge="1">
          <mxGeometry relative="1" as="geometry">
            <Array as="points">
              <mxPoint x="377" y="258" />
              <mxPoint x="377" y="242" />
            </Array>
          </mxGeometry>
        </mxCell>
        <mxCell id="3I-uDCUbhMjniZcurYs8-0" style="edgeStyle=orthogonalEdgeStyle;rounded=0;orthogonalLoop=1;jettySize=auto;html=1;entryX=0;entryY=0.5;entryDx=0;entryDy=0;labelBackgroundColor=default;fontSize=6;startArrow=none;startFill=0;startSize=3;endSize=3;endArrow=none;endFill=0;" parent="3tY0TkDUMJXCh9hplSuB-1" source="f4EQiWSrmJXB-VE3wWvt-42" target="3tY0TkDUMJXCh9hplSuB-46" edge="1">
          <mxGeometry relative="1" as="geometry">
            <Array as="points">
              <mxPoint x="597" y="219" />
              <mxPoint x="597" y="181" />
            </Array>
          </mxGeometry>
        </mxCell>
        <mxCell id="3I-uDCUbhMjniZcurYs8-5" value="" style="group" parent="3tY0TkDUMJXCh9hplSuB-1" vertex="1" connectable="0">
          <mxGeometry x="107" y="197.84" width="65" height="66.34" as="geometry" />
        </mxCell>
        <mxCell id="f4EQiWSrmJXB-VE3wWvt-2" value="&lt;div&gt;Read&lt;/div&gt;&lt;div&gt;XADC &lt;span style=&quot;font-weight: normal;&quot;&gt;&lt;br&gt;&lt;/span&gt;&lt;/div&gt;&lt;div&gt;&lt;span style=&quot;font-weight: normal;&quot;&gt;IP&lt;/span&gt;&lt;/div&gt;" style="shape=process;whiteSpace=wrap;html=1;backgroundOutline=1;fontSize=9;strokeColor=#b85450;fillColor=#f8cecc;size=0;fontStyle=1;align=center;" parent="3I-uDCUbhMjniZcurYs8-5" vertex="1">
          <mxGeometry y="0.34000000000000324" width="65" height="65.99999999999997" as="geometry" />
        </mxCell>
        <mxCell id="f4EQiWSrmJXB-VE3wWvt-20" value="&lt;div style=&quot;font-size: 7px;&quot;&gt;&lt;b style=&quot;font-size: 7px;&quot;&gt;AXI_M&lt;/b&gt;&lt;/div&gt;" style="shape=process;whiteSpace=wrap;html=1;backgroundOutline=1;fontSize=7;strokeColor=none;fillColor=none;size=0;verticalAlign=middle;align=center;" parent="3I-uDCUbhMjniZcurYs8-5" vertex="1">
          <mxGeometry x="32.5" y="1.34" width="32.5" height="9.999999999999996" as="geometry" />
        </mxCell>
        <mxCell id="f4EQiWSrmJXB-VE3wWvt-36" value="ADC Val" style="text;html=1;strokeColor=none;fillColor=none;align=right;verticalAlign=middle;whiteSpace=wrap;rounded=0;fontSize=6;" parent="3I-uDCUbhMjniZcurYs8-5" vertex="1">
          <mxGeometry x="21.666666666666664" y="43.659999999999975" width="43.33333333333333" height="11.339999999999995" as="geometry" />
        </mxCell>
        <mxCell id="f4EQiWSrmJXB-VE3wWvt-37" value="EOC" style="text;html=1;strokeColor=none;fillColor=none;align=right;verticalAlign=middle;whiteSpace=wrap;rounded=0;fontSize=6;" parent="3I-uDCUbhMjniZcurYs8-5" vertex="1">
          <mxGeometry x="21.666666666666664" y="54.99999999999998" width="43.33333333333333" height="11.339999999999995" as="geometry" />
        </mxCell>
      </root>
    </mxGraphModel>
  </diagram>
</mxfile>
